<svg width="139" height="38" viewBox="0 0 139 38" fill="none" xmlns="http://www.w3.org/2000/svg">
<path d="M28.896 29.622C28.924 29.734 28.896 29.846 28.812 29.958C28.756 30.07 28.672 30.126 28.56 30.126H21.294C21.07 30.126 20.916 30.014 20.832 29.79L19.32 25.17C19.264 25.002 19.152 24.918 18.984 24.918H9.996C9.8 24.918 9.674 25.002 9.618 25.17L8.064 29.874C8.008 30.042 7.896 30.126 7.728 30.126H0.42C0.28 30.126 0.168 30.07 0.084 29.958C0.028 29.846 0.028 29.734 0.084 29.622L10.878 0.935999C10.962 0.739998 11.102 0.641997 11.298 0.641997H17.682C17.878 0.641997 18.004 0.725998 18.06 0.893999L28.896 29.622ZM16.758 18.912C16.87 18.912 16.954 18.856 17.01 18.744C17.094 18.632 17.122 18.52 17.094 18.408L14.826 11.562C14.77 11.366 14.644 11.268 14.448 11.268C14.28 11.268 14.168 11.366 14.112 11.562L11.844 18.408C11.816 18.52 11.83 18.632 11.886 18.744C11.97 18.856 12.068 18.912 12.18 18.912H16.758ZM36.35 7.74C36.574 7.74 36.686 7.852 36.686 8.076V29.664C36.686 29.888 36.574 30 36.35 30H30.092C29.868 30 29.756 29.888 29.756 29.664V8.076C29.756 7.852 29.868 7.74 30.092 7.74H36.35ZM36.35 0.725999C36.574 0.725999 36.686 0.837999 36.686 1.062V5.64C36.686 5.864 36.574 5.976 36.35 5.976H30.092C29.868 5.976 29.756 5.864 29.756 5.64V1.062C29.756 0.837999 29.868 0.725999 30.092 0.725999H36.35ZM50.2963 7.74C50.5483 7.74 50.6743 7.866 50.6743 8.118L50.4643 13.326C50.4363 13.578 50.2963 13.69 50.0443 13.662C48.8963 13.55 48.0563 13.564 47.5243 13.704C46.8523 13.872 46.3903 14.236 46.1383 14.796C45.8863 15.3 45.7603 16.07 45.7603 17.106V29.664C45.7603 29.888 45.6483 30 45.4243 30H38.7463C38.5223 30 38.4103 29.888 38.4103 29.664V8.076C38.4103 7.852 38.5223 7.74 38.7463 7.74H45.0043C45.2283 7.74 45.3403 7.852 45.3403 8.076V8.706C45.3403 8.79 45.3683 8.846 45.4243 8.874C45.4803 8.902 45.5363 8.902 45.5923 8.874C46.7683 8.146 48.3363 7.768 50.2963 7.74ZM74.7869 0.725999C75.0389 0.725999 75.1649 0.837999 75.1649 1.062V29.622C75.1649 29.874 75.0389 30 74.7869 30H68.5709C68.3189 30 68.1929 29.874 68.1929 29.622V29.286C68.1929 29.09 68.1089 29.048 67.9409 29.16C66.1209 30.168 64.1609 30.672 62.0609 30.672C58.8129 30.672 56.0269 29.538 53.7029 27.27C51.4069 25.002 50.2589 22.258 50.2589 19.038C50.2589 15.818 51.4069 13.074 53.7029 10.806C56.0269 8.51 58.8129 7.362 62.0609 7.362C64.1609 7.362 66.1209 7.88 67.9409 8.916C67.9969 8.944 68.0529 8.944 68.1089 8.916C68.1649 8.888 68.1929 8.832 68.1929 8.748V1.062C68.1929 0.837999 68.3189 0.725999 68.5709 0.725999H74.7869ZM63.1529 24.372C64.6089 24.372 65.8129 23.854 66.7649 22.818C67.7169 21.782 68.1929 20.522 68.1929 19.038C68.1929 17.526 67.7169 16.266 66.7649 15.258C65.8129 14.222 64.6089 13.704 63.1529 13.704C61.6409 13.704 60.3529 14.222 59.2889 15.258C58.2529 16.294 57.7349 17.554 57.7349 19.038C57.7349 20.494 58.2529 21.754 59.2889 22.818C60.3529 23.854 61.6409 24.372 63.1529 24.372ZM88.728 7.74C88.98 7.74 89.106 7.866 89.106 8.118L88.896 13.326C88.868 13.578 88.728 13.69 88.476 13.662C87.328 13.55 86.488 13.564 85.956 13.704C85.284 13.872 84.822 14.236 84.57 14.796C84.318 15.3 84.192 16.07 84.192 17.106V29.664C84.192 29.888 84.08 30 83.856 30H77.178C76.954 30 76.842 29.888 76.842 29.664V8.076C76.842 7.852 76.954 7.74 77.178 7.74H83.436C83.66 7.74 83.772 7.852 83.772 8.076V8.706C83.772 8.79 83.8 8.846 83.856 8.874C83.912 8.902 83.968 8.902 84.024 8.874C85.2 8.146 86.768 7.768 88.728 7.74ZM100.493 7.404C102.117 7.404 103.657 7.712 105.113 8.328C106.569 8.944 107.815 9.77 108.851 10.806C109.915 11.842 110.755 13.088 111.371 14.544C112.015 15.972 112.337 17.47 112.337 19.038C112.337 22.258 111.175 25.016 108.851 27.312C106.555 29.58 103.769 30.714 100.493 30.714C97.2445 30.714 94.4585 29.58 92.1345 27.312C89.8385 25.016 88.6905 22.258 88.6905 19.038C88.6905 15.818 89.8385 13.074 92.1345 10.806C94.4585 8.538 97.2445 7.404 100.493 7.404ZM100.493 24.12C101.921 24.12 103.139 23.63 104.147 22.65C105.155 21.642 105.659 20.438 105.659 19.038C105.659 17.638 105.155 16.448 104.147 15.468C103.139 14.46 101.921 13.956 100.493 13.956C99.0925 13.956 97.8885 14.46 96.8805 15.468C95.8725 16.448 95.3685 17.638 95.3685 19.038C95.3685 19.962 95.5925 20.816 96.0405 21.6C96.5165 22.384 97.1465 23 97.9305 23.448C98.7145 23.896 99.5685 24.12 100.493 24.12ZM126.859 7.404C130.107 7.404 132.879 8.538 135.175 10.806C137.499 13.074 138.661 15.818 138.661 19.038C138.661 22.258 137.499 25.016 135.175 27.312C132.879 29.58 130.107 30.714 126.859 30.714C124.759 30.714 122.799 30.196 120.979 29.16C120.811 29.048 120.727 29.104 120.727 29.328V37.014C120.727 37.238 120.615 37.35 120.391 37.35H114.133C113.909 37.35 113.797 37.238 113.797 37.014V8.076C113.797 7.852 113.909 7.74 114.133 7.74H120.391C120.615 7.74 120.727 7.852 120.727 8.076V8.748C120.727 8.832 120.755 8.888 120.811 8.916C120.867 8.944 120.923 8.944 120.979 8.916C122.799 7.908 124.759 7.404 126.859 7.404ZM125.809 24.372C127.293 24.372 128.567 23.854 129.631 22.818C130.695 21.782 131.227 20.522 131.227 19.038C131.227 17.554 130.695 16.294 129.631 15.258C128.567 14.222 127.293 13.704 125.809 13.704C124.325 13.704 123.107 14.222 122.155 15.258C121.203 16.294 120.727 17.568 120.727 19.08C120.727 20.564 121.203 21.824 122.155 22.86C123.107 23.868 124.325 24.372 125.809 24.372Z" fill="url(#paint0_linear_3695_11863)"/>
<defs>
<linearGradient id="paint0_linear_3695_11863" x1="157.39" y1="-57.1326" x2="-21.0667" y2="-43.252" gradientUnits="userSpaceOnUse">
<stop stop-color="#F3FC1F"/>
<stop offset="0.46875" stop-color="#F3FC1F"/>
<stop offset="1" stop-color="#00FF80"/>
</linearGradient>
</defs>
</svg>
