<?xml version="1.0" encoding="UTF-8"?>
<svg width="197px" height="111px" viewBox="0 0 197 111" version="1.1" xmlns="http://www.w3.org/2000/svg" xmlns:xlink="http://www.w3.org/1999/xlink">
    <title>Path Copy 4</title>
    <defs>
        <linearGradient x1="50.3930844%" y1="32.9091823%" x2="52.7973928%" y2="65.7486464%" id="linearGradient-1">
            <stop stop-color="#9FFCB4" offset="0%"></stop>
            <stop stop-color="#F5FB7B" offset="100%"></stop>
        </linearGradient>
    </defs>
    <g id="Page-1" stroke="none" stroke-width="1" fill="none" fill-rule="evenodd">
        <g id="home-page-copy-10" transform="translate(-463.000000, -173.000000)" fill="url(#linearGradient-1)" fill-rule="nonzero">
            <path d="M653.162618,217.52006 L575.165366,176.764072 C571.395982,174.788024 566.549631,173.8 561.620437,173.8 C555.904228,173.8 550.063754,175.117365 545.755887,177.710928 L469.374085,223.571707 C461.338256,228.388323 461.462521,235.798503 469.705459,240.07994 L483.208967,247.119611 L488.80091,250.042515 L494.392853,252.965419 L525.459204,269.185479 L531.051147,272.108383 L536.643091,275.031287 L547.744133,280.835928 C551.513517,282.811976 556.359868,283.8 561.289062,283.8 C567.005271,283.8 572.845745,282.482635 577.153612,279.889072 L586.30783,274.413772 L591.692665,271.161527 L597.077499,267.909281 L628.516646,249.013323 L633.90148,245.761078 L639.286314,242.508832 L653.493992,233.987126 C661.529822,229.170509 661.405556,221.801497 653.162618,217.52006 Z" id="Path-Copy-4"></path>
        </g>
    </g>
</svg>