<svg width="142" height="53" viewBox="0 0 142 53" fill="none" xmlns="http://www.w3.org/2000/svg">
<g filter="url(#filter0_d)">
<path d="M121.124 49.3436C121.124 51.2113 119.822 52.7241 118.212 52.7241H22.9158C21.3064 52.7241 20 51.2113 20 49.3436V22.3849C20 20.5182 21.3064 19 22.9158 19H118.211C119.822 19 121.123 20.5182 121.123 22.3849L121.124 49.3436Z" fill="url(#paint0_linear)"/>
<path d="M42.2153 35.3094C42.1935 32.8023 44.2002 31.5826 44.292 31.5259C43.1555 29.8122 41.3939 29.5781 40.7749 29.5594C39.2954 29.3984 37.8603 30.4749 37.1066 30.4749C36.3379 30.4749 35.1773 29.5749 33.9265 29.6014C32.3169 29.6271 30.811 30.5908 29.9852 32.0875C28.2808 35.1391 29.5519 39.6235 31.1849 42.0902C32.0017 43.2982 32.9562 44.647 34.2055 44.5996C35.4278 44.5475 35.8844 43.7937 37.3594 43.7937C38.8208 43.7937 39.2495 44.5996 40.5237 44.5693C41.8355 44.5475 42.6613 43.3558 43.4496 42.1368C44.3936 40.7522 44.7726 39.3886 44.7877 39.3186C44.7568 39.3077 42.2401 38.3144 42.2153 35.3094Z" fill="white"/>
<path d="M39.8087 27.9366C40.466 27.0864 40.9158 25.9297 40.791 24.7559C39.8395 24.7994 38.6496 25.4365 37.9644 26.268C37.3581 27.0008 36.8166 28.2018 36.9565 29.3313C38.0253 29.4138 39.1227 28.7736 39.8087 27.9366Z" fill="white"/>
<path fill-rule="evenodd" clip-rule="evenodd" d="M58.3498 44.3553H60.0681L56.8108 33.9336H54.8088L51.5674 44.3553H53.2403L54.1369 41.2941H57.4086L58.3498 44.3553ZM56.2731 37.2885L57.1243 40.0098H54.4208L55.2569 37.2885C55.4763 36.4232 55.636 35.7685 55.7351 35.3252H55.7654C56.0143 36.3558 56.183 37.0105 56.2731 37.2885Z" fill="white"/>
<path fill-rule="evenodd" clip-rule="evenodd" d="M67.403 43.5356C68.0703 42.794 68.404 41.7838 68.404 40.5058C68.404 39.3616 68.118 38.4391 67.5445 37.7375C66.9725 37.0366 66.2575 36.6865 65.4009 36.6865C64.3053 36.6865 63.4889 37.1345 62.951 38.0319H62.9207L62.8307 36.8408H61.412C61.4513 37.6866 61.4718 38.5112 61.4718 39.3147V47.4175H63.0849V43.4589H63.1152C63.5336 44.17 64.2206 44.5255 65.177 44.5255C66.063 44.5255 66.8053 44.1958 67.403 43.5356ZM66.282 38.7577C66.6013 39.2323 66.7602 39.8353 66.7602 40.5667C66.7602 41.3608 66.5907 41.9998 66.2518 42.4846C65.9135 42.9685 65.4407 43.2113 64.8331 43.2113C64.3155 43.2113 63.8949 43.0233 63.571 42.6467C63.2472 42.27 63.0853 41.8087 63.0853 41.2621V40.0091C63.0853 39.876 63.1102 39.7068 63.1602 39.5001C63.2593 39.0569 63.4711 38.699 63.795 38.4249C64.1181 38.1532 64.4797 38.0153 64.8777 38.0153C65.4649 38.0153 65.9332 38.2628 66.282 38.7577Z" fill="white"/>
<path fill-rule="evenodd" clip-rule="evenodd" d="M75.7519 43.5356C76.42 42.794 76.7537 41.7838 76.7537 40.5058C76.7537 39.3616 76.467 38.4391 75.8957 37.7375C75.3222 37.0366 74.6072 36.6865 73.7514 36.6865C72.6551 36.6865 71.8386 37.1345 71.3014 38.0319H71.2712L71.1811 36.8408H69.7625C69.8018 37.6866 69.8222 38.5112 69.8222 39.3147V47.4175H71.4354V43.4589H71.4656C71.8833 44.17 72.5703 44.5255 73.5267 44.5255C74.4127 44.5255 75.155 44.1958 75.7519 43.5356ZM74.6319 38.7577C74.9512 39.2323 75.1108 39.8353 75.1108 40.5667C75.1108 41.3608 74.9413 41.9998 74.6024 42.4846C74.2642 42.9685 73.7913 43.2113 73.1837 43.2113C72.6646 43.2113 72.244 43.0226 71.9201 42.6467C71.5978 42.27 71.4359 41.8087 71.4359 41.2621V40.0091C71.4359 39.876 71.4616 39.7068 71.5108 39.5001C71.6099 39.0569 71.821 38.699 72.1448 38.4249C72.4687 38.1532 72.8296 38.0153 73.2283 38.0153C73.8162 38.0153 74.2831 38.2628 74.6319 38.7577Z" fill="white"/>
<path d="M86.0915 41.433C86.0915 42.3195 85.7941 43.0408 85.1971 43.5976C84.5411 44.2061 83.6279 44.5099 82.4543 44.5099C81.3709 44.5099 80.5022 44.2938 79.8447 43.8607L80.2185 42.4691C80.9267 42.9123 81.7038 43.1348 82.5504 43.1348C83.158 43.1348 83.6309 42.9922 83.9706 42.7087C84.3088 42.4253 84.4776 42.0447 84.4776 41.5701C84.4776 41.1472 84.3384 40.7909 84.0592 40.5019C83.7815 40.213 83.3177 39.9444 82.67 39.6961C80.907 39.0156 80.0263 38.0187 80.0263 36.7077C80.0263 35.851 80.335 35.1486 80.9532 34.602C81.5691 34.0546 82.3908 33.7812 83.4183 33.7812C84.3346 33.7812 85.0957 33.9465 85.7033 34.2762L85.3 35.6372C84.7326 35.3177 84.0909 35.158 83.3729 35.158C82.8054 35.158 82.362 35.3028 82.0443 35.591C81.7756 35.8487 81.641 36.1627 81.641 36.5347C81.641 36.9466 81.7946 37.2872 82.1033 37.5551C82.3719 37.8025 82.8599 38.0704 83.5681 38.3593C84.4345 38.7203 85.0708 39.1424 85.4801 39.6264C85.8879 40.1088 86.0915 40.7126 86.0915 41.433Z" fill="white"/>
<path d="M91.4258 38.0942H89.6477V41.7427C89.6477 42.6707 89.9609 43.1343 90.5889 43.1343C90.8772 43.1343 91.1163 43.1084 91.3055 43.0567L91.3501 44.3246C91.0323 44.4476 90.6139 44.5094 90.0956 44.5094C89.4585 44.5094 88.9607 44.3082 88.6013 43.9064C88.2434 43.5039 88.0633 42.8289 88.0633 41.8805V38.0926H87.004V36.8396H88.0633V35.4637L89.6477 34.9688V36.8396H91.4258V38.0942Z" fill="white"/>
<path fill-rule="evenodd" clip-rule="evenodd" d="M98.492 43.3816C99.1291 42.6399 99.4484 41.6916 99.4484 40.5365C99.4484 39.4127 99.1397 38.4957 98.5207 37.7854C97.8738 37.0532 97.0166 36.6875 95.9512 36.6875C94.8458 36.6875 93.9666 37.0587 93.3151 37.8011C92.6621 38.5427 92.3368 39.4965 92.3368 40.661C92.3368 41.7738 92.6531 42.6971 93.2856 43.4285C93.9182 44.16 94.7663 44.5257 95.8317 44.5257C96.9371 44.5257 97.8239 44.1451 98.492 43.3816ZM97.3418 38.8076C97.6316 39.3034 97.7746 39.8977 97.7746 40.5908C97.7746 41.2831 97.6248 41.8837 97.3274 42.3888C96.9786 42.9981 96.4951 43.3035 95.8792 43.3035C95.2504 43.3035 94.7632 43.0043 94.4144 42.4045C94.1246 41.9096 93.9816 41.3152 93.9816 40.6221C93.9816 39.9079 94.1246 39.3041 94.4144 38.8076C94.7526 38.2086 95.2452 37.9086 95.8936 37.9086C96.5201 37.9086 97.0036 38.2078 97.3418 38.8076Z" fill="white"/>
<path d="M104.692 38.3091C104.532 38.2786 104.362 38.2629 104.183 38.2629C103.616 38.2629 103.177 38.4846 102.868 38.9286C102.599 39.3201 102.465 39.8151 102.465 40.4126V44.3555H100.852L100.868 39.2074C100.868 38.3412 100.847 37.5526 100.807 36.8416H102.212L102.271 38.2794H102.316C102.486 37.7852 102.755 37.3874 103.122 37.089C103.482 36.8204 103.87 36.6865 104.288 36.6865C104.437 36.6865 104.572 36.6975 104.692 36.7171V38.3091Z" fill="white"/>
<path fill-rule="evenodd" clip-rule="evenodd" d="M111.847 41.0003C111.887 40.7944 111.906 40.5422 111.906 40.2431C111.906 39.3057 111.692 38.5163 111.266 37.8781C110.728 37.0746 109.936 36.6729 108.889 36.6729C107.824 36.6729 106.977 37.0746 106.351 37.8781C105.752 38.6306 105.453 39.5743 105.453 40.7074C105.453 41.8618 105.775 42.7819 106.416 43.4671C107.06 44.1524 107.943 44.4954 109.069 44.4954C110.005 44.4954 110.816 44.3411 111.503 44.031L111.251 42.872C110.663 43.1093 110.009 43.2275 109.292 43.2275C108.645 43.2275 108.117 43.0521 107.71 42.702C107.26 42.3105 107.026 41.7427 107.007 41.0003H111.847ZM110.054 38.5264C110.273 38.8874 110.378 39.315 110.368 39.8099V39.8091H107.007C107.056 39.3048 107.216 38.8717 107.485 38.5107C107.812 38.0565 108.241 37.8302 108.769 37.8302C109.346 37.8302 109.775 38.062 110.054 38.5264Z" fill="white"/>
<path fill-rule="evenodd" clip-rule="evenodd" d="M55.6639 30.3071C56.1999 29.8512 56.4683 29.1725 56.4683 28.2708C56.4683 27.4679 56.2197 26.8512 55.724 26.4199C55.2815 26.0384 54.6254 25.8477 53.7549 25.8477C53.2622 25.8477 52.806 25.8829 52.3826 25.9518V30.8786C52.7072 30.9184 53.0949 30.9383 53.5481 30.9383C54.4619 30.9383 55.1674 30.7276 55.6639 30.3071ZM55.1672 26.9477C55.4743 27.2603 55.6279 27.7085 55.6279 28.293C55.6279 28.9472 55.4606 29.4452 55.1292 29.7869C54.7977 30.1285 54.3271 30.2994 53.7173 30.2994C53.4566 30.2994 53.2771 30.2925 53.1791 30.2772V26.5317C53.3562 26.4965 53.5699 26.4797 53.8207 26.4797C54.4115 26.4797 54.86 26.6359 55.1672 26.9477Z" fill="white"/>
<path fill-rule="evenodd" clip-rule="evenodd" d="M60.4506 30.4268C60.7654 30.0698 60.9228 29.6147 60.9228 29.0593C60.9228 28.52 60.77 28.0787 60.4658 27.737C60.1458 27.3854 59.7231 27.21 59.197 27.21C58.6511 27.21 58.2177 27.3885 57.8954 27.7447C57.573 28.1009 57.4126 28.5598 57.4126 29.1191C57.4126 29.6538 57.5685 30.0974 57.8802 30.449C58.1926 30.8014 58.6115 30.9768 59.1377 30.9768C59.6835 30.9768 60.1207 30.7937 60.4506 30.4268ZM59.8821 28.2283C60.0242 28.4665 60.0957 28.7523 60.0957 29.0855C60.0957 29.4188 60.022 29.7068 59.8745 29.9497C59.7027 30.2431 59.4639 30.3894 59.1598 30.3894C58.8496 30.3894 58.6094 30.2454 58.4368 29.9573C58.2946 29.7191 58.2232 29.4333 58.2232 29.1001C58.2232 28.7569 58.2939 28.4665 58.4368 28.2283C58.6041 27.9402 58.8474 27.7962 59.1674 27.7962C59.4769 27.7962 59.7148 27.9402 59.8821 28.2283Z" fill="white"/>
<path d="M66.8954 27.2832L65.774 30.8945H65.0441L64.5796 29.3264C64.4618 28.9349 64.366 28.5457 64.2915 28.1596H64.277C64.2078 28.5564 64.1121 28.9448 63.9889 29.3264L63.4955 30.8945H62.7573L61.7028 27.2832H62.5216L62.9268 29C63.0249 29.406 63.1055 29.7929 63.1701 30.1591H63.1845C63.2438 29.8573 63.3419 29.4727 63.4803 29.0077L63.9889 27.284H64.6382L65.1255 28.9709C65.2433 29.3823 65.3391 29.7784 65.4129 30.1599H65.4349C65.4889 29.7883 65.5703 29.3922 65.6782 28.9709L66.1131 27.284H66.8954V27.2832Z" fill="white"/>
<path d="M71.0256 30.8942H70.2288V28.8258C70.2288 28.1884 69.9886 27.8697 69.5066 27.8697C69.2701 27.8697 69.0793 27.957 68.931 28.1325C68.7843 28.3079 68.7098 28.5147 68.7098 28.7515V30.8935H67.913V28.3148C67.913 27.9976 67.9032 27.6537 67.8842 27.2813H68.5844L68.6216 27.8459H68.6437C68.7364 27.6705 68.8748 27.5257 69.0565 27.41C69.2724 27.2752 69.5142 27.207 69.7787 27.207C70.1133 27.207 70.3915 27.3158 70.6128 27.5342C70.888 27.8015 71.0256 28.2006 71.0256 28.7308V30.8942Z" fill="white"/>
<path d="M73.2224 30.8944H72.4264V25.626H73.2224V30.8944Z" fill="white"/>
<path fill-rule="evenodd" clip-rule="evenodd" d="M77.4418 30.4268C77.7566 30.0698 77.914 29.6147 77.914 29.0593C77.914 28.52 77.7612 28.0787 77.4571 27.737C77.1362 27.3854 76.7143 27.21 76.1874 27.21C75.6423 27.21 75.2089 27.3885 74.8866 27.7447C74.5642 28.1009 74.4038 28.5598 74.4038 29.1191C74.4038 29.6538 74.5597 30.0974 74.8714 30.449C75.1831 30.8014 75.602 30.9768 76.1289 30.9768C76.674 30.9768 77.1119 30.7937 77.4418 30.4268ZM76.8724 28.2283C77.0146 28.4665 77.0861 28.7523 77.0861 29.0855C77.0861 29.4188 77.0131 29.7068 76.8648 29.9497C76.693 30.2431 76.455 30.3894 76.1509 30.3894C75.8407 30.3894 75.6005 30.2454 75.4279 29.9573C75.2857 29.7191 75.2143 29.4333 75.2143 29.1001C75.2143 28.7569 75.285 28.4665 75.4279 28.2283C75.5944 27.9402 75.8377 27.7962 76.1585 27.7962C76.4672 27.7962 76.7059 27.9402 76.8724 28.2283Z" fill="white"/>
<path fill-rule="evenodd" clip-rule="evenodd" d="M81.0551 30.8948H81.7705C81.7363 30.6819 81.7188 30.3946 81.7188 30.0338V28.7038C81.7188 27.7079 81.2489 27.21 80.3123 27.21C79.8272 27.21 79.4159 27.3141 79.0829 27.5218L79.2449 28.0488C79.514 27.8711 79.8257 27.7815 80.1792 27.7815C80.6757 27.7815 80.9236 28.019 80.9236 28.4947V28.5621C80.2598 28.5567 79.7444 28.6709 79.3779 28.9038C79.0107 29.1367 78.8282 29.473 78.8282 29.9143C78.8282 30.2061 78.9218 30.452 79.1088 30.6497C79.3148 30.8673 79.5885 30.9768 79.9268 30.9768C80.38 30.9768 80.7289 30.8106 80.9737 30.4789H80.9958L81.0551 30.8948ZM80.9436 29.0968V29.6538C80.9436 29.7082 80.9391 29.7557 80.9307 29.7948C80.8965 29.9687 80.8045 30.1104 80.6547 30.2222C80.5057 30.3333 80.3423 30.3892 80.1674 30.3892C80.0115 30.3892 79.8808 30.3425 79.7781 30.2483C79.6755 30.1541 79.6253 30.0131 79.6253 29.8246C79.6253 29.3244 80.0648 29.0815 80.9436 29.0968Z" fill="white"/>
<path fill-rule="evenodd" clip-rule="evenodd" d="M85.5908 30.8944H86.2978C86.2788 30.5971 86.2697 30.2731 86.2697 29.9214V25.626H85.4722V27.699H85.4569C85.2654 27.3719 84.9286 27.2087 84.4473 27.2087C84.0094 27.2087 83.6414 27.3773 83.3411 27.7143C83.0309 28.0759 82.8766 28.5494 82.8766 29.1339C82.8766 29.6786 83.0188 30.1222 83.3039 30.4638C83.589 30.8055 83.9486 30.9763 84.3804 30.9763C84.921 30.9763 85.3057 30.7557 85.5315 30.3144H85.5535L85.5908 30.8944ZM85.4712 28.7693V29.3714C85.4712 29.6288 85.396 29.8495 85.2424 30.0326C85.0835 30.231 84.8744 30.3298 84.6129 30.3298C84.3217 30.3298 84.0891 30.2111 83.9165 29.9736C83.753 29.7506 83.6717 29.4611 83.6717 29.1041C83.6717 28.7325 83.7576 28.4284 83.9271 28.1901C84.0982 27.9519 84.3308 27.8331 84.6281 27.8331C84.8341 27.8331 85.0128 27.899 85.161 28.03C85.3078 28.161 85.4043 28.3234 85.4492 28.5165C85.4636 28.5808 85.4712 28.6651 85.4712 28.7693Z" fill="white"/>
<path fill-rule="evenodd" clip-rule="evenodd" d="M92.6394 30.4268C92.9541 30.0698 93.1115 29.6147 93.1115 29.0593C93.1115 28.52 92.9587 28.0787 92.6546 27.737C92.3353 27.3854 91.9118 27.21 91.3864 27.21C90.8398 27.21 90.4064 27.3885 90.0841 27.7447C89.7617 28.1009 89.6013 28.5598 89.6013 29.1191C89.6013 29.6538 89.7572 30.0974 90.0689 30.449C90.3821 30.8014 90.801 30.9768 91.3264 30.9768C91.873 30.9768 92.3094 30.7937 92.6394 30.4268ZM92.0717 28.2283C92.2138 28.4665 92.2853 28.7523 92.2853 29.0855C92.2853 29.4188 92.2108 29.7068 92.0641 29.9497C91.8922 30.2431 91.6527 30.3894 91.3486 30.3894C91.0384 30.3894 90.7982 30.2454 90.6256 29.9573C90.4834 29.7191 90.412 29.4333 90.412 29.1001C90.412 28.7569 90.4827 28.4665 90.6256 28.2283C90.7936 27.9402 91.0369 27.7962 91.3562 27.7962C91.6664 27.7962 91.9036 27.9402 92.0717 28.2283Z" fill="white"/>
<path d="M97.3959 30.8942H96.5999V28.8258C96.5999 28.1884 96.3597 27.8697 95.8769 27.8697C95.6405 27.8697 95.4496 27.957 95.3021 28.1325C95.1546 28.3079 95.0809 28.5147 95.0809 28.7515V30.8935H94.2834V28.3148C94.2834 27.9976 94.2743 27.6537 94.2552 27.2813H94.9547L94.992 27.8459H95.014C95.1075 27.6705 95.2459 27.5257 95.4268 27.41C95.6435 27.2752 95.8845 27.207 96.1498 27.207C96.4836 27.207 96.7619 27.3158 96.9831 27.5342C97.2591 27.8015 97.3959 28.2006 97.3959 28.7308V30.8942Z" fill="white"/>
<path d="M102.757 27.8846H101.88V29.6389C101.88 30.0848 102.036 30.3077 102.345 30.3077C102.488 30.3077 102.606 30.2954 102.7 30.2702L102.72 30.8792C102.563 30.939 102.356 30.9688 102.101 30.9688C101.787 30.9688 101.542 30.8723 101.365 30.6792C101.187 30.4862 101.099 30.1614 101.099 29.7056V27.8846H100.575V27.2832H101.099V26.6213L101.879 26.3838V27.2824H102.757V27.8846H102.757Z" fill="white"/>
<path d="M106.976 30.8944H106.178V28.8413C106.178 28.1939 105.938 27.8699 105.457 27.8699C105.087 27.8699 104.835 28.0575 104.696 28.4329C104.673 28.5118 104.659 28.6084 104.659 28.7217V30.8936H103.863V25.626H104.659V27.8024H104.674C104.925 27.4064 105.285 27.2087 105.751 27.2087C106.081 27.2087 106.354 27.3175 106.57 27.5358C106.84 27.8078 106.976 28.2123 106.976 28.747V30.8944Z" fill="white"/>
<path fill-rule="evenodd" clip-rule="evenodd" d="M111.297 29.2813C111.316 29.1825 111.326 29.0614 111.326 28.9174C111.326 28.467 111.221 28.0877 111.007 27.7813C110.742 27.3952 110.351 27.2021 109.835 27.2021C109.308 27.2021 108.891 27.3952 108.582 27.7813C108.287 28.1429 108.14 28.5964 108.14 29.1411C108.14 29.6958 108.297 30.1378 108.615 30.4672C108.931 30.7966 109.368 30.9613 109.923 30.9613C110.386 30.9613 110.786 30.887 111.126 30.7384L111.002 30.1807C110.711 30.2948 110.389 30.3515 110.035 30.3515C109.716 30.3515 109.455 30.2673 109.253 30.0987C109.032 29.9103 108.918 29.6383 108.907 29.2813H111.297ZM110.412 28.0932C110.52 28.2663 110.573 28.4716 110.566 28.7099H108.908C108.933 28.467 109.012 28.2594 109.144 28.0855C109.306 27.8672 109.518 27.7584 109.778 27.7584C110.063 27.7584 110.274 27.8702 110.412 28.0932Z" fill="white"/>
</g>
<defs>
<filter id="filter0_d" x="0" y="0" width="141.124" height="73.7246" filterUnits="userSpaceOnUse" color-interpolation-filters="sRGB">
<feFlood flood-opacity="0" result="BackgroundImageFix"/>
<feColorMatrix in="SourceAlpha" type="matrix" values="0 0 0 0 0 0 0 0 0 0 0 0 0 0 0 0 0 0 127 0" result="hardAlpha"/>
<feOffset dy="1"/>
<feGaussianBlur stdDeviation="10"/>
<feComposite in2="hardAlpha" operator="out"/>
<feColorMatrix type="matrix" values="0 0 0 0 0.641621 0 0 0 0 0.6625 0 0 0 0 0.640417 0 0 0 0.1 0"/>
<feBlend mode="normal" in2="BackgroundImageFix" result="effect1_dropShadow"/>
<feBlend mode="normal" in="SourceGraphic" in2="effect1_dropShadow" result="shape"/>
</filter>
<linearGradient id="paint0_linear" x1="166.964" y1="36.1237" x2="146.229" y2="-23.0962" gradientUnits="userSpaceOnUse">
<stop stop-color="#2F342F"/>
<stop offset="1"/>
</linearGradient>
</defs>
</svg>
