<svg width="68" height="64" viewBox="0 0 68 64" fill="none" xmlns="http://www.w3.org/2000/svg">
<g filter="url(#filter0_d_3319_12107)">
<path d="M36.477 16.7135C37.0575 16.804 37.6324 16.9275 38.199 17.0833L39.8595 17.607C40.9283 18.014 41.9663 18.498 42.9653 19.0552C44.9948 20.1643 46.9628 21.3352 48.8693 22.6292C52.7131 25.1865 56.4646 28.0211 59.6011 31.7184C61.1694 33.5979 62.6147 35.693 63.4449 38.2811C63.9013 39.6172 64.0792 41.0329 63.9677 42.4406C63.8786 43.8972 63.4466 45.312 62.7069 46.5692C62.3501 47.1807 61.9384 47.7582 61.4769 48.2947C61.0263 48.7979 60.5435 49.2714 60.0317 49.712C59.0461 50.5264 57.9735 51.2291 56.8336 51.8071C54.6698 52.8861 52.3896 53.7131 50.0378 54.272C45.4561 55.412 40.8435 55.8433 36.2925 55.9666C31.7261 56.0747 27.1574 55.9204 22.6087 55.5044C13.5844 54.6984 4.63857 53.1736 -4.14403 50.9444C-12.9216 48.7813 -21.5331 45.9909 -29.9127 42.5947C-34.0947 40.8693 -38.2152 38.959 -42.2128 36.833C-44.2115 35.7546 -46.1796 34.6454 -48.1168 33.4438C-50.0541 32.2422 -51.9298 30.979 -53.7748 29.6233C-55.6014 28.2358 -57.3468 26.7441 -59.0024 25.1557C-60.6856 23.5262 -62.1345 21.67 -63.3074 19.6406C-63.9171 18.5994 -64.3827 17.4799 -64.6912 16.313C-65.0095 15.1075 -65.0827 13.8501 -64.9064 12.6157C-64.7166 11.3695 -64.2546 10.1807 -63.5534 9.13406C-62.8587 8.13109 -62.0073 7.2468 -61.0319 6.51513C-59.1347 5.13585 -57.0265 4.07447 -54.7896 3.37243C-52.6125 2.65746 -50.3809 2.12163 -48.1168 1.77026C-45.8769 1.40053 -43.6185 1.15367 -41.3518 1.03081L-39.6605 0.907564L-37.9692 0.753509L-36.278 0.507017C-35.7245 0.383773 -35.171 0.260532 -34.5867 0.0756668C-34.1993 -0.0506933 -33.7777 -0.0178283 -33.4145 0.167033C-33.0513 0.351894 -32.7761 0.673641 -32.6495 1.06162C-32.5823 1.2557 -32.5546 1.46128 -32.5679 1.66627C-32.5812 1.87126 -32.6353 2.07151 -32.7269 2.25524C-32.8186 2.43897 -32.9461 2.60247 -33.1017 2.73613C-33.2574 2.86979 -33.4382 2.97089 -33.6335 3.03351C-33.9446 3.12509 -34.2755 3.12509 -34.5867 3.03351C-35.6759 2.70188 -36.8016 2.50528 -37.9385 2.44811C-39.0463 2.40187 -40.156 2.43275 -41.2595 2.54053C-43.4735 2.69459 -45.6875 2.97189 -47.8708 3.34162C-50.0288 3.71914 -52.1563 4.25464 -54.2361 4.94379C-56.2964 5.68325 -58.2951 6.60757 -59.9556 7.90162C-60.7672 8.52363 -61.4732 9.27271 -62.0467 10.12C-62.5992 10.9422 -62.9569 11.8802 -63.0922 12.8622C-63.3689 14.8341 -62.7232 16.8676 -61.6469 18.6854C-60.5199 20.5303 -59.1436 22.21 -57.5571 23.6768C-55.9832 25.2075 -54.2975 26.6185 -52.5141 27.8979C-48.9045 30.4613 -45.1004 32.7379 -41.1365 34.7071C-37.1697 36.7098 -33.08 38.4968 -28.9287 40.099C-20.6229 43.3032 -12.0921 45.8881 -3.40601 47.8325C5.25127 49.8366 14.0525 51.1553 22.9162 51.7763C27.3162 52.0997 31.7314 52.1614 36.1387 51.9611C38.322 51.8379 40.5053 51.653 42.6578 51.3757C44.7915 51.103 46.9068 50.7017 48.9923 50.1741C51.0035 49.6598 52.9524 48.9263 54.8041 47.9866C56.5569 47.0314 58.0636 45.799 58.8631 44.3817C59.6626 42.9644 59.7241 41.3622 59.1399 39.6676C58.5556 37.973 57.4794 36.2476 56.1264 34.7071C54.7392 33.1283 53.2164 31.6746 51.5753 30.3627C49.8884 29.0102 48.1334 27.7453 46.3171 26.573C44.4721 25.3714 42.5963 24.293 40.659 23.2146C39.7058 22.6908 38.7833 22.1054 37.8608 21.4892L36.5077 20.5033C36.0496 20.1671 35.6179 19.7963 35.2162 19.3941H35.1855C35.0414 19.2509 34.927 19.0805 34.8489 18.8927C34.7709 18.705 34.7307 18.5037 34.7307 18.3003C34.7307 18.0969 34.7709 17.8956 34.8489 17.7078C34.927 17.5201 35.0414 17.3497 35.1855 17.2065C35.3489 17.031 35.5502 16.8952 35.7741 16.8098C35.998 16.7243 36.2385 16.6914 36.477 16.7135Z" fill="url(#paint0_linear_3319_12107)" shape-rendering="crispEdges"/>
</g>
<g clip-path="url(#clip0_3319_12107)">
<path d="M43 15.5871L36.8938 16.2674L35.2345 15.3604C33.0031 14.0685 30.4549 13.6692 28 14.2267L28.1327 14.5291C29.2071 16.7865 30.8477 18.6284 32.8451 19.8198L34.7699 20.8778L37.9558 27L38.4867 23.0697L40.5442 18.4593L43 15.5871Z" fill="url(#paint1_linear_3319_12107)"/>
</g>
<defs>
<filter id="filter0_d_3319_12107" x="-69" y="0" width="137" height="64" filterUnits="userSpaceOnUse" color-interpolation-filters="sRGB">
<feFlood flood-opacity="0" result="BackgroundImageFix"/>
<feColorMatrix in="SourceAlpha" type="matrix" values="0 0 0 0 0 0 0 0 0 0 0 0 0 0 0 0 0 0 127 0" result="hardAlpha"/>
<feOffset dy="4"/>
<feGaussianBlur stdDeviation="2"/>
<feComposite in2="hardAlpha" operator="out"/>
<feColorMatrix type="matrix" values="0 0 0 0 0 0 0 0 0 0 0 0 0 0 0 0 0 0 0.25 0"/>
<feBlend mode="normal" in2="BackgroundImageFix" result="effect1_dropShadow_3319_12107"/>
<feBlend mode="normal" in="SourceGraphic" in2="effect1_dropShadow_3319_12107" result="shape"/>
</filter>
<linearGradient id="paint0_linear_3319_12107" x1="-66.4685" y1="28.0057" x2="64.1522" y2="28.0057" gradientUnits="userSpaceOnUse">
<stop stop-color="#3AD889" stop-opacity="0.5"/>
<stop offset="0.21" stop-color="#65E070" stop-opacity="0.62"/>
<stop offset="0.6" stop-color="#B1EF45" stop-opacity="0.82"/>
<stop offset="0.87" stop-color="#E1F82A" stop-opacity="0.95"/>
<stop offset="1" stop-color="#F3FC1F"/>
</linearGradient>
<linearGradient id="paint1_linear_3319_12107" x1="25.5" y1="12.6999" x2="40.1842" y2="19.2212" gradientUnits="userSpaceOnUse">
<stop stop-color="#3AD889"/>
<stop offset="0.78205" stop-color="#F3FC1F"/>
</linearGradient>
<clipPath id="clip0_3319_12107">
<rect width="15" height="13" fill="white" transform="translate(28 14)"/>
</clipPath>
</defs>
</svg>
