<?xml version="1.0" encoding="UTF-8"?>
<svg width="17px" height="14px" viewBox="0 0 17 14" version="1.1" xmlns="http://www.w3.org/2000/svg" xmlns:xlink="http://www.w3.org/1999/xlink">
    <title>Shape</title>
    <g id="Page-1" stroke="none" stroke-width="1" fill="none" fill-rule="evenodd">
        <g id="home-page-copy-10" transform="translate(-54.000000, -379.000000)" fill="#393939" fill-rule="nonzero">
            <path d="M61.1515053,379.000789 C61.1275211,379.002406 61.1036469,379.005309 61.0799913,379.009484 L57.2693186,379.009484 C56.5546283,379.009484 55.9616347,379.586234 55.9616347,380.281349 L55.9616347,384.585072 C54.7679904,385.518835 54.0000531,386.948435 54.0000531,388.548472 C53.9977076,388.727642 54.0731269,388.899484 54.2078183,389.021737 C54.3425097,389.14399 54.5239753,389.20531 54.7075862,389.190615 C55.0302032,391.338599 56.9355843,393 59.2308445,393 C61.5261051,393 63.4314856,391.338599 63.754103,389.190615 C63.8065276,389.194696 63.859267,389.192611 63.9111781,389.184405 L66.1357734,389.184405 C65.908953,389.560641 65.7692642,389.99161 65.7692642,390.45627 C65.7692642,391.853601 66.9479491,393 68.3846321,393 C69.8213152,393 71,391.853601 71,390.45627 C71,389.619131 70.5715916,388.877548 69.9234597,388.413088 L70.9719051,384.916701 L70.9757366,384.903038 C70.9775359,384.896853 70.9792387,384.890642 70.9808444,384.884407 C70.9934629,384.834829 71,384.783952 71,384.732877 C71,384.381661 70.707265,384.096944 70.346158,384.096944 L67.0769482,384.096944 L67.0769482,380.917281 L67.7307901,380.917281 L67.7307901,379.645416 L66.4231062,379.645416 C66.0620142,379.645451 65.7693003,379.930147 65.7692642,380.281349 L65.7692642,384.096944 L63.0108684,384.096944 L62.0301055,380.281349 L62.5000531,380.281349 C62.7358533,380.284592 62.9551816,380.164098 63.0740542,379.966007 C63.1929268,379.767916 63.1929268,379.522917 63.0740542,379.324825 C62.9551816,379.126734 62.7358533,379.00624 62.5000531,379.009484 L61.2958102,379.009484 C61.2696243,379.005023 61.2431831,379.002119 61.2166339,379.000789 C61.1949378,378.999737 61.1732014,378.999737 61.1515053,379.000789 Z M57.2693186,380.281349 L60.6815564,380.281349 L61.6482722,384.043536 C60.9241821,383.674056 60.1026297,383.461011 59.2308445,383.461011 C58.5374541,383.461011 57.875796,383.596033 57.2693186,383.836113 L57.2693186,380.281349 Z M59.2308445,385.368809 C61.0441235,385.368809 62.5000544,386.784861 62.5000544,388.548472 C62.5000544,390.312083 61.0441235,391.728135 59.2308445,391.728135 C57.4175652,391.728135 55.9616347,390.312083 55.9616347,388.548472 C55.9616347,386.784861 57.4175652,385.368809 59.2308445,385.368809 Z M59.2308445,387.276607 C58.5086306,387.276607 57.9231606,387.84604 57.9231606,388.548472 C57.9231606,389.250904 58.5086306,389.820337 59.2308445,389.820337 C59.9530584,389.820337 60.5385285,389.250904 60.5385285,388.548472 C60.5385285,387.84604 59.9530584,387.276607 59.2308445,387.276607 Z M68.3846321,389.184405 C69.1145904,389.184405 69.6923161,389.746306 69.6923161,390.45627 C69.6923161,391.166234 69.1145904,391.728135 68.3846321,391.728135 C67.6546738,391.728135 67.0769482,391.166234 67.0769482,390.45627 C67.0769482,389.746306 67.6546738,389.184405 68.3846321,389.184405 Z" id="Shape"></path>
        </g>
    </g>
</svg>