<svg width="184" height="184" viewBox="0 0 184 184" fill="none" xmlns="http://www.w3.org/2000/svg">
<path d="M46.0003 45.9997L45.9997 46.0003C20.5948 71.4052 20.5948 112.595 45.9997 138L46.0003 138C71.4052 163.405 112.595 163.405 138 138L138 138C163.405 112.595 163.405 71.4052 138 46.0003L138 45.9997C112.595 20.5948 71.4052 20.5948 46.0003 45.9997Z" fill="#071927"/>
<path d="M91.999 42.7509C98.3531 42.7481 104.648 43.9726 110.538 46.3572C118.132 49.4348 124.837 54.3612 130.044 60.6888C135.25 67.0164 138.793 74.5446 140.351 82.5895C142.172 91.9733 141.233 101.684 137.647 110.545C134.569 118.139 129.643 124.844 123.315 130.05C116.988 135.257 109.46 138.8 101.415 140.357C92.0309 142.178 82.3205 141.239 73.4596 137.653C65.8653 134.576 59.1603 129.65 53.9539 123.322C48.7475 116.995 45.2046 109.467 43.6472 101.422C41.826 92.0384 42.7652 82.3281 46.351 73.4676C49.4277 65.8721 54.3537 59.166 60.6814 53.9585C67.0091 48.7511 74.5378 45.2075 82.5833 43.6498C85.6861 43.0513 88.839 42.7503 91.999 42.7509ZM91.999 33.5979C77.0512 33.5979 62.1034 39.3002 50.6987 50.7049C27.8893 73.5143 27.8893 110.496 50.6987 133.306C62.1034 144.71 77.0512 150.413 91.999 150.413C106.947 150.413 121.895 144.71 133.298 133.306C156.108 110.496 156.108 73.5143 133.298 50.7049C121.895 39.2966 106.947 33.5979 91.999 33.5979Z" fill="url(#paint0_linear_3526_12608)"/>
<path d="M70.4344 85.2759C69.2701 86.1701 70.8371 93.8468 71.9373 94.9442C73.0375 96.0417 82.5923 104.588 82.5923 104.588L85.4939 100.377C85.4939 100.377 71.9419 84.1638 70.4344 85.2759Z" fill="url(#paint1_linear_3526_12608)"/>
<path d="M49.4585 153.404L113.732 108.851C114.818 108.097 115.673 100.43 114.366 99.5288C113.059 98.6273 49.4585 153.404 49.4585 153.404Z" fill="url(#paint2_linear_3526_12608)"/>
<path d="M131.733 29.8582L97.6058 85.4958L100.201 87.72L131.733 29.8582Z" fill="url(#paint3_linear_3526_12608)"/>
<path d="M130.383 29.0857L70.4305 85.2725C70.3384 85.3588 70.2652 85.4631 70.2153 85.5791C70.1655 85.695 70.1402 85.82 70.141 85.9461C70.1417 86.0723 70.1686 86.197 70.2198 86.3123C70.2711 86.4276 70.3456 86.5311 70.4388 86.6162L85.4937 100.378L48.3095 152.317C47.7694 153.071 48.7369 153.983 49.4582 153.4L114.353 100.939C114.458 100.854 114.543 100.747 114.602 100.625C114.661 100.504 114.692 100.37 114.693 100.235C114.694 100.1 114.666 99.9665 114.609 99.8438C114.553 99.7211 114.47 99.6124 114.366 99.5256L97.734 85.5608L131.608 30.0815C132.092 29.2925 131.06 28.4505 130.383 29.0857Z" fill="#F3FC1F"/>
<path d="M108.743 48.7311L119.56 38.5923" stroke="#071927" stroke-miterlimit="10"/>
<path d="M61.9803 145.268L74.1749 136.826" stroke="#071927" stroke-miterlimit="10"/>
<defs>
<linearGradient id="paint0_linear_3526_12608" x1="55.71" y1="137.774" x2="128.288" y2="46.2291" gradientUnits="userSpaceOnUse">
<stop offset="0.06" stop-color="#3AD889"/>
<stop offset="0.1" stop-color="#50DC7C"/>
<stop offset="0.2" stop-color="#7BE564"/>
<stop offset="0.3" stop-color="#A0EC4E"/>
<stop offset="0.41" stop-color="#BEF23D"/>
<stop offset="0.52" stop-color="#D6F630"/>
<stop offset="0.63" stop-color="#E6F926"/>
<stop offset="0.76" stop-color="#F0FB21"/>
<stop offset="0.93" stop-color="#F3FC1F"/>
</linearGradient>
<linearGradient id="paint1_linear_3526_12608" x1="68.8179" y1="101.888" x2="84.2738" y2="87.9156" gradientUnits="userSpaceOnUse">
<stop stop-color="#3AD889"/>
<stop offset="0.15" stop-color="#35CE81"/>
<stop offset="0.4" stop-color="#29B36D"/>
<stop offset="0.71" stop-color="#15884C"/>
<stop offset="1" stop-color="#005B29"/>
</linearGradient>
<linearGradient id="paint2_linear_3526_12608" x1="119.4" y1="95.539" x2="52.9888" y2="158.063" gradientUnits="userSpaceOnUse">
<stop stop-color="#3AD889"/>
<stop offset="0.36" stop-color="#23A763"/>
<stop offset="0.79" stop-color="#0A7039"/>
<stop offset="1" stop-color="#005B29"/>
</linearGradient>
<linearGradient id="paint3_linear_3526_12608" x1="26443.4" y1="20158.8" x2="39167.7" y2="20158.8" gradientUnits="userSpaceOnUse">
<stop stop-color="#3AD889"/>
<stop offset="0.36" stop-color="#23A763"/>
<stop offset="0.79" stop-color="#0A7039"/>
<stop offset="1" stop-color="#005B29"/>
</linearGradient>
</defs>
</svg>
