<svg width="177" height="45" viewBox="0 0 177 45" fill="none" xmlns="http://www.w3.org/2000/svg">
<path d="M10.884 1.034L11.196 4.778C11.2133 4.84733 11.196 4.908 11.144 4.96C11.1093 4.99467 11.0573 5.012 10.988 5.012H5.71001C5.55401 5.012 5.47601 5.09 5.47601 5.246V7.508C5.47601 7.664 5.55401 7.742 5.71001 7.742H9.58401C9.74001 7.742 9.81801 7.82 9.81801 7.976L9.79201 11.694C9.79201 11.85 9.71401 11.928 9.55801 11.928H5.71001C5.55401 11.928 5.47601 12.006 5.47601 12.162V18.818C5.47601 18.9567 5.40667 19.026 5.26801 19.026H1.08201C0.926008 19.026 0.848008 18.9567 0.848008 18.818V1.06C0.848008 0.903998 0.926008 0.825998 1.08201 0.825998H10.65C10.7887 0.825998 10.8667 0.895332 10.884 1.034ZM23.8367 5.22C23.9927 5.22 24.0707 5.28933 24.0707 5.428V18.792C24.0707 18.9307 23.9927 19 23.8367 19H19.9887C19.85 19 19.7807 18.9307 19.7807 18.792V18.402C19.7807 18.3673 19.7547 18.3413 19.7027 18.324C19.668 18.2893 19.6333 18.2893 19.5987 18.324C18.732 18.9133 17.8047 19.208 16.8167 19.208C16.2447 19.208 15.664 19.104 15.0747 18.896C14.5027 18.688 14.1127 18.5233 13.9047 18.402C13.6967 18.2633 13.5407 18.1507 13.4367 18.064C13.3327 17.9773 13.2287 17.882 13.1247 17.778C12.674 17.3273 12.3273 16.868 12.0847 16.4C11.842 15.932 11.6773 15.464 11.5907 14.996C11.5213 14.528 11.4867 13.93 11.4867 13.202V5.428C11.4867 5.28933 11.556 5.22 11.6947 5.22H15.8287C15.9673 5.22 16.0367 5.28933 16.0367 5.428V12.968C16.0367 13.6613 16.1147 14.19 16.2707 14.554C16.3747 14.7447 16.5047 14.9093 16.6607 15.048C16.9207 15.2387 17.2587 15.334 17.6747 15.334C18.5413 15.334 19.0787 15.1 19.2867 14.632C19.4427 14.3027 19.5207 13.748 19.5207 12.968V5.428C19.5207 5.28933 19.59 5.22 19.7287 5.22H23.8367ZM33.2631 11.096C33.5578 11.2347 33.8351 11.3993 34.0951 11.59C34.3724 11.7633 34.6758 12.006 35.0051 12.318C35.3518 12.63 35.6204 13.0113 35.8111 13.462C36.0018 13.9127 36.0884 14.3893 36.0711 14.892C36.0364 15.3773 35.9151 15.8887 35.7071 16.426C35.2911 17.2927 34.6324 17.9773 33.7311 18.48C32.8298 18.9653 31.7898 19.208 30.6111 19.208C30.2818 19.208 29.9438 19.1907 29.5971 19.156C28.5224 19.0347 27.5951 18.7573 26.8151 18.324C26.0178 17.7693 25.4198 17.0153 25.0211 16.062C24.9864 16.01 24.9864 15.958 25.0211 15.906C25.0558 15.8367 25.1078 15.7933 25.1771 15.776L28.9471 14.97C29.0511 14.9353 29.1291 14.9613 29.1811 15.048C29.4238 15.412 29.7444 15.62 30.1431 15.672C30.5938 15.724 30.9318 15.646 31.1571 15.438C31.3131 15.282 31.3824 15.1 31.3651 14.892C31.3304 14.6493 31.2004 14.4413 30.9751 14.268C30.7498 14.0947 30.2731 13.8347 29.5451 13.488H29.5191C29.0858 13.28 28.7391 13.1067 28.4791 12.968C28.1844 12.8467 27.9158 12.7167 27.6731 12.578H27.6471C27.5951 12.5433 27.5604 12.5173 27.5431 12.5C27.1098 12.2573 26.7284 11.9973 26.3991 11.72C26.0871 11.4253 25.8358 11.122 25.6451 10.81C25.4544 10.4807 25.3244 10.1427 25.2551 9.796C25.1684 9.34533 25.1944 8.87733 25.3331 8.392C25.4718 7.90667 25.6104 7.56 25.7491 7.352C25.8878 7.12667 26.0178 6.92733 26.1391 6.754C26.4338 6.42467 26.7718 6.13867 27.1531 5.896C28.3491 5.15067 29.7358 4.86467 31.3131 5.038C32.2491 5.15933 33.0811 5.41067 33.8091 5.792C34.1558 5.96533 34.4764 6.17333 34.7711 6.416C35.2911 6.90133 35.6204 7.482 35.7591 8.158C35.7938 8.29667 35.7418 8.38333 35.6031 8.418L31.8851 9.146C31.7638 9.18067 31.6771 9.13733 31.6251 9.016C31.4864 8.68667 31.2178 8.496 30.8191 8.444C30.4724 8.40933 30.1951 8.496 29.9871 8.704C29.8484 8.87733 29.7964 9.05067 29.8311 9.224C29.9524 9.60533 30.5244 10.004 31.5471 10.42C31.8764 10.5587 32.1364 10.6627 32.3271 10.732C32.6564 10.8533 32.9684 10.9747 33.2631 11.096ZM50.9494 10.186C51.1574 10.8447 51.2614 11.5207 51.2614 12.214C51.2614 12.6127 51.2181 13.0373 51.1314 13.488C51.1141 13.6093 51.0447 13.67 50.9234 13.67H41.2774C41.1907 13.67 41.1214 13.7133 41.0694 13.8C41.0347 13.8693 41.0347 13.9387 41.0694 14.008C41.3814 14.5107 41.7887 14.9093 42.2914 15.204C42.7941 15.4987 43.3314 15.646 43.9034 15.646C44.9607 15.646 45.8274 15.2213 46.5034 14.372C46.5554 14.2853 46.6247 14.2507 46.7114 14.268L50.4034 14.944C50.4727 14.9613 50.5247 15.0047 50.5594 15.074C50.5941 15.126 50.5941 15.1867 50.5594 15.256C50.4554 15.4987 50.3774 15.6633 50.3254 15.75L50.2734 15.854C50.2041 15.9407 50.1347 16.036 50.0654 16.14C49.9961 16.2787 49.9181 16.4 49.8314 16.504L49.7794 16.556C49.7447 16.5907 49.7187 16.6253 49.7014 16.66L49.6754 16.712C49.6234 16.764 49.5714 16.8247 49.5194 16.894L49.4674 16.946C49.3807 17.0327 49.2941 17.1193 49.2074 17.206L49.1554 17.258C49.1034 17.3273 49.0514 17.388 48.9994 17.44H48.9734C48.9041 17.5093 48.8347 17.57 48.7654 17.622L48.7134 17.7L48.6094 17.622L48.6874 17.7C48.5834 17.7867 48.4881 17.8647 48.4014 17.934L48.3234 18.012C48.2021 18.0813 48.0807 18.1593 47.9594 18.246L47.9334 18.272C47.7947 18.3587 47.6561 18.4367 47.5174 18.506L47.4654 18.532C47.4307 18.5493 47.4047 18.5667 47.3874 18.584L47.3614 18.61C47.2921 18.6273 47.2314 18.6533 47.1794 18.688L47.1534 18.714C47.0147 18.766 46.8847 18.818 46.7634 18.87L46.7374 18.896C46.6507 18.9307 46.5727 18.9567 46.5034 18.974L46.4254 19C46.3214 19.0347 46.2261 19.0693 46.1394 19.104C46.0354 19.1387 45.9227 19.1647 45.8014 19.182L45.7234 19.208C45.5154 19.26 45.3074 19.3033 45.0994 19.338L45.0214 19.364C44.7961 19.3813 44.5794 19.3987 44.3714 19.416H44.2674C44.1461 19.4333 44.0334 19.442 43.9294 19.442C43.8254 19.442 43.7127 19.4333 43.5914 19.416C43.5567 19.416 43.5394 19.416 43.5394 19.416H43.5134C43.4267 19.416 43.3401 19.4073 43.2534 19.39H43.2274C43.2101 19.39 43.1841 19.39 43.1494 19.39C43.0281 19.3727 42.9241 19.3553 42.8374 19.338H42.7594C42.6727 19.3207 42.5861 19.3033 42.4994 19.286L42.3954 19.26C42.3261 19.2427 42.2481 19.2253 42.1614 19.208H42.1354C42.1181 19.208 42.1007 19.1993 42.0834 19.182C41.9621 19.1647 41.8581 19.1387 41.7714 19.104C41.6847 19.0867 41.5807 19.052 41.4594 19C41.4247 19 41.3987 18.9913 41.3814 18.974C41.2947 18.9393 41.2167 18.9133 41.1474 18.896L41.1214 18.87C41.1041 18.87 41.0867 18.8613 41.0694 18.844C40.9654 18.8093 40.8614 18.766 40.7574 18.714C40.6881 18.6793 40.5927 18.636 40.4714 18.584C40.4714 18.5667 40.4541 18.5493 40.4194 18.532H40.3934C40.3241 18.4973 40.2547 18.4627 40.1854 18.428L40.1074 18.376C40.0207 18.3067 39.9341 18.246 39.8474 18.194C38.9634 17.6047 38.2441 16.8593 37.6894 15.958C37.6374 15.8887 37.5941 15.8107 37.5594 15.724L37.5334 15.698C37.4987 15.646 37.4554 15.568 37.4034 15.464V15.438C37.3861 15.4207 37.3687 15.3947 37.3514 15.36C37.2127 15.0827 37.0914 14.788 36.9874 14.476C36.9354 14.3027 36.8921 14.1467 36.8574 14.008C36.8227 13.904 36.7967 13.7913 36.7794 13.67C36.6927 13.306 36.6407 12.942 36.6234 12.578C36.6234 12.4567 36.6234 12.3353 36.6234 12.214C36.6234 12.0927 36.6234 11.9713 36.6234 11.85C36.6581 11.2087 36.7794 10.576 36.9874 9.952C37.0567 9.76133 37.1261 9.57933 37.1954 9.406C37.2301 9.31933 37.2734 9.224 37.3254 9.12C37.3427 9.10267 37.3514 9.07667 37.3514 9.042L37.4034 8.99C37.4034 8.97267 37.4121 8.95533 37.4294 8.938C37.4294 8.90333 37.4381 8.87733 37.4554 8.86L37.5334 8.756C37.5854 8.652 37.6374 8.55667 37.6894 8.47C38.2441 7.56867 38.9634 6.82333 39.8474 6.234C39.9341 6.182 40.0207 6.12133 40.1074 6.052L40.1854 6.026C40.2547 5.974 40.3241 5.93067 40.3934 5.896H40.4194C40.4194 5.896 40.4281 5.896 40.4454 5.896C40.4627 5.87867 40.4801 5.86133 40.4974 5.844C40.6014 5.792 40.6881 5.74867 40.7574 5.714C40.8614 5.662 40.9654 5.61867 41.0694 5.584C41.0694 5.584 41.0781 5.584 41.0954 5.584C41.1127 5.56667 41.1214 5.558 41.1214 5.558L41.1474 5.532C41.2167 5.51467 41.2947 5.48867 41.3814 5.454C41.4161 5.43667 41.4421 5.428 41.4594 5.428C41.5807 5.39333 41.6847 5.35867 41.7714 5.324C41.8581 5.28933 41.9621 5.26333 42.0834 5.246C42.0834 5.22867 42.0921 5.22 42.1094 5.22C42.1267 5.22 42.1354 5.22 42.1354 5.22H42.1614C42.2307 5.20267 42.3087 5.18533 42.3954 5.168L42.4734 5.142C42.5774 5.12467 42.6901 5.10733 42.8114 5.09H42.8374C42.9241 5.07267 43.0281 5.05533 43.1494 5.038C43.1667 5.038 43.1841 5.038 43.2014 5.038C43.2187 5.038 43.2274 5.038 43.2274 5.038H43.2534C43.3401 5.02067 43.4267 5.012 43.5134 5.012C43.5307 5.012 43.5481 5.012 43.5654 5.012C43.5827 5.012 43.5914 5.012 43.5914 5.012C43.7127 5.012 43.8254 5.012 43.9294 5.012C44.0334 5.012 44.1461 5.012 44.2674 5.012H44.3454C44.5707 5.02933 44.7961 5.05533 45.0214 5.09H45.0994C45.3074 5.12467 45.5154 5.168 45.7234 5.22L45.8014 5.246C45.9227 5.26333 46.0354 5.28933 46.1394 5.324C46.2261 5.35867 46.3214 5.39333 46.4254 5.428C46.4427 5.428 46.4687 5.43667 46.5034 5.454C46.5727 5.48867 46.6507 5.51467 46.7374 5.532L46.7634 5.558C46.8847 5.61 47.0061 5.662 47.1274 5.714L47.1794 5.74C47.2141 5.75733 47.2661 5.78333 47.3354 5.818L47.3614 5.844L47.3094 5.948L47.3874 5.844C47.4221 5.86133 47.4481 5.87867 47.4654 5.896C47.6214 5.98267 47.7774 6.06933 47.9334 6.156V6.182C48.0547 6.25133 48.1761 6.32933 48.2974 6.416L48.3234 6.442C48.3407 6.45933 48.3667 6.47667 48.4014 6.494C48.4881 6.56333 48.5834 6.64133 48.6874 6.728L48.7394 6.78C48.8261 6.84933 48.9041 6.91867 48.9734 6.988H48.9994C49.0514 7.05733 49.1034 7.118 49.1554 7.17L49.2074 7.222C49.2941 7.30867 49.3807 7.39533 49.4674 7.482L49.3894 7.56L49.4674 7.508L49.5194 7.534C49.5541 7.586 49.5974 7.64667 49.6494 7.716L49.7014 7.768C49.7707 7.83733 49.8227 7.90667 49.8574 7.976L49.8834 8.002C49.9181 8.054 49.9614 8.11467 50.0134 8.184L50.0914 8.288C50.1261 8.35733 50.1607 8.40933 50.1954 8.444L50.3254 8.678C50.5854 9.16333 50.7934 9.666 50.9494 10.186ZM46.7374 10.654C46.8067 10.654 46.8587 10.628 46.8934 10.576C46.9454 10.524 46.9627 10.4633 46.9454 10.394C46.8587 9.874 46.5467 9.44067 46.0094 9.094C45.4721 8.74733 44.8394 8.574 44.1114 8.574C43.6607 8.574 43.2274 8.652 42.8114 8.808C42.3954 8.964 42.0487 9.18067 41.7714 9.458C41.4941 9.73533 41.3294 10.0473 41.2774 10.394C41.2601 10.446 41.2687 10.5067 41.3034 10.576C41.3554 10.628 41.4161 10.654 41.4854 10.654H46.7374ZM66.1964 14.866C66.2657 14.866 66.3177 14.892 66.3524 14.944C66.4044 14.9787 66.4304 15.0307 66.4304 15.1L66.0404 18.844C66.0404 18.9827 65.971 19.052 65.8324 19.052H55.9264C55.753 19.052 55.6664 18.9653 55.6664 18.792V1.086C55.6664 0.93 55.7444 0.852 55.9004 0.852H65.8324C65.971 0.852 66.0404 0.921333 66.0404 1.06L66.4304 4.778C66.4304 4.84733 66.4044 4.908 66.3524 4.96C66.3177 5.012 66.257 5.038 66.1704 5.038H60.5284C60.3724 5.038 60.2944 5.116 60.2944 5.272V7.482C60.2944 7.638 60.3724 7.716 60.5284 7.716H64.6364C64.7924 7.716 64.8704 7.78533 64.8704 7.924V11.668C64.8704 11.824 64.7924 11.902 64.6364 11.902H60.5284C60.3724 11.902 60.2944 11.9713 60.2944 12.11V14.632C60.2944 14.788 60.3724 14.866 60.5284 14.866H66.1964ZM80.4332 15.698C80.5545 15.7673 80.5805 15.8713 80.5112 16.01C80.3379 16.2527 80.2165 16.426 80.1472 16.53C80.0085 16.7033 79.8612 16.8767 79.7052 17.05C79.6532 17.102 79.5752 17.18 79.4712 17.284C79.4539 17.3013 79.4452 17.3187 79.4452 17.336C79.3932 17.388 79.3239 17.4487 79.2372 17.518C79.2025 17.5353 79.1679 17.57 79.1332 17.622C79.0985 17.6393 79.0639 17.6653 79.0292 17.7C77.9372 18.6013 76.6892 19.156 75.2852 19.364C75.2505 19.364 75.2072 19.364 75.1552 19.364C75.0859 19.3813 75.0252 19.39 74.9732 19.39C74.8865 19.4073 74.7999 19.416 74.7132 19.416C74.6785 19.416 74.6439 19.416 74.6092 19.416C74.4705 19.416 74.3579 19.416 74.2712 19.416C72.2605 19.416 70.5359 18.714 69.0972 17.31C67.6759 15.906 66.9652 14.2073 66.9652 12.214C66.9652 10.2207 67.6759 8.522 69.0972 7.118C70.5359 5.69667 72.2605 4.986 74.2712 4.986C74.3752 4.986 74.4879 4.99467 74.6092 5.012C74.6612 5.012 74.6959 5.012 74.7132 5.012C74.7999 5.012 74.8865 5.02067 74.9732 5.038C75.0079 5.038 75.0685 5.038 75.1552 5.038C75.2072 5.05533 75.2505 5.064 75.2852 5.064C76.6892 5.25467 77.9372 5.80933 79.0292 6.728C79.0465 6.728 79.0639 6.73667 79.0812 6.754C79.0985 6.77133 79.1159 6.78867 79.1332 6.806C79.1679 6.84067 79.2025 6.87533 79.2372 6.91C79.3065 6.97933 79.3759 7.04 79.4452 7.092L79.4712 7.118V7.144C79.5579 7.21333 79.6272 7.28267 79.6792 7.352C79.6965 7.36933 79.7052 7.378 79.7052 7.378C79.8612 7.55133 80.0085 7.72467 80.1472 7.898C80.2859 8.07133 80.4159 8.262 80.5372 8.47C80.5892 8.55667 80.5719 8.63467 80.4852 8.704L78.5092 9.822L77.3912 10.472C77.2699 10.5413 77.1745 10.524 77.1052 10.42C76.4292 9.41467 75.5625 8.912 74.5052 8.912C73.4652 8.912 72.6072 9.302 71.9312 10.082C71.3765 10.6887 71.0992 11.3993 71.0992 12.214C71.0992 13.0287 71.3765 13.7307 71.9312 14.32C72.6072 15.1173 73.4652 15.516 74.5052 15.516C75.5625 15.516 76.4292 15.0133 77.1052 14.008C77.1745 13.8867 77.2699 13.8607 77.3912 13.93L80.4332 15.698ZM88.1345 5.012C89.1398 5.012 90.0931 5.20267 90.9945 5.584C91.8958 5.96533 92.6671 6.47667 93.3085 7.118C93.9671 7.75933 94.4871 8.53067 94.8685 9.432C95.2671 10.316 95.4665 11.2433 95.4665 12.214C95.4665 14.2073 94.7471 15.9147 93.3085 17.336C91.8871 18.74 90.1625 19.442 88.1345 19.442C86.1238 19.442 84.3991 18.74 82.9605 17.336C81.5391 15.9147 80.8285 14.2073 80.8285 12.214C80.8285 10.2207 81.5391 8.522 82.9605 7.118C84.3991 5.714 86.1238 5.012 88.1345 5.012ZM88.1345 15.36C89.0185 15.36 89.7725 15.0567 90.3965 14.45C91.0205 13.826 91.3325 13.0807 91.3325 12.214C91.3325 11.3473 91.0205 10.6107 90.3965 10.004C89.7725 9.38 89.0185 9.068 88.1345 9.068C87.2678 9.068 86.5225 9.38 85.8985 10.004C85.2745 10.6107 84.9625 11.3473 84.9625 12.214C84.9625 12.786 85.1011 13.3147 85.3785 13.8C85.6731 14.2853 86.0631 14.6667 86.5485 14.944C87.0338 15.2213 87.5625 15.36 88.1345 15.36ZM103.747 11.096C104.042 11.2347 104.319 11.3993 104.579 11.59C104.857 11.7633 105.16 12.006 105.489 12.318C105.836 12.63 106.105 13.0113 106.295 13.462C106.486 13.9127 106.573 14.3893 106.555 14.892C106.521 15.3773 106.399 15.8887 106.191 16.426C105.775 17.2927 105.117 17.9773 104.215 18.48C103.314 18.9653 102.274 19.208 101.095 19.208C100.766 19.208 100.428 19.1907 100.081 19.156C99.0068 19.0347 98.0795 18.7573 97.2995 18.324C96.5021 17.7693 95.9041 17.0153 95.5055 16.062C95.4708 16.01 95.4708 15.958 95.5055 15.906C95.5401 15.8367 95.5921 15.7933 95.6615 15.776L99.4315 14.97C99.5355 14.9353 99.6135 14.9613 99.6655 15.048C99.9081 15.412 100.229 15.62 100.627 15.672C101.078 15.724 101.416 15.646 101.641 15.438C101.797 15.282 101.867 15.1 101.849 14.892C101.815 14.6493 101.685 14.4413 101.459 14.268C101.234 14.0947 100.757 13.8347 100.029 13.488H100.003C99.5701 13.28 99.2235 13.1067 98.9635 12.968C98.6688 12.8467 98.4001 12.7167 98.1575 12.578H98.1315C98.0795 12.5433 98.0448 12.5173 98.0275 12.5C97.5941 12.2573 97.2128 11.9973 96.8835 11.72C96.5715 11.4253 96.3201 11.122 96.1295 10.81C95.9388 10.4807 95.8088 10.1427 95.7395 9.796C95.6528 9.34533 95.6788 8.87733 95.8175 8.392C95.9561 7.90667 96.0948 7.56 96.2335 7.352C96.3721 7.12667 96.5021 6.92733 96.6235 6.754C96.9181 6.42467 97.2561 6.13867 97.6375 5.896C98.8335 5.15067 100.22 4.86467 101.797 5.038C102.733 5.15933 103.565 5.41067 104.293 5.792C104.64 5.96533 104.961 6.17333 105.255 6.416C105.775 6.90133 106.105 7.482 106.243 8.158C106.278 8.29667 106.226 8.38333 106.087 8.418L102.369 9.146C102.248 9.18067 102.161 9.13733 102.109 9.016C101.971 8.68667 101.702 8.496 101.303 8.444C100.957 8.40933 100.679 8.496 100.471 8.704C100.333 8.87733 100.281 9.05067 100.315 9.224C100.437 9.60533 101.009 10.004 102.031 10.42C102.361 10.5587 102.621 10.6627 102.811 10.732C103.141 10.8533 103.453 10.9747 103.747 11.096ZM120.01 5.22C120.079 5.22 120.131 5.25467 120.166 5.324C120.218 5.376 120.235 5.43667 120.218 5.506L115.876 17.57L113.848 23.29C113.813 23.394 113.744 23.446 113.64 23.446H109.35C109.281 23.446 109.22 23.4113 109.168 23.342C109.133 23.29 109.125 23.2293 109.142 23.16L110.832 18.194C110.849 18.142 110.849 18.09 110.832 18.038L106.256 5.506C106.221 5.43667 106.23 5.376 106.282 5.324C106.317 5.25467 106.369 5.22 106.438 5.22H110.286C110.39 5.22 110.459 5.26333 110.494 5.35L113.016 12.162C113.051 12.2487 113.12 12.292 113.224 12.292C113.328 12.292 113.397 12.24 113.432 12.136L115.746 5.376C115.781 5.272 115.85 5.22 115.954 5.22H120.01ZM128.122 11.096C128.417 11.2347 128.694 11.3993 128.954 11.59C129.232 11.7633 129.535 12.006 129.864 12.318C130.211 12.63 130.48 13.0113 130.67 13.462C130.861 13.9127 130.948 14.3893 130.93 14.892C130.896 15.3773 130.774 15.8887 130.566 16.426C130.15 17.2927 129.492 17.9773 128.59 18.48C127.689 18.9653 126.649 19.208 125.47 19.208C125.141 19.208 124.803 19.1907 124.456 19.156C123.382 19.0347 122.454 18.7573 121.674 18.324C120.877 17.7693 120.279 17.0153 119.88 16.062C119.846 16.01 119.846 15.958 119.88 15.906C119.915 15.8367 119.967 15.7933 120.036 15.776L123.806 14.97C123.91 14.9353 123.988 14.9613 124.04 15.048C124.283 15.412 124.604 15.62 125.002 15.672C125.453 15.724 125.791 15.646 126.016 15.438C126.172 15.282 126.242 15.1 126.224 14.892C126.19 14.6493 126.06 14.4413 125.834 14.268C125.609 14.0947 125.132 13.8347 124.404 13.488H124.378C123.945 13.28 123.598 13.1067 123.338 12.968C123.044 12.8467 122.775 12.7167 122.532 12.578H122.506C122.454 12.5433 122.42 12.5173 122.402 12.5C121.969 12.2573 121.588 11.9973 121.258 11.72C120.946 11.4253 120.695 11.122 120.504 10.81C120.314 10.4807 120.184 10.1427 120.114 9.796C120.028 9.34533 120.054 8.87733 120.192 8.392C120.331 7.90667 120.47 7.56 120.608 7.352C120.747 7.12667 120.877 6.92733 120.998 6.754C121.293 6.42467 121.631 6.13867 122.012 5.896C123.208 5.15067 124.595 4.86467 126.172 5.038C127.108 5.15933 127.94 5.41067 128.668 5.792C129.015 5.96533 129.336 6.17333 129.63 6.416C130.15 6.90133 130.48 7.482 130.618 8.158C130.653 8.29667 130.601 8.38333 130.462 8.418L126.744 9.146C126.623 9.18067 126.536 9.13733 126.484 9.016C126.346 8.68667 126.077 8.496 125.678 8.444C125.332 8.40933 125.054 8.496 124.846 8.704C124.708 8.87733 124.656 9.05067 124.69 9.224C124.812 9.60533 125.384 10.004 126.406 10.42C126.736 10.5587 126.996 10.6627 127.186 10.732C127.516 10.8533 127.828 10.9747 128.122 11.096ZM139.595 15.412C139.664 15.412 139.716 15.438 139.751 15.49C139.803 15.542 139.829 15.6027 139.829 15.672L139.335 18.922C139.317 19.0433 139.248 19.104 139.127 19.104C138 19.1733 137.289 19.208 136.995 19.208C136.977 19.208 136.96 19.208 136.943 19.208C135.764 19.156 134.871 18.8353 134.265 18.246C133.658 17.6567 133.355 16.8247 133.355 15.75V9.12C133.355 8.98133 133.277 8.912 133.121 8.912H131.691C131.552 8.912 131.483 8.834 131.483 8.678V5.428C131.483 5.272 131.552 5.194 131.691 5.194H133.121C133.277 5.194 133.355 5.12467 133.355 4.986V1.216C133.355 1.06 133.424 0.982 133.563 0.982H137.437C137.575 0.982 137.645 1.06 137.645 1.216V4.986C137.645 5.12467 137.714 5.194 137.853 5.194H139.283C139.439 5.194 139.517 5.272 139.517 5.428V8.678C139.517 8.834 139.439 8.912 139.283 8.912H137.853C137.714 8.912 137.645 8.98133 137.645 9.12C137.645 12.1533 137.645 13.6787 137.645 13.696V13.774C137.627 14.4327 137.723 14.8833 137.931 15.126C138.139 15.3167 138.451 15.412 138.867 15.412H139.595ZM154.67 10.186C154.878 10.8447 154.982 11.5207 154.982 12.214C154.982 12.6127 154.939 13.0373 154.852 13.488C154.835 13.6093 154.765 13.67 154.644 13.67H144.998C144.911 13.67 144.842 13.7133 144.79 13.8C144.755 13.8693 144.755 13.9387 144.79 14.008C145.102 14.5107 145.509 14.9093 146.012 15.204C146.515 15.4987 147.052 15.646 147.624 15.646C148.681 15.646 149.548 15.2213 150.224 14.372C150.276 14.2853 150.345 14.2507 150.432 14.268L154.124 14.944C154.193 14.9613 154.245 15.0047 154.28 15.074C154.315 15.126 154.315 15.1867 154.28 15.256C154.176 15.4987 154.098 15.6633 154.046 15.75L153.994 15.854C153.925 15.9407 153.855 16.036 153.786 16.14C153.717 16.2787 153.639 16.4 153.552 16.504L153.5 16.556C153.465 16.5907 153.439 16.6253 153.422 16.66L153.396 16.712C153.344 16.764 153.292 16.8247 153.24 16.894L153.188 16.946C153.101 17.0327 153.015 17.1193 152.928 17.206L152.876 17.258C152.824 17.3273 152.772 17.388 152.72 17.44H152.694C152.625 17.5093 152.555 17.57 152.486 17.622L152.434 17.7L152.33 17.622L152.408 17.7C152.304 17.7867 152.209 17.8647 152.122 17.934L152.044 18.012C151.923 18.0813 151.801 18.1593 151.68 18.246L151.654 18.272C151.515 18.3587 151.377 18.4367 151.238 18.506L151.186 18.532C151.151 18.5493 151.125 18.5667 151.108 18.584L151.082 18.61C151.013 18.6273 150.952 18.6533 150.9 18.688L150.874 18.714C150.735 18.766 150.605 18.818 150.484 18.87L150.458 18.896C150.371 18.9307 150.293 18.9567 150.224 18.974L150.146 19C150.042 19.0347 149.947 19.0693 149.86 19.104C149.756 19.1387 149.643 19.1647 149.522 19.182L149.444 19.208C149.236 19.26 149.028 19.3033 148.82 19.338L148.742 19.364C148.517 19.3813 148.3 19.3987 148.092 19.416H147.988C147.867 19.4333 147.754 19.442 147.65 19.442C147.546 19.442 147.433 19.4333 147.312 19.416C147.277 19.416 147.26 19.416 147.26 19.416H147.234C147.147 19.416 147.061 19.4073 146.974 19.39H146.948C146.931 19.39 146.905 19.39 146.87 19.39C146.749 19.3727 146.645 19.3553 146.558 19.338H146.48C146.393 19.3207 146.307 19.3033 146.22 19.286L146.116 19.26C146.047 19.2427 145.969 19.2253 145.882 19.208H145.856C145.839 19.208 145.821 19.1993 145.804 19.182C145.683 19.1647 145.579 19.1387 145.492 19.104C145.405 19.0867 145.301 19.052 145.18 19C145.145 19 145.119 18.9913 145.102 18.974C145.015 18.9393 144.937 18.9133 144.868 18.896L144.842 18.87C144.825 18.87 144.807 18.8613 144.79 18.844C144.686 18.8093 144.582 18.766 144.478 18.714C144.409 18.6793 144.313 18.636 144.192 18.584C144.192 18.5667 144.175 18.5493 144.14 18.532H144.114C144.045 18.4973 143.975 18.4627 143.906 18.428L143.828 18.376C143.741 18.3067 143.655 18.246 143.568 18.194C142.684 17.6047 141.965 16.8593 141.41 15.958C141.358 15.8887 141.315 15.8107 141.28 15.724L141.254 15.698C141.219 15.646 141.176 15.568 141.124 15.464V15.438C141.107 15.4207 141.089 15.3947 141.072 15.36C140.933 15.0827 140.812 14.788 140.708 14.476C140.656 14.3027 140.613 14.1467 140.578 14.008C140.543 13.904 140.517 13.7913 140.5 13.67C140.413 13.306 140.361 12.942 140.344 12.578C140.344 12.4567 140.344 12.3353 140.344 12.214C140.344 12.0927 140.344 11.9713 140.344 11.85C140.379 11.2087 140.5 10.576 140.708 9.952C140.777 9.76133 140.847 9.57933 140.916 9.406C140.951 9.31933 140.994 9.224 141.046 9.12C141.063 9.10267 141.072 9.07667 141.072 9.042L141.124 8.99C141.124 8.97267 141.133 8.95533 141.15 8.938C141.15 8.90333 141.159 8.87733 141.176 8.86L141.254 8.756C141.306 8.652 141.358 8.55667 141.41 8.47C141.965 7.56867 142.684 6.82333 143.568 6.234C143.655 6.182 143.741 6.12133 143.828 6.052L143.906 6.026C143.975 5.974 144.045 5.93067 144.114 5.896H144.14C144.14 5.896 144.149 5.896 144.166 5.896C144.183 5.87867 144.201 5.86133 144.218 5.844C144.322 5.792 144.409 5.74867 144.478 5.714C144.582 5.662 144.686 5.61867 144.79 5.584C144.79 5.584 144.799 5.584 144.816 5.584C144.833 5.56667 144.842 5.558 144.842 5.558L144.868 5.532C144.937 5.51467 145.015 5.48867 145.102 5.454C145.137 5.43667 145.163 5.428 145.18 5.428C145.301 5.39333 145.405 5.35867 145.492 5.324C145.579 5.28933 145.683 5.26333 145.804 5.246C145.804 5.22867 145.813 5.22 145.83 5.22C145.847 5.22 145.856 5.22 145.856 5.22H145.882C145.951 5.20267 146.029 5.18533 146.116 5.168L146.194 5.142C146.298 5.12467 146.411 5.10733 146.532 5.09H146.558C146.645 5.07267 146.749 5.05533 146.87 5.038C146.887 5.038 146.905 5.038 146.922 5.038C146.939 5.038 146.948 5.038 146.948 5.038H146.974C147.061 5.02067 147.147 5.012 147.234 5.012C147.251 5.012 147.269 5.012 147.286 5.012C147.303 5.012 147.312 5.012 147.312 5.012C147.433 5.012 147.546 5.012 147.65 5.012C147.754 5.012 147.867 5.012 147.988 5.012H148.066C148.291 5.02933 148.517 5.05533 148.742 5.09H148.82C149.028 5.12467 149.236 5.168 149.444 5.22L149.522 5.246C149.643 5.26333 149.756 5.28933 149.86 5.324C149.947 5.35867 150.042 5.39333 150.146 5.428C150.163 5.428 150.189 5.43667 150.224 5.454C150.293 5.48867 150.371 5.51467 150.458 5.532L150.484 5.558C150.605 5.61 150.727 5.662 150.848 5.714L150.9 5.74C150.935 5.75733 150.987 5.78333 151.056 5.818L151.082 5.844L151.03 5.948L151.108 5.844C151.143 5.86133 151.169 5.87867 151.186 5.896C151.342 5.98267 151.498 6.06933 151.654 6.156V6.182C151.775 6.25133 151.897 6.32933 152.018 6.416L152.044 6.442C152.061 6.45933 152.087 6.47667 152.122 6.494C152.209 6.56333 152.304 6.64133 152.408 6.728L152.46 6.78C152.547 6.84933 152.625 6.91867 152.694 6.988H152.72C152.772 7.05733 152.824 7.118 152.876 7.17L152.928 7.222C153.015 7.30867 153.101 7.39533 153.188 7.482L153.11 7.56L153.188 7.508L153.24 7.534C153.275 7.586 153.318 7.64667 153.37 7.716L153.422 7.768C153.491 7.83733 153.543 7.90667 153.578 7.976L153.604 8.002C153.639 8.054 153.682 8.11467 153.734 8.184L153.812 8.288C153.847 8.35733 153.881 8.40933 153.916 8.444L154.046 8.678C154.306 9.16333 154.514 9.666 154.67 10.186ZM150.458 10.654C150.527 10.654 150.579 10.628 150.614 10.576C150.666 10.524 150.683 10.4633 150.666 10.394C150.579 9.874 150.267 9.44067 149.73 9.094C149.193 8.74733 148.56 8.574 147.832 8.574C147.381 8.574 146.948 8.652 146.532 8.808C146.116 8.964 145.769 9.18067 145.492 9.458C145.215 9.73533 145.05 10.0473 144.998 10.394C144.981 10.446 144.989 10.5067 145.024 10.576C145.076 10.628 145.137 10.654 145.206 10.654H150.458ZM174.482 6.442C175.158 7.10067 175.6 7.75933 175.808 8.418C176.016 9.07667 176.12 9.94333 176.12 11.018V18.792C176.12 18.9307 176.051 19 175.912 19H171.804C171.648 19 171.57 18.9307 171.57 18.792V11.252C171.57 10.5587 171.492 10.03 171.336 9.666C171.232 9.458 171.102 9.29333 170.946 9.172C170.686 8.98133 170.348 8.886 169.932 8.886C169.066 8.886 168.528 9.12 168.32 9.588C168.182 9.9 168.112 10.4547 168.112 11.252V18.792C168.112 18.9307 168.034 19 167.878 19H163.874C163.736 19 163.666 18.9307 163.666 18.792V11.252C163.666 10.5587 163.58 10.03 163.406 9.666C163.302 9.458 163.172 9.29333 163.016 9.172C162.774 8.98133 162.436 8.886 162.002 8.886C161.153 8.886 160.624 9.12 160.416 9.588C160.26 9.9 160.182 10.4547 160.182 11.252V18.792C160.182 18.9307 160.113 19 159.974 19H155.84C155.702 19 155.632 18.9307 155.632 18.792V5.428C155.632 5.28933 155.702 5.22 155.84 5.22H159.714C159.853 5.22 159.922 5.28933 159.922 5.428V5.818C159.922 5.85267 159.94 5.88733 159.974 5.922C160.026 5.93933 160.07 5.93067 160.104 5.896C160.676 5.49733 161.283 5.23733 161.924 5.116C162.566 4.99467 163.12 4.97733 163.588 5.064C164.056 5.13333 164.516 5.26333 164.966 5.454C165.417 5.64467 165.72 5.80067 165.876 5.922C166.05 6.026 166.171 6.104 166.24 6.156C166.362 6.24267 166.466 6.338 166.552 6.442C166.639 6.52867 166.726 6.60667 166.812 6.676C166.916 6.81467 167.02 6.81467 167.124 6.676C167.367 6.38133 167.653 6.12133 167.982 5.896C168.416 5.584 168.858 5.36733 169.308 5.246C169.655 5.12467 170.01 5.05533 170.374 5.038C170.756 5.00333 171.094 5.00333 171.388 5.038C171.7 5.07267 172.004 5.142 172.298 5.246C172.61 5.33267 172.862 5.428 173.052 5.532C173.26 5.61867 173.46 5.72267 173.65 5.844C173.841 5.948 173.962 6.026 174.014 6.078C174.084 6.11267 174.136 6.13867 174.17 6.156C174.292 6.24267 174.396 6.338 174.482 6.442ZM63.4536 37.708L66.0796 43.714C66.1142 43.7833 66.1056 43.8527 66.0536 43.922C66.0189 43.9913 65.9582 44.026 65.8716 44.026H61.3216C61.2176 44.026 61.1482 43.9827 61.1136 43.896L58.7476 38.436C58.6956 38.3493 58.6262 38.306 58.5396 38.306H57.8116C57.6556 38.306 57.5776 38.384 57.5776 38.54V43.74C57.5776 43.896 57.5082 43.974 57.3696 43.974H53.1576C53.0189 43.974 52.9496 43.896 52.9496 43.74V25.982C52.9496 25.8433 53.0189 25.774 53.1576 25.774H58.7996C60.3076 25.774 61.4602 25.8867 62.2576 26.112C63.0549 26.32 63.7222 26.6493 64.2596 27.1C64.7102 27.4813 65.0916 27.9233 65.4036 28.426C65.7156 28.9287 65.9496 29.4833 66.1056 30.09C66.2789 30.6793 66.3656 31.2947 66.3656 31.936C66.3656 32.872 66.1922 33.782 65.8456 34.666C65.4989 35.55 65.0482 36.2347 64.4936 36.72C64.1642 37.0147 63.8436 37.2487 63.5316 37.422C63.4276 37.4913 63.4016 37.5867 63.4536 37.708ZM60.8796 33.86C61.5729 33.548 61.9196 32.9327 61.9196 32.014C61.9196 31.13 61.5642 30.532 60.8536 30.22C60.4376 30.0467 59.8222 29.96 59.0076 29.96H57.8116C57.6556 29.96 57.5776 30.0293 57.5776 30.168V33.886C57.5776 34.042 57.6556 34.12 57.8116 34.12H59.1636C59.9262 34.12 60.4982 34.0333 60.8796 33.86ZM73.4333 30.012C74.4386 30.012 75.392 30.2027 76.2933 30.584C77.1946 30.9653 77.966 31.4767 78.6073 32.118C79.266 32.7593 79.786 33.5307 80.1673 34.432C80.566 35.316 80.7653 36.2433 80.7653 37.214C80.7653 39.2073 80.046 40.9147 78.6073 42.336C77.186 43.74 75.4613 44.442 73.4333 44.442C71.4226 44.442 69.698 43.74 68.2593 42.336C66.838 40.9147 66.1273 39.2073 66.1273 37.214C66.1273 35.2207 66.838 33.522 68.2593 32.118C69.698 30.714 71.4226 30.012 73.4333 30.012ZM73.4333 40.36C74.3173 40.36 75.0713 40.0567 75.6953 39.45C76.3193 38.826 76.6313 38.0807 76.6313 37.214C76.6313 36.3473 76.3193 35.6107 75.6953 35.004C75.0713 34.38 74.3173 34.068 73.4333 34.068C72.5666 34.068 71.8213 34.38 71.1973 35.004C70.5733 35.6107 70.2613 36.3473 70.2613 37.214C70.2613 37.786 70.4 38.3147 70.6773 38.8C70.972 39.2853 71.362 39.6667 71.8473 39.944C72.3326 40.2213 72.8613 40.36 73.4333 40.36ZM93.8894 30.22C94.0454 30.22 94.1234 30.2893 94.1234 30.428V43.792C94.1234 43.9307 94.0454 44 93.8894 44H90.0414C89.9027 44 89.8334 43.9307 89.8334 43.792V43.402C89.8334 43.3673 89.8074 43.3413 89.7554 43.324C89.7207 43.2893 89.6861 43.2893 89.6514 43.324C88.7847 43.9133 87.8574 44.208 86.8694 44.208C86.2974 44.208 85.7167 44.104 85.1274 43.896C84.5554 43.688 84.1654 43.5233 83.9574 43.402C83.7494 43.2633 83.5934 43.1507 83.4894 43.064C83.3854 42.9773 83.2814 42.882 83.1774 42.778C82.7267 42.3273 82.3801 41.868 82.1374 41.4C81.8947 40.932 81.7301 40.464 81.6434 39.996C81.5741 39.528 81.5394 38.93 81.5394 38.202V30.428C81.5394 30.2893 81.6087 30.22 81.7474 30.22H85.8814C86.0201 30.22 86.0894 30.2893 86.0894 30.428V37.968C86.0894 38.6613 86.1674 39.19 86.3234 39.554C86.4274 39.7447 86.5574 39.9093 86.7134 40.048C86.9734 40.2387 87.3114 40.334 87.7274 40.334C88.5941 40.334 89.1314 40.1 89.3394 39.632C89.4954 39.3027 89.5734 38.748 89.5734 37.968V30.428C89.5734 30.2893 89.6427 30.22 89.7814 30.22H93.8894ZM106.072 31.442C106.748 32.1007 107.19 32.7593 107.398 33.418C107.623 34.0767 107.736 34.9433 107.736 36.018V43.792C107.736 43.9307 107.658 44 107.502 44H103.394C103.255 44 103.186 43.9307 103.186 43.792V36.252C103.186 35.5587 103.099 35.03 102.926 34.666C102.822 34.458 102.692 34.2933 102.536 34.172C102.293 33.9813 101.955 33.886 101.522 33.886C100.673 33.886 100.144 34.12 99.9358 34.588C99.7798 34.9 99.7018 35.4547 99.7018 36.252V43.792C99.7018 43.9307 99.6325 44 99.4938 44H95.3598C95.2212 44 95.1518 43.9307 95.1518 43.792V30.428C95.1518 30.2893 95.2212 30.22 95.3598 30.22H99.2338C99.3725 30.22 99.4418 30.2893 99.4418 30.428V30.818C99.4418 30.8527 99.4592 30.8873 99.4938 30.922C99.5458 30.9393 99.5892 30.9307 99.6238 30.896C100.196 30.4973 100.803 30.2373 101.444 30.116C102.085 29.9947 102.64 29.9773 103.108 30.064C103.576 30.1333 104.035 30.2633 104.486 30.454C104.937 30.6447 105.24 30.8007 105.396 30.922C105.569 31.026 105.691 31.104 105.76 31.156C105.881 31.2427 105.985 31.338 106.072 31.442ZM123.688 25.878C123.844 25.878 123.922 25.9473 123.922 26.086V43.766C123.922 43.922 123.844 44 123.688 44H119.84C119.684 44 119.606 43.922 119.606 43.766V43.558C119.606 43.4367 119.554 43.4107 119.45 43.48C118.324 44.104 117.11 44.416 115.81 44.416C113.8 44.416 112.075 43.714 110.636 42.31C109.215 40.906 108.504 39.2073 108.504 37.214C108.504 35.2207 109.215 33.522 110.636 32.118C112.075 30.6967 113.8 29.986 115.81 29.986C117.11 29.986 118.324 30.3067 119.45 30.948C119.485 30.9653 119.52 30.9653 119.554 30.948C119.589 30.9307 119.606 30.896 119.606 30.844V26.086C119.606 25.9473 119.684 25.878 119.84 25.878H123.688ZM116.486 40.516C117.388 40.516 118.133 40.1953 118.722 39.554C119.312 38.9127 119.606 38.1327 119.606 37.214C119.606 36.278 119.312 35.498 118.722 34.874C118.133 34.2327 117.388 33.912 116.486 33.912C115.55 33.912 114.753 34.2327 114.094 34.874C113.453 35.5153 113.132 36.2953 113.132 37.214C113.132 38.1153 113.453 38.8953 114.094 39.554C114.753 40.1953 115.55 40.516 116.486 40.516Z" fill="url(#paint0_linear_3721_12527)"/>
<defs>
<linearGradient id="paint0_linear_3721_12527" x1="198.986" y1="-68.2349" x2="-26.5329" y2="-50.0497" gradientUnits="userSpaceOnUse">
<stop stop-color="#F3FC1F"/>
<stop offset="0.46875" stop-color="#F3FC1F"/>
<stop offset="1" stop-color="#00FF80"/>
</linearGradient>
</defs>
</svg>
