<svg width="180" height="42" viewBox="0 0 180 42" fill="none" xmlns="http://www.w3.org/2000/svg">
<path d="M154.632 11H157.739C159.373 11 160.243 10.1477 160.243 8.99006C160.243 7.91406 159.472 7.2642 158.645 7.22514V7.15412C159.401 6.98366 159.959 6.44744 159.959 5.59162C159.959 4.50142 159.149 3.72727 157.544 3.72727H154.632V11ZM156.17 9.7429V7.81108H157.459C158.197 7.81108 158.656 8.23722 158.656 8.83736C158.656 9.38423 158.283 9.7429 157.423 9.7429H156.17ZM156.17 6.7706V4.97017H157.338C158.02 4.97017 158.407 5.32173 158.407 5.8473C158.407 6.42259 157.938 6.7706 157.31 6.7706H156.17ZM163.701 11.1065C165.05 11.1065 165.959 10.4496 166.172 9.4375L164.773 9.34517C164.621 9.76065 164.23 9.97727 163.726 9.97727C162.969 9.97727 162.49 9.47656 162.49 8.66335V8.6598H166.204V8.24432C166.204 6.39062 165.082 5.47443 163.64 5.47443C162.035 5.47443 160.995 6.61435 160.995 8.29759C160.995 10.027 162.021 11.1065 163.701 11.1065ZM162.49 7.7223C162.522 7.10085 162.994 6.60369 163.665 6.60369C164.322 6.60369 164.777 7.07244 164.78 7.7223H162.49ZM170.093 5.54545H169.067V4.23864H167.554V5.54545H166.808V6.68182H167.554V9.52273C167.547 10.5916 168.275 11.1207 169.372 11.0746C169.763 11.0604 170.04 10.9822 170.192 10.9325L169.954 9.80682C169.88 9.82102 169.72 9.85653 169.578 9.85653C169.276 9.85653 169.067 9.7429 169.067 9.32386V6.68182H170.093V5.54545ZM172.634 11.103C173.44 11.103 173.962 10.7514 174.228 10.2436H174.271V11H175.705V7.32102C175.705 6.02131 174.605 5.47443 173.39 5.47443C172.083 5.47443 171.224 6.09943 171.014 7.09375L172.414 7.20739C172.517 6.84517 172.84 6.57884 173.383 6.57884C173.898 6.57884 174.193 6.83807 174.193 7.28551V7.30682C174.193 7.65838 173.82 7.70455 172.872 7.79688C171.792 7.89631 170.823 8.25852 170.823 9.47656C170.823 10.5561 171.593 11.103 172.634 11.103ZM173.067 10.0589C172.602 10.0589 172.268 9.84233 172.268 9.42685C172.268 9.00071 172.619 8.79119 173.152 8.71662C173.482 8.67045 174.022 8.59233 174.203 8.47159V9.05043C174.203 9.62216 173.731 10.0589 173.067 10.0589Z" fill="#B5B9D3"/>
<path d="M66.0438 12.4876C64.8412 12.4386 63.8274 13.3912 63.7796 14.6149C63.7796 14.6189 63.7792 14.6225 63.7792 14.627V16.7663H68.6312V20.3875H63.7792V34.0476H59.4119V20.3875H56.5009V16.7663H59.4119V14.2948C59.4119 10.839 62.3233 8.53706 65.5579 8.53706C67.0395 8.50493 68.48 9.03264 69.6016 10.019L67.9843 13.1454C67.4022 12.7627 66.7352 12.5366 66.0438 12.4876Z" fill="url(#paint0_linear_2977_12502)"/>
<path d="M140.823 12.4143C139.62 12.3653 138.606 13.3179 138.558 14.5416C138.558 14.5456 138.558 14.5492 138.558 14.5536V16.6929H143.41V20.3142H138.558V33.9743H134.191V20.3142H131.28V16.6929H134.191V14.2215C134.191 10.7657 137.102 8.46373 140.337 8.46373C141.818 8.4316 143.259 8.9593 144.381 9.94564L142.763 13.0721C142.181 12.6894 141.514 12.4633 140.823 12.4143Z" fill="url(#paint1_linear_2977_12502)"/>
<path d="M87.0985 16.5996V33.8805H83.7024L83.0548 31.9062H82.5721C81.9249 32.7291 80.4693 34.0455 77.5583 34.0455C73.03 34.0455 70.765 30.754 70.765 25.9806V16.5996H75.4571V24.8284C75.4571 26.9681 75.6186 29.9303 78.5308 29.9303C79.9863 29.9303 82.4123 29.1078 82.4123 24.6645V16.5996H87.0985Z" fill="url(#paint2_linear_2977_12502)"/>
<path d="M96.7395 19.8354C95.2836 19.8354 94.6371 20.494 94.6371 21.3165C94.6371 22.4691 96.0931 22.7984 97.2246 23.1269C100.298 23.7856 103.371 24.7727 103.371 28.3931C103.371 32.0132 100.459 33.9891 96.9009 33.9891C93.019 33.9891 89.9466 31.5204 89.784 27.8996H93.9891C94.1486 29.3855 95.4352 30.4766 96.9005 30.3682C98.6793 30.3682 99.0029 29.3811 99.0029 28.7224C99.0029 27.406 97.8706 27.0763 96.5765 26.7474C94.6356 26.2558 90.2686 25.4309 90.2686 21.4812C90.2678 18.025 93.5049 16.3796 96.7395 16.3796C100.621 16.3796 103.047 18.684 103.209 21.6454H99.0041C99.0041 20.8225 98.521 19.8354 96.7395 19.8354Z" fill="url(#paint3_linear_2977_12502)"/>
<path d="M121.721 26.4339H109.267C109.75 29.0658 111.854 30.0534 113.795 30.0534C115.044 30.1152 116.247 29.5644 117.03 28.5724H121.397C120.201 31.8719 117.091 34.047 113.634 34.0016C108.884 33.9876 105.044 30.0598 105.057 25.2279C105.057 25.1368 105.059 25.0448 105.062 24.9533C104.904 20.3009 108.484 16.3988 113.058 16.2382C113.196 16.233 113.334 16.2318 113.472 16.2342C117.84 16.2342 122.368 19.3599 121.721 26.4339ZM109.59 22.9794H117.192C116.853 21.2772 115.338 20.0861 113.634 20.1821C111.815 20.0608 110.148 21.2138 109.59 22.9794Z" fill="url(#paint4_linear_2977_12502)"/>
<path d="M148.031 14.0909C149.121 14.0909 150.004 13.1919 150.004 12.083C150.004 10.9741 149.121 10.0751 148.031 10.0751C146.941 10.0751 146.058 10.9741 146.058 12.083C146.058 13.1919 146.941 14.0909 148.031 14.0909Z" fill="url(#paint5_linear_2977_12502)"/>
<path d="M150.313 16.3796H145.976V33.9898H150.313V16.3796Z" fill="url(#paint6_linear_2977_12502)"/>
<path d="M19 19.5C18.621 19.7937 19.0196 22.2666 19.3864 22.6215C19.7533 22.9763 23.0463 25.8826 23.0463 25.8826L24 24.4999C24 24.4999 19.5013 19.1329 19 19.5Z" fill="url(#paint7_linear_2977_12502)"/>
<path d="M12.0775 41.6822L33.2643 27.2267C33.6203 26.985 33.9026 24.4951 33.4729 24.2051C33.0433 23.915 12.0775 41.6822 12.0775 41.6822Z" fill="url(#paint8_linear_2977_12502)"/>
<path d="M39.093 1.31781L27.969 19.6513L28.8182 20.3876L39.093 1.31781Z" fill="url(#paint9_linear_2977_12502)"/>
<path d="M38.6368 1.09791L19.0542 19.5512C19.0247 19.5797 19.0013 19.6139 18.9853 19.6518C18.9694 19.6896 18.9611 19.7302 18.9611 19.7713C18.9611 19.8124 18.9694 19.8531 18.9853 19.8909C19.0013 19.9287 19.0247 19.9629 19.0542 19.9915L23.9802 24.5039L11.8293 41.5631C11.8061 41.588 11.7881 41.6172 11.7761 41.6492C11.7642 41.6811 11.7587 41.715 11.7598 41.7491C11.7621 41.8179 11.7914 41.883 11.8414 41.93C11.8914 41.977 11.958 42.0021 12.0264 41.9999C12.0948 41.9976 12.1596 41.968 12.2063 41.9178L33.4066 24.6873C33.4398 24.6598 33.4665 24.6252 33.4848 24.5861C33.5031 24.547 33.5126 24.5043 33.5126 24.4611C33.5126 24.4179 33.5031 24.3752 33.4848 24.3361C33.4665 24.297 33.4398 24.2624 33.4066 24.2349L27.9697 19.6368L39.0382 1.41586C39.0589 1.38936 39.0743 1.35901 39.0834 1.32654C39.0925 1.29407 39.0951 1.26011 39.0912 1.22662C39.0872 1.19312 39.0768 1.16073 39.0604 1.1313C39.044 1.10187 39.022 1.07598 38.9956 1.0551C38.9692 1.03423 38.9391 1.01877 38.9068 1.00963C38.8745 1.00048 38.8407 0.997814 38.8074 1.00179C38.7741 1.00576 38.7418 1.0163 38.7126 1.03279C38.6833 1.04928 38.6575 1.07141 38.6368 1.09791Z" fill="#F3FC1F"/>
<path d="M40.253 20.0354C40.4832 20.0713 40.7113 20.1204 40.936 20.1823L41.5947 20.3904C42.0187 20.552 42.4304 20.7443 42.8267 20.9657C43.6317 21.4064 44.4124 21.8715 45.1686 22.3856C46.6934 23.4016 48.1815 24.5277 49.4256 25.9966C50.0477 26.7433 50.621 27.5757 50.9504 28.6039C51.1314 29.1347 51.202 29.6971 51.1577 30.2564C51.1224 30.8351 50.951 31.3972 50.6576 31.8967C50.5161 32.1396 50.3528 32.369 50.1697 32.5822C49.991 32.7821 49.7994 32.9702 49.5964 33.1452C49.2055 33.4688 48.78 33.748 48.3278 33.9776C47.4695 34.4063 46.565 34.7348 45.6322 34.9569C43.8147 35.4098 41.985 35.5811 40.1798 35.6301C38.3684 35.6731 36.5561 35.6118 34.7518 35.4465C31.1721 35.1263 27.6236 34.5205 24.1398 33.6349C20.658 32.7755 17.242 31.6669 13.9181 30.3176C12.2592 29.6321 10.6247 28.8732 9.03903 28.0286C8.24618 27.6002 7.46552 27.1595 6.69707 26.6821C5.92861 26.2047 5.18455 25.7029 4.45269 25.1643C3.72813 24.613 3.03578 24.0204 2.37908 23.3894C1.71139 22.742 1.13666 22.0045 0.6714 21.1983C0.429542 20.7846 0.244883 20.3399 0.122503 19.8763C-0.00375209 19.3973 -0.0327862 18.8978 0.0371212 18.4074C0.112415 17.9123 0.295673 17.44 0.57382 17.0242C0.849394 16.6257 1.18712 16.2744 1.57403 15.9837C2.32661 15.4357 3.16287 15.0141 4.05017 14.7351C4.91375 14.4511 5.79899 14.2382 6.69707 14.0986C7.58557 13.9517 8.4814 13.8537 9.38056 13.8048L10.0514 13.7559L10.7223 13.6947L11.3932 13.5968C11.6127 13.5478 11.8323 13.4988 12.0641 13.4254C12.2177 13.3752 12.385 13.3882 12.529 13.4617C12.6731 13.5351 12.7823 13.663 12.8325 13.8171C12.8592 13.8942 12.8702 13.9759 12.8649 14.0573C12.8596 14.1387 12.8382 14.2183 12.8018 14.2913C12.7654 14.3643 12.7149 14.4293 12.6531 14.4824C12.5914 14.5355 12.5196 14.5756 12.4422 14.6005C12.3188 14.6369 12.1875 14.6369 12.0641 14.6005C11.632 14.4687 11.1855 14.3906 10.7345 14.3679C10.2951 14.3496 9.8549 14.3618 9.41716 14.4046C8.53892 14.4658 7.66069 14.576 6.79465 14.7229C5.93864 14.8729 5.09474 15.0856 4.26972 15.3594C3.45248 15.6532 2.65963 16.0204 2.00095 16.5345C1.67905 16.7816 1.39897 17.0793 1.17151 17.4159C0.952308 17.7425 0.810453 18.1152 0.756785 18.5053C0.647006 19.2887 0.903156 20.0966 1.33008 20.8188C1.77711 21.5517 2.32305 22.2191 2.95237 22.8018C3.57669 23.4099 4.24535 23.9705 4.9528 24.4788C6.38462 25.4972 7.8936 26.4017 9.46595 27.184C11.0395 27.9796 12.6617 28.6896 14.3084 29.3261C17.6031 30.5991 20.987 31.6261 24.4325 32.3985C27.8666 33.1948 31.3578 33.7186 34.8738 33.9654C36.6191 34.0938 38.3705 34.1184 40.1188 34.0388C40.9848 33.9898 41.8509 33.9164 42.7047 33.8062C43.5511 33.6979 44.3902 33.5385 45.2174 33.3288C46.0152 33.1245 46.7883 32.8331 47.5228 32.4597C48.2181 32.0803 48.8158 31.5907 49.1329 31.0276C49.45 30.4645 49.4744 29.828 49.2427 29.1547C49.0109 28.4815 48.584 27.796 48.0473 27.184C47.4971 26.5567 46.893 25.9792 46.242 25.458C45.5729 24.9207 44.8767 24.4182 44.1562 23.9524C43.4244 23.475 42.6803 23.0466 41.9119 22.6182C41.5337 22.4101 41.1678 22.1775 40.8019 21.9327L40.2652 21.541C40.0834 21.4074 39.9122 21.2601 39.7529 21.1003H39.7407C39.6835 21.0434 39.6381 20.9757 39.6072 20.9012C39.5762 20.8266 39.5603 20.7466 39.5603 20.6658C39.5603 20.585 39.5762 20.505 39.6072 20.4304C39.6381 20.3558 39.6835 20.2881 39.7407 20.2312C39.8055 20.1615 39.8854 20.1076 39.9742 20.0736C40.063 20.0397 40.1583 20.0266 40.253 20.0354Z" fill="url(#paint10_linear_2977_12502)"/>
<path d="M40.253 20.0354C40.4832 20.0713 40.7113 20.1204 40.936 20.1823L41.5947 20.3904C42.0187 20.552 42.4304 20.7443 42.8267 20.9657C43.6317 21.4064 44.4124 21.8715 45.1686 22.3856C46.6934 23.4016 48.1815 24.5277 49.4256 25.9966C50.0477 26.7433 50.621 27.5757 50.9504 28.6039C51.1314 29.1347 51.202 29.6971 51.1577 30.2564C51.1224 30.8351 50.951 31.3972 50.6576 31.8967C50.5161 32.1396 50.3528 32.369 50.1697 32.5822C49.991 32.7821 49.7994 32.9702 49.5964 33.1452C49.2055 33.4688 48.78 33.748 48.3278 33.9776C47.4695 34.4063 46.565 34.7348 45.6322 34.9569C43.8147 35.4098 41.985 35.5811 40.1798 35.6301C38.3684 35.6731 36.5561 35.6118 34.7518 35.4465C31.1721 35.1263 27.6236 34.5205 24.1398 33.6349C20.658 32.7755 17.242 31.6669 13.9181 30.3176C12.2592 29.6321 10.6247 28.8732 9.03903 28.0286C8.24618 27.6002 7.46552 27.1595 6.69707 26.6821C5.92861 26.2047 5.18455 25.7029 4.45269 25.1643C3.72813 24.613 3.03578 24.0204 2.37908 23.3894C1.71139 22.742 1.13666 22.0045 0.6714 21.1983C0.429542 20.7846 0.244883 20.3399 0.122503 19.8763C-0.00375209 19.3973 -0.0327862 18.8978 0.0371212 18.4074C0.112415 17.9123 0.295673 17.44 0.57382 17.0242C0.849394 16.6257 1.18712 16.2744 1.57403 15.9837C2.32661 15.4357 3.16287 15.0141 4.05017 14.7351C4.91375 14.4511 5.79899 14.2382 6.69707 14.0986C7.58557 13.9517 8.4814 13.8537 9.38056 13.8048L10.0514 13.7559L10.7223 13.6947L11.3932 13.5968C11.6127 13.5478 11.8323 13.4988 12.0641 13.4254C12.2177 13.3752 12.385 13.3882 12.529 13.4617C12.6731 13.5351 12.7823 13.663 12.8325 13.8171C12.8592 13.8942 12.8702 13.9759 12.8649 14.0573C12.8596 14.1387 12.8382 14.2183 12.8018 14.2913C12.7654 14.3643 12.7149 14.4293 12.6531 14.4824C12.5914 14.5355 12.5196 14.5756 12.4422 14.6005C12.3188 14.6369 12.1875 14.6369 12.0641 14.6005C11.632 14.4687 11.1855 14.3906 10.7345 14.3679C10.2951 14.3496 9.8549 14.3618 9.41716 14.4046C8.53892 14.4658 7.66069 14.576 6.79465 14.7229C5.93864 14.8729 5.09474 15.0856 4.26972 15.3594C3.45248 15.6532 2.65963 16.0204 2.00095 16.5345C1.67905 16.7816 1.39897 17.0793 1.17151 17.4159C0.952308 17.7425 0.810453 18.1152 0.756785 18.5053C0.647006 19.2887 0.903156 20.0966 1.33008 20.8188C1.77711 21.5517 2.32305 22.2191 2.95237 22.8018C3.57669 23.4099 4.24535 23.9705 4.9528 24.4788C6.38462 25.4972 7.8936 26.4017 9.46595 27.184C11.0395 27.9796 12.6617 28.6896 14.3084 29.3261C17.6031 30.5991 20.987 31.6261 24.4325 32.3985C27.8666 33.1948 31.3578 33.7186 34.8738 33.9654C36.6191 34.0938 38.3705 34.1184 40.1188 34.0388C40.9848 33.9898 41.8509 33.9164 42.7047 33.8062C43.5511 33.6979 44.3902 33.5385 45.2174 33.3288C46.0152 33.1245 46.7883 32.8331 47.5228 32.4597C48.2181 32.0803 48.8158 31.5907 49.1329 31.0276C49.45 30.4645 49.4744 29.828 49.2427 29.1547C49.0109 28.4815 48.584 27.796 48.0473 27.184C47.4971 26.5567 46.893 25.9792 46.242 25.458C45.5729 24.9207 44.8767 24.4182 44.1562 23.9524C43.4244 23.475 42.6803 23.0466 41.9119 22.6182C41.5337 22.4101 41.1678 22.1775 40.8019 21.9327L40.2652 21.541C40.0834 21.4074 39.9122 21.2601 39.7529 21.1003H39.7407C39.6835 21.0434 39.6381 20.9757 39.6072 20.9012C39.5762 20.8266 39.5603 20.7466 39.5603 20.6658C39.5603 20.585 39.5762 20.505 39.6072 20.4304C39.6381 20.3558 39.6835 20.2881 39.7407 20.2312C39.8055 20.1615 39.8854 20.1076 39.9742 20.0736C40.063 20.0397 40.1583 20.0266 40.253 20.0354Z" fill="url(#paint11_linear_2977_12502)"/>
<path d="M41.3179 20.3512L40.586 21.9768L38.5761 20.8231C37.8734 20.4107 37.2951 19.7719 36.9148 18.9878L36.8683 18.8829C37.7342 18.6925 38.6316 18.826 39.4242 19.2631L41.3179 20.3512Z" fill="url(#paint12_linear_2977_12502)"/>
<path d="M41.3909 20.3876L42.2713 19.4341L40.0465 19.6694L41.3909 20.3876Z" fill="url(#paint13_linear_2977_12502)"/>
<path d="M39.4109 21.0233L40.6822 21.8061L40.5022 23.2481" fill="url(#paint14_linear_2977_12502)"/>
<path d="M41.3179 20.3512L40.586 21.9768L38.5761 20.8231C37.8734 20.4107 37.2951 19.7719 36.9148 18.9878L36.8683 18.8829C37.7342 18.6925 38.6316 18.826 39.4242 19.2631L41.3179 20.3512Z" fill="url(#paint15_linear_2977_12502)"/>
<path d="M41.3909 20.3876L42.2713 19.4341L40.0465 19.6694L41.3909 20.3876Z" fill="url(#paint16_linear_2977_12502)"/>
<path d="M39.4109 21.0233L40.6822 21.8061L40.5022 23.2481" fill="url(#paint17_linear_2977_12502)"/>
<path d="M39.093 1.31781L27.969 19.6513L28.8182 20.3876L39.093 1.31781Z" fill="url(#paint18_linear_2977_12502)"/>
<path d="M127.095 35C127.34 34.9981 127.582 34.9451 127.807 34.8439C128.033 34.7427 128.237 34.5954 128.409 34.4104C128.581 34.2253 128.717 34.0062 128.809 33.7654C128.901 33.5247 128.947 33.267 128.946 33.0072C128.949 32.7462 128.904 32.487 128.813 32.2446C128.722 32.0022 128.586 31.7813 128.414 31.5947C128.242 31.4082 128.037 31.2595 127.811 31.1575C127.584 31.0554 127.341 31.0019 127.095 31C126.849 31.0019 126.606 31.0554 126.38 31.1575C126.153 31.2595 125.948 31.4082 125.776 31.5947C125.604 31.7813 125.469 32.0022 125.378 32.2446C125.286 32.487 125.241 32.7462 125.245 33.0072C125.243 33.267 125.289 33.5247 125.381 33.7654C125.474 34.0062 125.609 34.2253 125.781 34.4104C125.953 34.5954 126.157 34.7427 126.383 34.8439C126.608 34.9451 126.85 34.9981 127.095 35Z" fill="url(#paint19_linear_2977_12502)"/>
<defs>
<linearGradient id="paint0_linear_2977_12502" x1="52.5001" y1="20.9999" x2="204.5" y2="31.9999" gradientUnits="userSpaceOnUse">
<stop stop-color="#F3FC1F"/>
<stop offset="0.18733" stop-color="#F3FC1F"/>
<stop offset="1" stop-color="#3AD8A4"/>
</linearGradient>
<linearGradient id="paint1_linear_2977_12502" x1="52.5001" y1="20.9999" x2="204.5" y2="31.9999" gradientUnits="userSpaceOnUse">
<stop stop-color="#F3FC1F"/>
<stop offset="0.18733" stop-color="#F3FC1F"/>
<stop offset="1" stop-color="#3AD8A4"/>
</linearGradient>
<linearGradient id="paint2_linear_2977_12502" x1="52.5001" y1="20.9999" x2="204.5" y2="31.9999" gradientUnits="userSpaceOnUse">
<stop stop-color="#F3FC1F"/>
<stop offset="0.18733" stop-color="#F3FC1F"/>
<stop offset="1" stop-color="#3AD8A4"/>
</linearGradient>
<linearGradient id="paint3_linear_2977_12502" x1="52.5001" y1="20.9999" x2="204.5" y2="31.9999" gradientUnits="userSpaceOnUse">
<stop stop-color="#F3FC1F"/>
<stop offset="0.18733" stop-color="#F3FC1F"/>
<stop offset="1" stop-color="#3AD8A4"/>
</linearGradient>
<linearGradient id="paint4_linear_2977_12502" x1="52.5001" y1="20.9999" x2="204.5" y2="31.9999" gradientUnits="userSpaceOnUse">
<stop stop-color="#F3FC1F"/>
<stop offset="0.18733" stop-color="#F3FC1F"/>
<stop offset="1" stop-color="#3AD8A4"/>
</linearGradient>
<linearGradient id="paint5_linear_2977_12502" x1="52.5001" y1="20.9999" x2="204.5" y2="31.9999" gradientUnits="userSpaceOnUse">
<stop stop-color="#F3FC1F"/>
<stop offset="0.18733" stop-color="#F3FC1F"/>
<stop offset="1" stop-color="#3AD8A4"/>
</linearGradient>
<linearGradient id="paint6_linear_2977_12502" x1="52.5001" y1="20.9999" x2="204.5" y2="31.9999" gradientUnits="userSpaceOnUse">
<stop stop-color="#F3FC1F"/>
<stop offset="0.18733" stop-color="#F3FC1F"/>
<stop offset="1" stop-color="#3AD8A4"/>
</linearGradient>
<linearGradient id="paint7_linear_2977_12502" x1="18.3557" y1="24.9072" x2="23.4346" y2="20.3198" gradientUnits="userSpaceOnUse">
<stop stop-color="#3AD889"/>
<stop offset="0.15" stop-color="#35CE81"/>
<stop offset="0.4" stop-color="#29B36D"/>
<stop offset="0.71" stop-color="#15884C"/>
<stop offset="1" stop-color="#005B29"/>
</linearGradient>
<linearGradient id="paint8_linear_2977_12502" x1="35.1338" y1="22.9033" x2="13.5575" y2="43.5336" gradientUnits="userSpaceOnUse">
<stop stop-color="#3AD889"/>
<stop offset="0.36" stop-color="#23A763"/>
<stop offset="0.79" stop-color="#0A7039"/>
<stop offset="1" stop-color="#005B29"/>
</linearGradient>
<linearGradient id="paint9_linear_2977_12502" x1="2566.36" y1="1533.96" x2="3585.99" y2="1533.96" gradientUnits="userSpaceOnUse">
<stop stop-color="#3AD889"/>
<stop offset="0.36" stop-color="#23A763"/>
<stop offset="0.79" stop-color="#0A7039"/>
<stop offset="1" stop-color="#005B29"/>
</linearGradient>
<linearGradient id="paint10_linear_2977_12502" x1="-0.582523" y1="24.5216" x2="51.2309" y2="24.5216" gradientUnits="userSpaceOnUse">
<stop stop-color="#3AD889" stop-opacity="0.5"/>
<stop offset="0.21" stop-color="#65E070" stop-opacity="0.62"/>
<stop offset="0.6" stop-color="#B1EF45" stop-opacity="0.82"/>
<stop offset="0.87" stop-color="#E1F82A" stop-opacity="0.95"/>
<stop offset="1" stop-color="#F3FC1F"/>
</linearGradient>
<linearGradient id="paint11_linear_2977_12502" x1="-0.582523" y1="24.5216" x2="51.2309" y2="24.5216" gradientUnits="userSpaceOnUse">
<stop stop-color="#3AD889" stop-opacity="0.5"/>
<stop offset="0.21" stop-color="#65E070" stop-opacity="0.62"/>
<stop offset="0.6" stop-color="#B1EF45" stop-opacity="0.82"/>
<stop offset="0.87" stop-color="#E1F82A" stop-opacity="0.95"/>
<stop offset="1" stop-color="#F3FC1F"/>
</linearGradient>
<linearGradient id="paint12_linear_2977_12502" x1="34.1429" y1="19.4982" x2="39.9286" y2="22.1372" gradientUnits="userSpaceOnUse">
<stop stop-color="#3AD889"/>
<stop offset="0.1" stop-color="#4FDC7D"/>
<stop offset="0.54" stop-color="#A7ED4B"/>
<stop offset="0.85" stop-color="#DEF82B"/>
<stop offset="1" stop-color="#F3FC1F"/>
</linearGradient>
<linearGradient id="paint13_linear_2977_12502" x1="790.674" y1="161.771" x2="790.641" y2="171.764" gradientUnits="userSpaceOnUse">
<stop stop-color="#3AD889"/>
<stop offset="0.1" stop-color="#4FDC7D"/>
<stop offset="0.54" stop-color="#A7ED4B"/>
<stop offset="0.85" stop-color="#DEF82B"/>
<stop offset="1" stop-color="#F3FC1F"/>
</linearGradient>
<linearGradient id="paint14_linear_2977_12502" x1="216.26" y1="1999.31" x2="233.517" y2="1988.46" gradientUnits="userSpaceOnUse">
<stop stop-color="#3AD889"/>
<stop offset="0.1" stop-color="#4FDC7D"/>
<stop offset="0.54" stop-color="#A7ED4B"/>
<stop offset="0.85" stop-color="#DEF82B"/>
<stop offset="1" stop-color="#F3FC1F"/>
</linearGradient>
<linearGradient id="paint15_linear_2977_12502" x1="10877.2" y1="-8141.82" x2="10875.9" y2="-7918.16" gradientUnits="userSpaceOnUse">
<stop stop-color="#3AD889"/>
<stop offset="0.1" stop-color="#4FDC7D"/>
<stop offset="0.54" stop-color="#A7ED4B"/>
<stop offset="0.85" stop-color="#DEF82B"/>
<stop offset="1" stop-color="#F3FC1F"/>
</linearGradient>
<linearGradient id="paint16_linear_2977_12502" x1="790.896" y1="161.771" x2="790.864" y2="171.764" gradientUnits="userSpaceOnUse">
<stop stop-color="#3AD889"/>
<stop offset="0.1" stop-color="#4FDC7D"/>
<stop offset="0.54" stop-color="#A7ED4B"/>
<stop offset="0.85" stop-color="#DEF82B"/>
<stop offset="1" stop-color="#F3FC1F"/>
</linearGradient>
<linearGradient id="paint17_linear_2977_12502" x1="216.418" y1="1999.28" x2="233.675" y2="1988.44" gradientUnits="userSpaceOnUse">
<stop stop-color="#3AD889"/>
<stop offset="0.1" stop-color="#4FDC7D"/>
<stop offset="0.54" stop-color="#A7ED4B"/>
<stop offset="0.85" stop-color="#DEF82B"/>
<stop offset="1" stop-color="#F3FC1F"/>
</linearGradient>
<linearGradient id="paint18_linear_2977_12502" x1="2574.82" y1="1533.96" x2="3594.44" y2="1533.96" gradientUnits="userSpaceOnUse">
<stop stop-color="#3AD889"/>
<stop offset="0.36" stop-color="#23A763"/>
<stop offset="0.79" stop-color="#0A7039"/>
<stop offset="1" stop-color="#005B29"/>
</linearGradient>
<linearGradient id="paint19_linear_2977_12502" x1="131.5" y1="35.5" x2="125.5" y2="31.5" gradientUnits="userSpaceOnUse">
<stop offset="0.0863256" stop-color="#3AD889"/>
<stop offset="0.779981" stop-color="#F3FC1F"/>
</linearGradient>
</defs>
</svg>
