<svg width="141" height="53" viewBox="0 0 141 53" fill="none" xmlns="http://www.w3.org/2000/svg">
<g filter="url(#filter0_d)">
<path d="M117.26 52.7246L23.7687 52.7246C21.7128 52.7246 20.0291 50.8266 20.0291 48.5091L20.0291 23.216C20.0291 20.8985 21.7128 19.0005 23.7687 19.0005L117.26 19.0005C119.316 19.0005 121 20.8985 121 23.216V48.5091C121 50.8266 119.316 52.7246 117.26 52.7246Z" fill="url(#paint0_linear)"/>
<path d="M55.4943 28.2499C55.4943 28.8658 55.3074 29.359 54.939 29.7269C54.5155 30.163 53.9639 30.3824 53.2879 30.3824C52.6419 30.3824 52.0903 30.1593 51.6378 29.7195C51.1844 29.2733 50.9581 28.7256 50.9581 28.0701C50.9581 27.4146 51.1844 26.8669 51.6378 26.4244C52.0903 25.9809 52.6419 25.7578 53.2879 25.7578C53.6096 25.7578 53.9162 25.8233 54.2088 25.945C54.5005 26.0676 54.738 26.2335 54.91 26.4382L54.5192 26.8273C54.2191 26.4779 53.8106 26.3055 53.2879 26.3055C52.8167 26.3055 52.4082 26.4677 52.0613 26.795C51.7182 27.1232 51.5462 27.5483 51.5462 28.0701C51.5462 28.5919 51.7182 29.0207 52.0613 29.3489C52.4082 29.6725 52.8167 29.8384 53.2879 29.8384C53.7881 29.8384 54.2088 29.6725 54.5407 29.3452C54.7595 29.1285 54.8838 28.8298 54.9166 28.4481H53.2879V27.9152H55.4607C55.4869 28.0305 55.4943 28.142 55.4943 28.2499Z" fill="white" stroke="white" stroke-width="0.612913"/>
<path d="M58.9407 26.4024H56.8998V27.8038H58.7397V28.3367H56.8998V29.7381H58.9407V30.2811H56.322V25.8594H58.9407V26.4024Z" fill="white" stroke="white" stroke-width="0.612913"/>
<path d="M61.3742 30.2811H60.7964V26.4024H59.5446V25.8594H62.627V26.4024H61.3742V30.2811Z" fill="white" stroke="white" stroke-width="0.612913"/>
<path d="M64.8575 30.2811V25.8594H65.4343V30.2811H64.8575Z" fill="white" stroke="white" stroke-width="0.612913"/>
<path d="M67.9908 30.2811H67.4177V26.4024H66.1611V25.8594H69.2473V26.4024H67.9908V30.2811Z" fill="white" stroke="white" stroke-width="0.612913"/>
<path fill-rule="evenodd" clip-rule="evenodd" d="M73.4393 30.3824C74.0928 30.3824 74.6407 30.1593 75.0829 29.7121C75.5242 29.2659 75.7439 28.7183 75.7439 28.0701C75.7439 27.4257 75.5242 26.8817 75.0791 26.4318C74.6369 25.9809 74.0891 25.7578 73.4393 25.7578C72.782 25.7578 72.2342 25.9809 71.792 26.4281C71.3507 26.8743 71.131 27.422 71.131 28.0701C71.131 28.7183 71.3507 29.2659 71.792 29.7121C72.2342 30.1593 72.782 30.3824 73.4393 30.3824ZM73.4387 29.8384C72.9563 29.8384 72.5515 29.6724 72.2187 29.3414C71.8868 29.0104 71.7185 28.5854 71.7185 28.07C71.7185 27.5547 71.8868 27.1296 72.2187 26.7986C72.5515 26.4677 72.9563 26.3017 73.4387 26.3017C73.9174 26.3017 74.326 26.4677 74.6551 26.7986C74.987 27.1296 75.1552 27.5547 75.1552 28.07C75.1552 28.5854 74.987 29.0104 74.6551 29.3414C74.326 29.6724 73.9174 29.8384 73.4387 29.8384Z" fill="white"/>
<path d="M75.0829 29.7121L75.3008 29.9276L75.3008 29.9276L75.0829 29.7121ZM75.0791 26.4318L74.8604 26.6464L74.8613 26.6473L75.0791 26.4318ZM71.792 26.4281L71.5741 26.2126L71.5741 26.2126L71.792 26.4281ZM71.792 29.7121L71.5741 29.9276L71.5741 29.9276L71.792 29.7121ZM72.2187 29.3414L72.0023 29.5584L72.0026 29.5587L72.2187 29.3414ZM72.2187 26.7986L72.0026 26.5813L72.0023 26.5816L72.2187 26.7986ZM74.6551 26.7986L74.4377 27.0147L74.4387 27.0156L74.6551 26.7986ZM74.6551 29.3414L74.4387 29.1244L74.4377 29.1254L74.6551 29.3414ZM74.865 29.4966C74.4829 29.883 74.0147 30.0759 73.4393 30.0759V30.6889C74.1709 30.6889 74.7984 30.4356 75.3008 29.9276L74.865 29.4966ZM75.4374 28.0701C75.4374 28.6409 75.2472 29.1101 74.865 29.4966L75.3008 29.9276C75.8011 29.4217 76.0503 28.7956 76.0503 28.0701H75.4374ZM74.8613 26.6473C75.248 27.0383 75.4374 27.5042 75.4374 28.0701H76.0503C76.0503 27.3471 75.8003 26.7251 75.297 26.2163L74.8613 26.6473ZM73.4393 26.0643C74.0105 26.0643 74.4783 26.2569 74.8604 26.6464L75.2979 26.2172C74.7955 25.705 74.1676 25.4514 73.4393 25.4514V26.0643ZM72.0099 26.6436C72.3918 26.2574 72.8599 26.0643 73.4393 26.0643V25.4514C72.7042 25.4514 72.0766 25.7044 71.5741 26.2126L72.0099 26.6436ZM71.4374 28.0701C71.4374 27.4993 71.6276 27.0301 72.0099 26.6436L71.5741 26.2126C71.0737 26.7185 70.8245 27.3446 70.8245 28.0701H71.4374ZM72.0099 29.4966C71.6276 29.1101 71.4374 28.6409 71.4374 28.0701H70.8245C70.8245 28.7956 71.0737 29.4217 71.5741 29.9276L72.0099 29.4966ZM73.4393 30.0759C72.8599 30.0759 72.3918 29.8828 72.0099 29.4966L71.5741 29.9276C72.0766 30.4358 72.7042 30.6889 73.4393 30.6889V30.0759ZM72.0026 29.5587C72.3941 29.948 72.8771 30.1448 73.4387 30.1448V29.5319C73.0355 29.5319 72.7089 29.3968 72.4348 29.1241L72.0026 29.5587ZM71.412 28.07C71.412 28.6587 71.6072 29.1644 72.0023 29.5584L72.4351 29.1244C72.1663 28.8565 72.0249 28.5121 72.0249 28.07H71.412ZM72.0023 26.5816C71.6072 26.9756 71.412 27.4814 71.412 28.07H72.0249C72.0249 27.6279 72.1663 27.2836 72.4351 27.0156L72.0023 26.5816ZM73.4387 25.9952C72.8771 25.9952 72.3941 26.192 72.0026 26.5813L72.4348 27.0159C72.7089 26.7433 73.0355 26.6082 73.4387 26.6082V25.9952ZM74.8724 26.5826C74.4837 26.1916 73.996 25.9952 73.4387 25.9952V26.6082C73.8389 26.6082 74.1683 26.7437 74.4377 27.0147L74.8724 26.5826ZM75.4617 28.07C75.4617 27.4814 75.2665 26.9756 74.8715 26.5816L74.4387 27.0156C74.7074 27.2836 74.8488 27.6279 74.8488 28.07H75.4617ZM74.8715 29.5584C75.2665 29.1644 75.4617 28.6587 75.4617 28.07H74.8488C74.8488 28.5121 74.7074 28.8565 74.4387 29.1244L74.8715 29.5584ZM73.4387 30.1448C73.996 30.1448 74.4837 29.9485 74.8724 29.5575L74.4377 29.1254C74.1683 29.3964 73.8389 29.5319 73.4387 29.5319V30.1448Z" fill="white"/>
<path d="M76.5546 30.2811V25.8594H77.2558L79.436 29.2983H79.4612L79.436 28.4483V25.8594H80.0128V30.2811H79.4107L77.1277 26.6726H77.1024L77.1277 27.5263V30.2811H76.5546H76.5546Z" fill="white" stroke="white" stroke-width="0.612913"/>
<path fill-rule="evenodd" clip-rule="evenodd" d="M79.539 37.4373H79.4922C79.1781 37.0704 78.5788 36.7385 77.8197 36.7385C76.2266 36.7385 74.77 38.1178 74.77 39.8861C74.77 41.6443 76.2266 43.0125 77.8197 43.0125C78.5788 43.0125 79.1781 42.6778 79.4922 42.2998H79.539V42.7497C79.539 43.9492 78.8892 44.5937 77.8412 44.5937C76.9867 44.5937 76.4566 43.9852 76.2378 43.4735L75.0215 43.9741C75.372 44.8057 76.3004 45.8291 77.8412 45.8291C79.481 45.8291 80.8647 44.8776 80.8647 42.5626V36.9293H79.539V37.4373ZM55.7386 37.7V39.0332H58.9668C58.8724 39.7781 58.62 40.3258 58.2329 40.7075C57.7617 41.1684 57.0278 41.6801 55.7386 41.6801C53.7519 41.6801 52.1962 40.099 52.1962 38.1398C52.1962 36.1806 53.7519 34.5994 55.7386 34.5994C56.8128 34.5994 57.5944 35.0134 58.1712 35.55L59.1239 34.6105C58.3171 33.8508 57.2438 33.2672 55.7386 33.2672C53.0142 33.2672 50.7246 35.4532 50.7246 38.1398C50.7246 40.8264 53.0142 43.0124 55.7386 43.0124C57.2111 43.0124 58.3171 42.5366 59.1865 41.6442C60.0775 40.7655 60.3552 39.5301 60.3552 38.5325C60.3552 38.2227 60.329 37.9379 60.2823 37.7H55.7386ZM64.0253 36.7384C62.2648 36.7384 60.8335 38.0568 60.8335 39.8758C60.8335 41.6801 62.2648 43.0124 64.0253 43.0124C65.7848 43.0124 67.2171 41.6801 67.2171 39.8758C67.2171 38.0568 65.7848 36.7384 64.0253 36.7384ZM67.798 39.8758C67.798 38.0568 69.2331 36.7384 70.9899 36.7384C72.7503 36.7384 74.1854 38.0568 74.1854 39.8758C74.1854 41.6801 72.7503 43.0124 70.9899 43.0124C69.2331 43.0124 67.798 41.6801 67.798 39.8758ZM69.1961 39.876C69.1961 40.9925 70.0254 41.7771 70.9893 41.7771C71.9532 41.7771 72.7862 40.9925 72.7862 39.876C72.7862 38.7447 71.9532 37.9739 70.9893 37.9739C70.0254 37.9739 69.1961 38.7447 69.1961 39.876ZM62.2291 39.876C62.2291 40.9925 63.0612 41.7771 64.026 41.7771C64.9899 41.7771 65.8192 40.9925 65.8192 39.876C65.8192 38.7447 64.9899 37.9739 64.026 37.9739C63.0612 37.9739 62.2291 38.7447 62.2291 39.876ZM86.9015 36.7384C88.5526 36.7384 89.3631 38.0319 89.6259 38.7335L89.7726 39.0903L85.5178 40.8264C85.8432 41.457 86.3508 41.7769 87.0586 41.7769C87.771 41.7769 88.2637 41.4312 88.6255 40.9094L89.71 41.622C89.3631 42.1337 88.5198 43.0124 87.0586 43.0124C85.2514 43.0124 83.9032 41.6331 83.9032 39.8758C83.9032 38.0098 85.2654 36.7384 86.9015 36.7384ZM85.2874 39.7783C85.251 38.5687 86.2401 37.9491 86.9488 37.9491C87.5041 37.9491 87.9753 38.2229 88.1324 38.6148L85.2874 39.7783ZM83.2276 42.8217H81.829V33.602H83.2276V42.8217ZM76.1681 39.8861C76.1681 40.9814 76.975 41.7771 77.9389 41.7771C78.8888 41.7771 79.6376 40.9814 79.6376 39.8861C79.6376 38.7807 78.8888 37.9739 77.9389 37.9739C76.975 37.9739 76.1681 38.7807 76.1681 39.8861ZM96.174 33.602H92.8289V42.8217H94.2238V39.3283H96.174C97.7232 39.3283 99.2424 38.2229 99.2424 36.4647C99.2424 34.7074 97.7194 33.602 96.174 33.602ZM94.2233 38.046H96.21C97.2515 38.046 97.8461 37.1784 97.8461 36.4648C97.8461 35.7374 97.2515 34.8845 96.21 34.8845H94.2233V38.046ZM104.833 36.7209C103.826 36.7209 102.778 37.1598 102.347 38.1325L103.584 38.6442C103.851 38.1325 104.341 37.9665 104.859 37.9665C105.582 37.9665 106.316 38.3952 106.327 39.1522V39.249C106.075 39.1052 105.535 38.8922 104.87 38.8922C103.537 38.8922 102.178 39.6159 102.178 40.9666C102.178 42.202 103.27 42.9977 104.498 42.9977C105.436 42.9977 105.954 42.58 106.28 42.0942H106.327V42.8069H107.675V39.2702C107.675 37.6355 106.437 36.7209 104.833 36.7209ZM103.573 40.9926C103.573 41.5503 104.208 41.7735 104.665 41.7735C105.472 41.7735 106.218 41.1687 106.327 40.3149C105.954 40.1388 105.666 40.0051 105.052 40.0051C104.366 40.0051 103.573 40.279 103.573 40.9926ZM112.582 36.923L110.979 40.9197H110.931L109.274 36.923H107.77L110.26 42.5083L108.839 45.6162H110.297L114.134 36.923H112.582ZM101.407 42.8217H100.008V33.602H101.407V42.8217Z" fill="white"/>
<path d="M27.8339 26.2548C27.6142 26.4816 27.4871 26.8347 27.4871 27.292L27.4871 43.6034C27.4871 44.0607 27.6142 44.4138 27.8339 44.6406L27.8881 44.6904L37.1569 35.5537V35.338L27.8881 26.2013L27.8339 26.2548Z" fill="url(#paint1_linear)"/>
<path d="M40.2433 38.6006L37.1571 35.5535V35.3377L40.247 32.2906L40.3162 32.3303L43.9754 34.3835C45.0198 34.9662 45.0198 35.925 43.9754 36.5114L40.3162 38.5609L40.2433 38.6006V38.6006Z" fill="url(#paint2_linear)"/>
<path d="M40.3158 38.5608L37.1567 35.4455L27.8337 44.6403C28.1806 44.9999 28.7462 45.0432 29.3894 44.6836L40.3158 38.5608Z" fill="url(#paint3_linear)"/>
<path d="M40.3158 32.331L29.3894 26.2082C28.7462 25.8523 28.1806 25.8956 27.8337 26.2552L37.1567 35.4463L40.3158 32.331Z" fill="url(#paint4_linear)"/>
</g>
<defs>
<filter id="filter0_d" x="0.0290527" y="0" width="140.971" height="73.7246" filterUnits="userSpaceOnUse" color-interpolation-filters="sRGB">
<feFlood flood-opacity="0" result="BackgroundImageFix"/>
<feColorMatrix in="SourceAlpha" type="matrix" values="0 0 0 0 0 0 0 0 0 0 0 0 0 0 0 0 0 0 127 0" result="hardAlpha"/>
<feOffset dy="1"/>
<feGaussianBlur stdDeviation="10"/>
<feComposite in2="hardAlpha" operator="out"/>
<feColorMatrix type="matrix" values="0 0 0 0 0.641621 0 0 0 0 0.6625 0 0 0 0 0.640417 0 0 0 0.1 0"/>
<feBlend mode="normal" in2="BackgroundImageFix" result="effect1_dropShadow"/>
<feBlend mode="normal" in="SourceGraphic" in2="effect1_dropShadow" result="shape"/>
</filter>
<linearGradient id="paint0_linear" x1="73.1839" y1="69.5867" x2="51.9982" y2="9.50989" gradientUnits="userSpaceOnUse">
<stop stop-color="#2F342F"/>
<stop offset="1"/>
</linearGradient>
<linearGradient id="paint1_linear" x1="33.097" y1="55.7734" x2="18.2838" y2="51.7776" gradientUnits="userSpaceOnUse">
<stop stop-color="#00A0FF"/>
<stop offset="0.0066" stop-color="#00A1FF"/>
<stop offset="0.2601" stop-color="#00BEFF"/>
<stop offset="0.5122" stop-color="#00D2FF"/>
<stop offset="0.7604" stop-color="#00DFFF"/>
<stop offset="1" stop-color="#00E3FF"/>
</linearGradient>
<linearGradient id="paint2_linear" x1="45.3353" y1="42.9559" x2="27.2376" y2="42.9559" gradientUnits="userSpaceOnUse">
<stop stop-color="#FFE000"/>
<stop offset="0.4087" stop-color="#FFBD00"/>
<stop offset="0.7754" stop-color="#FFA500"/>
<stop offset="1" stop-color="#FF9C00"/>
</linearGradient>
<linearGradient id="paint3_linear" x1="27.5555" y1="40.2207" x2="15.8856" y2="20.2996" gradientUnits="userSpaceOnUse">
<stop stop-color="#FF3A44"/>
<stop offset="1" stop-color="#C31162"/>
</linearGradient>
<linearGradient id="paint4_linear" x1="20.5544" y1="47.1802" x2="25.7625" y2="38.2838" gradientUnits="userSpaceOnUse">
<stop stop-color="#32A071"/>
<stop offset="0.0685" stop-color="#2DA771"/>
<stop offset="0.4762" stop-color="#15CF74"/>
<stop offset="0.8009" stop-color="#06E775"/>
<stop offset="1" stop-color="#00F076"/>
</linearGradient>
</defs>
</svg>
