<svg className="icon" xmlns="http://www.w3.org/2000/svg" width="42" height="32" viewBox="4 0 32 32" fill="none" style="padding-right: 10px">
<g filter="url(#filter0_d_2977_12357)">
<path d="M6.86951 8.86973L6.62593 8.43308C6.4271 8.54399 6.3283 8.77523 6.3856 8.99557C6.4429 9.21592 6.64183 9.36973 6.86951 9.36973V8.86973ZM25.1304 8.86973V9.36973C25.3561 9.36973 25.5538 9.2185 25.6129 9.00065C25.672 8.78281 25.5778 8.55237 25.3831 8.43829L25.1304 8.86973ZM16.2226 3.65234L16.4753 3.2209C16.3225 3.13139 16.1337 3.12941 15.9791 3.21569L16.2226 3.65234ZM6.86951 9.36973H25.1304V8.36973H6.86951V9.36973ZM25.3831 8.43829L16.4753 3.2209L15.9699 4.08379L24.8777 9.30118L25.3831 8.43829ZM15.9791 3.21569L6.62593 8.43308L7.11308 9.30639L16.4662 4.089L15.9791 3.21569Z" fill="white"/>
<path d="M9.47839 8.87024V19.305" stroke="white"/>
<path d="M14.2609 8.87024V19.305" stroke="white"/>
<path d="M22.9564 8.87024V19.305" stroke="white"/>
<path d="M19 8.87012V19.3049" stroke="white"/>
<path d="M7 19L25 19" stroke="white" stroke-linecap="round"/>
</g>
<defs>
<filter id="filter0_d_2977_12357" x="0" y="0" width="32" height="32" filterUnits="userSpaceOnUse" color-interpolation-filters="sRGB">
<feFlood flood-opacity="0" result="BackgroundImageFix"/>
<feColorMatrix in="SourceAlpha" type="matrix" values="0 0 0 0 0 0 0 0 0 0 0 0 0 0 0 0 0 0 127 0" result="hardAlpha"/>
<feOffset dy="4"/>
<feGaussianBlur stdDeviation="2"/>
<feComposite in2="hardAlpha" operator="out"/>
<feColorMatrix type="matrix" values="0 0 0 0 0 0 0 0 0 0 0 0 0 0 0 0 0 0 0.25 0"/>
<feBlend mode="normal" in2="BackgroundImageFix" result="effect1_dropShadow_2977_12357"/>
<feBlend mode="normal" in="SourceGraphic" in2="effect1_dropShadow_2977_12357" result="shape"/>
</filter>
</defs>
</svg>