<svg width="66" height="32" viewBox="0 0 66 32" fill="none" xmlns="http://www.w3.org/2000/svg">
<path d="M7.728 1.6C7.98 1.6 8.106 1.726 8.106 1.978V30.664C8.106 30.888 7.98 31 7.728 31H1.008C0.756 31 0.63 30.888 0.63 30.664V1.978C0.63 1.726 0.756 1.6 1.008 1.6H7.728ZM25.3673 2.818C28.0273 3.994 30.1413 5.814 31.7093 8.278C33.3053 10.714 34.1033 13.402 34.1033 16.342C34.1033 19.226 33.3333 21.886 31.7933 24.322C30.3093 26.674 28.3353 28.452 25.8713 29.656C25.1993 29.992 24.6533 30.244 24.2333 30.412C23.8133 30.552 23.0993 30.706 22.0913 30.874C21.1113 31.014 19.9353 31.084 18.5633 31.084H9.78534C9.53334 31.084 9.40734 30.958 9.40734 30.706V2.02C9.40734 1.768 9.53334 1.642 9.78534 1.642H18.3533C21.2373 1.642 23.5753 2.034 25.3673 2.818ZM24.6533 21.928C25.9973 20.556 26.6693 18.694 26.6693 16.342C26.6693 15.278 26.5153 14.326 26.2073 13.486C25.8993 12.646 25.5073 11.96 25.0313 11.428C24.5833 10.868 24.0373 10.392 23.3933 10C22.7493 9.608 22.1193 9.314 21.5033 9.118C20.9153 8.922 20.2853 8.768 19.6133 8.656C18.9693 8.544 18.4513 8.474 18.0593 8.446C17.6673 8.418 17.2893 8.404 16.9253 8.404C16.7013 8.432 16.5893 8.558 16.5893 8.782V23.86C16.5893 24.112 16.7153 24.238 16.9673 24.238H17.3453C18.9133 24.238 20.3413 24.028 21.6293 23.608C22.9453 23.188 23.9533 22.628 24.6533 21.928ZM50.4902 0.801998C53.2062 0.801998 55.7262 1.502 58.0502 2.902C60.3742 4.274 62.2082 6.15 63.5522 8.53C64.8962 10.91 65.5682 13.5 65.5682 16.3C65.5682 19.072 64.8962 21.648 63.5522 24.028C62.2082 26.408 60.3742 28.298 58.0502 29.698C55.7262 31.07 53.1922 31.756 50.4482 31.756C47.7322 31.756 45.2122 31.07 42.8882 29.698C40.5642 28.298 38.7302 26.408 37.3862 24.028C36.0422 21.648 35.3702 19.058 35.3702 16.258C35.3702 14.186 35.7622 12.198 36.5462 10.294C37.3582 8.362 38.4362 6.71 39.7802 5.338C41.1242 3.966 42.7342 2.874 44.6102 2.062C46.4862 1.222 48.4462 0.801998 50.4902 0.801998ZM44.6102 22.264C46.2342 23.916 48.1802 24.742 50.4482 24.742C52.7442 24.742 54.7042 23.916 56.3282 22.264C57.9522 20.612 58.7642 18.624 58.7642 16.3C58.7642 13.948 57.9522 11.946 56.3282 10.294C54.7042 8.642 52.7442 7.816 50.4482 7.816C48.1802 7.816 46.2342 8.642 44.6102 10.294C43.0142 11.946 42.2162 13.948 42.2162 16.3C42.2162 18.624 43.0142 20.612 44.6102 22.264Z" fill="url(#paint0_linear_3695_11853)"/>
<defs>
<linearGradient id="paint0_linear_3695_11853" x1="75.3223" y1="-56.1326" x2="-10.4797" y2="-52.9387" gradientUnits="userSpaceOnUse">
<stop stop-color="#F3FC1F"/>
<stop offset="0.46875" stop-color="#F3FC1F"/>
<stop offset="1" stop-color="#00FF80"/>
</linearGradient>
</defs>
</svg>
