<?xml version="1.0" encoding="UTF-8"?>
<svg width="16px" height="16px" viewBox="0 0 16 16" version="1.1" xmlns="http://www.w3.org/2000/svg" xmlns:xlink="http://www.w3.org/1999/xlink">
    <title>icons8-us-dollar (2)</title>
    <g id="Page-1" stroke="none" stroke-width="1" fill="none" fill-rule="evenodd">
        <g id="home-page-copy-10" transform="translate(-56.000000, -221.000000)" fill="#393939" fill-rule="nonzero">
            <g id="icons8-us-dollar-(2)" transform="translate(56.000000, 221.000000)">
                <path d="M8,0 C3.6,0 0,3.6 0,8 C0,12.4 3.6,16 8,16 C12.4,16 16,12.4 16,8 C16,3.6 12.4,0 8,0 Z M8,1.33333333 C11.6666667,1.33333333 14.6666667,4.33333333 14.6666667,8 C14.6666667,11.6666667 11.6666667,14.6666667 8,14.6666667 C4.33333333,14.6666667 1.33333333,11.6666667 1.33333333,8 C1.33333333,4.33333333 4.33333333,1.33333333 8,1.33333333 Z M7.86718733,2.66666667 L7.86718733,3.86718747 C7.133854,3.93385413 6.59947913,4.2002604 6.13281253,4.6002604 C5.66614587,5.06692707 5.46614587,5.53385413 5.46614587,6.2005208 C5.4661458,6.86718733 5.66640627,7.39947933 6.06640627,7.79947933 C6.46640627,8.13281267 7.13333333,8.466146 8,8.79947933 C8.4,8.93281267 8.666146,9.133594 8.79947933,9.26692733 C8.93281267,9.40026067 9,9.66692733 9,9.933594 C9,10.2002607 8.93281267,10.4005207 8.79947933,10.533854 C8.666146,10.6671873 8.466146,10.7330727 8.13281267,10.7330727 C7.73281267,10.7330727 7.46692733,10.666146 7.26692733,10.466146 C7.06692733,10.266146 6.933594,9.933854 6.933594,9.533854 L5.06640627,9.533854 L5.06640627,9.60026067 C5.06640627,10.4669273 5.33281247,11.066146 5.7994792,11.466146 C6.26614587,11.866146 6.93333333,12.133854 7.66666667,12.2005207 L7.66666667,13.3333333 L8.533854,13.3333333 L8.533854,12.2669273 C9.26718733,12.2002607 9.86692733,12.0002607 10.2669273,11.6002607 C10.6669273,11.2002607 10.8671873,10.6666667 10.8671873,10 C10.8671873,9.26666667 10.6005207,8.73333333 10.2005207,8.33333333 C9.80052067,7.93333333 9.133594,7.6 8.26692733,7.33333333 C7.86692733,7.13333333 7.59947933,6.93281267 7.466146,6.79947933 C7.33281267,6.6661458 7.26692733,6.46718753 7.26692733,6.2005208 C7.26692733,5.93385413 7.33281267,5.7338542 7.466146,5.53385413 C7.59947933,5.3338542 7.79947933,5.26692707 8.13281267,5.26692707 C8.39947933,5.26692707 8.59947933,5.40052087 8.79947933,5.53385413 C8.99947933,5.66718747 9.06640627,5.93333333 9.06640627,6.33333333 L10.933594,6.33333333 C10.933594,5.66666667 10.7333333,5.13333333 10.3333333,4.66666667 C9.93333333,4.2 9.33333333,3.93385413 8.66666667,3.86718747 L8.66666667,2.66666667 L7.86718733,2.66666667 Z" id="Shape"></path>
            </g>
        </g>
    </g>
</svg>