<svg xmlns="http://www.w3.org/2000/svg" width="20" height="20" viewBox="0 0 24 24" fill="none">
  <path
    classname="icon"
    fill-rule="evenodd"
    clip-rule="evenodd"
    d="M8.11105 19.3069C9.26219 20.0761 10.6156 20.4866 12 20.4866C13.3845 20.4866 14.7378 20.0761 15.889 19.3069C17.0401 18.5377 17.9373 17.4445 18.4671 16.1655C18.997 14.8864 19.1356 13.4789 18.8655 12.1211C18.5955 10.7632 17.9288 9.51596 16.9499 8.53698L16.9499 8.53697L12.7069 4.29399L12.7065 4.29363C12.6139 4.20085 12.5038 4.12725 12.3827 4.07704C12.2615 4.02682 12.1317 4.00098 12.0005 4.00098C11.8694 4.00098 11.7395 4.02682 11.6184 4.07704C11.4972 4.12725 11.3871 4.20085 11.2945 4.29363L11.294 4.29407L7.05013 8.53697L7.05003 8.53707C6.07115 9.51604 5.40454 10.7633 5.13448 12.1211C4.86441 13.4789 5.00306 14.8864 5.53288 16.1655C6.06271 17.4445 6.95991 18.5377 8.11105 19.3069ZM18.3641 7.12279L17.657 7.82988L18.3641 7.12277L14.1215 2.88012L14.1211 2.87977C13.8428 2.60123 13.5123 2.38026 13.1485 2.22947C12.7845 2.07862 12.3945 2.00098 12.0005 2.00098C11.6066 2.00098 11.2165 2.07862 10.8525 2.22947C10.4886 2.38032 10.158 2.60142 9.87955 2.88012L5.63598 7.12269L5.63588 7.12279C4.37725 8.38148 3.52013 9.98513 3.1729 11.7309C2.82567 13.4768 3.00393 15.2863 3.68513 16.9308C4.36633 18.5754 5.51989 19.9809 6.99992 20.9698C8.47995 21.9588 10.22 22.4866 12 22.4866C13.78 22.4866 15.5201 21.9588 17.0001 20.9698C18.4801 19.9809 19.6337 18.5754 20.3149 16.9308C20.9961 15.2863 21.1743 13.4768 20.8271 11.7309C20.4799 9.98513 19.6228 8.38148 18.3641 7.12279ZM9 12C9.55228 12 10 11.5523 10 11C10 10.4477 9.55228 10 9 10C8.44772 10 8 10.4477 8 11C8 11.5523 8.44772 12 9 12ZM15.2071 10.2929C15.5976 10.6834 15.5976 11.3166 15.2071 11.7071L10.2071 16.7071C9.81658 17.0976 9.18342 17.0976 8.79289 16.7071C8.40237 16.3166 8.40237 15.6834 8.79289 15.2929L13.7929 10.2929C14.1834 9.90237 14.8166 9.90237 15.2071 10.2929ZM15 17.0003C15.5523 17.0003 16 16.5525 16 16.0003C16 15.448 15.5523 15.0003 15 15.0003C14.4477 15.0003 14 15.448 14 16.0003C14 16.5525 14.4477 17.0003 15 17.0003Z"
    fill="#B5B9D3"
  />
</svg>
