<svg width="166" height="31" viewBox="0 0 166 31" fill="none" xmlns="http://www.w3.org/2000/svg">
<path d="M18.9 2.742C19.992 3.666 20.832 4.814 21.42 6.186C22.008 7.53 22.302 8.986 22.302 10.554C22.302 12.094 22.022 13.578 21.462 15.006C20.902 16.406 20.174 17.498 19.278 18.282C18.578 18.898 17.892 19.374 17.22 19.71C16.576 20.046 15.722 20.326 14.658 20.55C13.622 20.746 12.362 20.844 10.878 20.844H8.484C8.232 20.844 8.106 20.97 8.106 21.222V29.664C8.106 29.888 7.994 30 7.77 30H0.966C0.742 30 0.63 29.888 0.63 29.664V0.935999C0.63 0.711998 0.742 0.599998 0.966 0.599998H10.08C11.088 0.599998 11.998 0.641998 12.81 0.725999C13.65 0.781998 14.364 0.865998 14.952 0.977998C15.568 1.09 16.128 1.244 16.632 1.44C17.136 1.608 17.556 1.804 17.892 2.028C18.228 2.224 18.564 2.462 18.9 2.742ZM13.44 13.662C14.56 13.158 15.12 12.164 15.12 10.68C15.12 9.252 14.546 8.286 13.398 7.782C12.726 7.502 11.732 7.362 10.416 7.362H8.484C8.232 7.362 8.106 7.474 8.106 7.698V13.704C8.106 13.956 8.232 14.082 8.484 14.082H10.668C11.9 14.082 12.824 13.942 13.44 13.662ZM35.6948 7.74C35.9468 7.74 36.0728 7.866 36.0728 8.118L35.8628 13.326C35.8348 13.578 35.6948 13.69 35.4428 13.662C34.2948 13.55 33.4548 13.564 32.9228 13.704C32.2508 13.872 31.7888 14.236 31.5368 14.796C31.2848 15.3 31.1588 16.07 31.1588 17.106V29.664C31.1588 29.888 31.0468 30 30.8228 30H24.1448C23.9208 30 23.8088 29.888 23.8088 29.664V8.076C23.8088 7.852 23.9208 7.74 24.1448 7.74H30.4028C30.6268 7.74 30.7388 7.852 30.7388 8.076V8.706C30.7388 8.79 30.7668 8.846 30.8228 8.874C30.8788 8.902 30.9348 8.902 30.9908 8.874C32.1668 8.146 33.7348 7.768 35.6948 7.74ZM58.7993 15.762C59.1353 16.826 59.3033 17.918 59.3033 19.038C59.3033 19.682 59.2333 20.368 59.0933 21.096C59.0653 21.292 58.9533 21.39 58.7573 21.39H43.1753C43.0353 21.39 42.9233 21.46 42.8393 21.6C42.7833 21.712 42.7833 21.824 42.8393 21.936C43.3433 22.748 44.0013 23.392 44.8133 23.868C45.6253 24.344 46.4933 24.582 47.4173 24.582C49.1253 24.582 50.5253 23.896 51.6173 22.524C51.7013 22.384 51.8133 22.328 51.9533 22.356L57.9173 23.448C58.0293 23.476 58.1133 23.546 58.1693 23.658C58.2253 23.742 58.2253 23.84 58.1693 23.952C58.0013 24.344 57.8753 24.61 57.7913 24.75L57.7073 24.918C57.5953 25.058 57.4833 25.212 57.3713 25.38C57.2593 25.604 57.1333 25.8 56.9933 25.968L56.9093 26.052C56.8533 26.108 56.8113 26.164 56.7833 26.22L56.7413 26.304C56.6573 26.388 56.5733 26.486 56.4893 26.598L56.4053 26.682C56.2653 26.822 56.1253 26.962 55.9853 27.102L55.9013 27.186C55.8173 27.298 55.7333 27.396 55.6493 27.48H55.6073C55.4953 27.592 55.3833 27.69 55.2713 27.774L55.1873 27.9L55.0193 27.774L55.1453 27.9C54.9773 28.04 54.8233 28.166 54.6833 28.278L54.5573 28.404C54.3613 28.516 54.1653 28.642 53.9693 28.782L53.9273 28.824C53.7033 28.964 53.4793 29.09 53.2553 29.202L53.1713 29.244C53.1153 29.272 53.0733 29.3 53.0453 29.328L53.0033 29.37C52.8913 29.398 52.7933 29.44 52.7093 29.496L52.6673 29.538C52.4433 29.622 52.2333 29.706 52.0373 29.79L51.9953 29.832C51.8553 29.888 51.7293 29.93 51.6173 29.958L51.4913 30C51.3233 30.056 51.1693 30.112 51.0293 30.168C50.8613 30.224 50.6793 30.266 50.4833 30.294L50.3573 30.336C50.0213 30.42 49.6853 30.49 49.3493 30.546L49.2233 30.588C48.8593 30.616 48.5093 30.644 48.1733 30.672H48.0053C47.8093 30.7 47.6273 30.714 47.4593 30.714C47.2913 30.714 47.1093 30.7 46.9133 30.672C46.8573 30.672 46.8293 30.672 46.8293 30.672H46.7873C46.6473 30.672 46.5073 30.658 46.3673 30.63H46.3253C46.2973 30.63 46.2553 30.63 46.1993 30.63C46.0033 30.602 45.8353 30.574 45.6953 30.546H45.5693C45.4293 30.518 45.2893 30.49 45.1493 30.462L44.9813 30.42C44.8693 30.392 44.7433 30.364 44.6033 30.336H44.5613C44.5333 30.336 44.5053 30.322 44.4773 30.294C44.2813 30.266 44.1133 30.224 43.9733 30.168C43.8333 30.14 43.6653 30.084 43.4693 30C43.4133 30 43.3713 29.986 43.3433 29.958C43.2033 29.902 43.0773 29.86 42.9653 29.832L42.9233 29.79C42.8953 29.79 42.8673 29.776 42.8393 29.748C42.6713 29.692 42.5033 29.622 42.3353 29.538C42.2233 29.482 42.0693 29.412 41.8733 29.328C41.8733 29.3 41.8453 29.272 41.7893 29.244H41.7473C41.6353 29.188 41.5233 29.132 41.4113 29.076L41.2853 28.992C41.1453 28.88 41.0053 28.782 40.8653 28.698C39.4373 27.746 38.2753 26.542 37.3793 25.086C37.2953 24.974 37.2253 24.848 37.1693 24.708L37.1273 24.666C37.0713 24.582 37.0013 24.456 36.9173 24.288V24.246C36.8893 24.218 36.8613 24.176 36.8333 24.12C36.6093 23.672 36.4133 23.196 36.2453 22.692C36.1613 22.412 36.0913 22.16 36.0353 21.936C35.9793 21.768 35.9373 21.586 35.9093 21.39C35.7693 20.802 35.6853 20.214 35.6573 19.626C35.6573 19.43 35.6573 19.234 35.6573 19.038C35.6573 18.842 35.6573 18.646 35.6573 18.45C35.7133 17.414 35.9093 16.392 36.2453 15.384C36.3573 15.076 36.4693 14.782 36.5813 14.502C36.6373 14.362 36.7073 14.208 36.7913 14.04C36.8193 14.012 36.8333 13.97 36.8333 13.914L36.9173 13.83C36.9173 13.802 36.9313 13.774 36.9593 13.746C36.9593 13.69 36.9733 13.648 37.0013 13.62L37.1273 13.452C37.2113 13.284 37.2953 13.13 37.3793 12.99C38.2753 11.534 39.4373 10.33 40.8653 9.378C41.0053 9.294 41.1453 9.196 41.2853 9.084L41.4113 9.042C41.5233 8.958 41.6353 8.888 41.7473 8.832H41.7893C41.7893 8.832 41.8033 8.832 41.8313 8.832C41.8593 8.804 41.8873 8.776 41.9153 8.748C42.0833 8.664 42.2233 8.594 42.3353 8.538C42.5033 8.454 42.6713 8.384 42.8393 8.328C42.8393 8.328 42.8533 8.328 42.8813 8.328C42.9093 8.3 42.9233 8.286 42.9233 8.286L42.9653 8.244C43.0773 8.216 43.2033 8.174 43.3433 8.118C43.3993 8.09 43.4413 8.076 43.4693 8.076C43.6653 8.02 43.8333 7.964 43.9733 7.908C44.1133 7.852 44.2813 7.81 44.4773 7.782C44.4773 7.754 44.4913 7.74 44.5193 7.74C44.5473 7.74 44.5613 7.74 44.5613 7.74H44.6033C44.7153 7.712 44.8413 7.684 44.9813 7.656L45.1073 7.614C45.2753 7.586 45.4573 7.558 45.6533 7.53H45.6953C45.8353 7.502 46.0033 7.474 46.1993 7.446C46.2273 7.446 46.2553 7.446 46.2833 7.446C46.3113 7.446 46.3253 7.446 46.3253 7.446H46.3673C46.5073 7.418 46.6473 7.404 46.7873 7.404C46.8153 7.404 46.8433 7.404 46.8713 7.404C46.8993 7.404 46.9133 7.404 46.9133 7.404C47.1093 7.404 47.2913 7.404 47.4593 7.404C47.6273 7.404 47.8093 7.404 48.0053 7.404H48.1313C48.4953 7.432 48.8593 7.474 49.2233 7.53H49.3493C49.6853 7.586 50.0213 7.656 50.3573 7.74L50.4833 7.782C50.6793 7.81 50.8613 7.852 51.0293 7.908C51.1693 7.964 51.3233 8.02 51.4913 8.076C51.5193 8.076 51.5613 8.09 51.6173 8.118C51.7293 8.174 51.8553 8.216 51.9953 8.244L52.0373 8.286C52.2333 8.37 52.4293 8.454 52.6253 8.538L52.7093 8.58C52.7653 8.608 52.8493 8.65 52.9613 8.706L53.0033 8.748L52.9193 8.916L53.0453 8.748C53.1013 8.776 53.1433 8.804 53.1713 8.832C53.4233 8.972 53.6753 9.112 53.9273 9.252V9.294C54.1233 9.406 54.3193 9.532 54.5153 9.672L54.5573 9.714C54.5853 9.742 54.6273 9.77 54.6833 9.798C54.8233 9.91 54.9773 10.036 55.1453 10.176L55.2293 10.26C55.3693 10.372 55.4953 10.484 55.6073 10.596H55.6493C55.7333 10.708 55.8173 10.806 55.9013 10.89L55.9853 10.974C56.1253 11.114 56.2653 11.254 56.4053 11.394L56.2793 11.52L56.4053 11.436L56.4893 11.478C56.5453 11.562 56.6153 11.66 56.6993 11.772L56.7833 11.856C56.8953 11.968 56.9793 12.08 57.0353 12.192L57.0773 12.234C57.1333 12.318 57.2033 12.416 57.2873 12.528L57.4133 12.696C57.4693 12.808 57.5253 12.892 57.5813 12.948L57.7913 13.326C58.2113 14.11 58.5473 14.922 58.7993 15.762ZM51.9953 16.518C52.1073 16.518 52.1913 16.476 52.2473 16.392C52.3313 16.308 52.3593 16.21 52.3313 16.098C52.1913 15.258 51.6873 14.558 50.8193 13.998C49.9513 13.438 48.9293 13.158 47.7533 13.158C47.0253 13.158 46.3253 13.284 45.6533 13.536C44.9813 13.788 44.4213 14.138 43.9733 14.586C43.5253 15.034 43.2593 15.538 43.1753 16.098C43.1473 16.182 43.1613 16.28 43.2173 16.392C43.3013 16.476 43.3993 16.518 43.5113 16.518H51.9953ZM77.2131 11.772C77.4371 11.772 77.5491 11.884 77.5491 12.108V18.702C77.5491 18.954 77.4371 19.08 77.2131 19.08H67.3851C67.1611 19.08 67.0491 18.954 67.0491 18.702V12.108C67.0491 11.884 67.1611 11.772 67.3851 11.772H77.2131ZM98.7673 12.612C101.203 13.732 102.939 14.95 103.975 16.266C105.011 17.554 105.529 19.164 105.529 21.096C105.529 23.392 104.983 25.324 103.891 26.892C102.239 29.328 99.4253 30.546 95.4493 30.546C92.1733 30.546 89.6393 29.706 87.8473 28.026C87.3433 27.55 86.8533 26.934 86.3773 26.178C85.9293 25.422 85.5793 24.526 85.3273 23.49C85.2713 23.238 85.3693 23.084 85.6213 23.028L92.2993 21.642C92.5233 21.586 92.6633 21.67 92.7193 21.894C92.8593 22.37 93.0553 22.776 93.3073 23.112C93.5873 23.448 93.8673 23.686 94.1473 23.826C94.4553 23.938 94.6933 24.022 94.8613 24.078C95.0573 24.106 95.2393 24.12 95.4073 24.12C95.9113 24.12 96.3733 23.98 96.7933 23.7C97.2133 23.42 97.5213 23.084 97.7173 22.692C97.9413 22.272 98.0533 21.838 98.0533 21.39C98.0533 20.746 97.7453 20.228 97.1293 19.836C96.5133 19.416 95.0993 18.716 92.8873 17.736L92.5093 17.61C91.9213 17.358 91.4173 17.134 90.9973 16.938C90.6053 16.742 90.0173 16.392 89.2333 15.888C88.4773 15.384 87.8613 14.852 87.3853 14.292C86.9093 13.732 86.4753 13.004 86.0833 12.108C85.6913 11.184 85.4953 10.19 85.4953 9.126C85.4953 7.25 85.9993 5.612 87.0073 4.212C88.0433 2.784 89.3033 1.734 90.7873 1.062C92.2993 0.389998 93.8953 0.0539975 95.5753 0.0539975C97.1433 0.0539975 98.6133 0.333998 99.9853 0.893999C100.377 1.062 100.755 1.272 101.119 1.524C101.511 1.748 101.945 2.07 102.421 2.49C102.925 2.882 103.345 3.386 103.681 4.002C104.045 4.618 104.283 5.304 104.395 6.06C104.451 6.256 104.367 6.382 104.143 6.438L97.9273 7.992C97.7313 8.048 97.5913 7.992 97.5073 7.824C97.1433 6.928 96.4293 6.48 95.3653 6.48C94.7213 6.48 94.1473 6.69 93.6433 7.11C93.1673 7.502 92.9293 8.02 92.9293 8.664C92.9293 9.28 93.2373 9.798 93.8533 10.218C94.4693 10.61 96.1073 11.408 98.7673 12.612ZM131.306 7.74C131.558 7.74 131.684 7.852 131.684 8.076V29.622C131.684 29.874 131.558 30 131.306 30H125.09C124.838 30 124.712 29.874 124.712 29.622V29.286C124.712 29.23 124.684 29.188 124.628 29.16C124.572 29.132 124.516 29.132 124.46 29.16C122.64 30.168 120.68 30.672 118.58 30.672C115.332 30.672 112.546 29.538 110.222 27.27C107.926 25.002 106.778 22.258 106.778 19.038C106.778 15.818 107.926 13.074 110.222 10.806C112.546 8.51 115.332 7.362 118.58 7.362C120.68 7.362 122.64 7.88 124.46 8.916C124.516 8.944 124.572 8.944 124.628 8.916C124.684 8.888 124.712 8.832 124.712 8.748V8.076C124.712 7.852 124.838 7.74 125.09 7.74H131.306ZM119.672 24.372C121.128 24.372 122.332 23.854 123.284 22.818C124.236 21.782 124.712 20.522 124.712 19.038C124.712 17.526 124.236 16.266 123.284 15.258C122.332 14.222 121.128 13.704 119.672 13.704C118.16 13.704 116.872 14.222 115.808 15.258C114.772 16.294 114.254 17.554 114.254 19.038C114.254 20.494 114.772 21.754 115.808 22.818C116.872 23.854 118.16 24.372 119.672 24.372ZM140.086 0.725999C140.338 0.725999 140.464 0.837999 140.464 1.062V29.664C140.464 29.888 140.338 30 140.086 30H133.492C133.268 30 133.156 29.888 133.156 29.664V1.062C133.156 0.837999 133.268 0.725999 133.492 0.725999H140.086ZM165.071 15.762C165.407 16.826 165.575 17.918 165.575 19.038C165.575 19.682 165.505 20.368 165.365 21.096C165.337 21.292 165.225 21.39 165.029 21.39H149.447C149.307 21.39 149.195 21.46 149.111 21.6C149.055 21.712 149.055 21.824 149.111 21.936C149.615 22.748 150.273 23.392 151.085 23.868C151.897 24.344 152.765 24.582 153.689 24.582C155.397 24.582 156.797 23.896 157.889 22.524C157.973 22.384 158.085 22.328 158.225 22.356L164.189 23.448C164.301 23.476 164.385 23.546 164.441 23.658C164.497 23.742 164.497 23.84 164.441 23.952C164.273 24.344 164.147 24.61 164.063 24.75L163.979 24.918C163.867 25.058 163.755 25.212 163.643 25.38C163.531 25.604 163.405 25.8 163.265 25.968L163.181 26.052C163.125 26.108 163.083 26.164 163.055 26.22L163.013 26.304C162.929 26.388 162.845 26.486 162.761 26.598L162.677 26.682C162.537 26.822 162.397 26.962 162.257 27.102L162.173 27.186C162.089 27.298 162.005 27.396 161.921 27.48H161.879C161.767 27.592 161.655 27.69 161.543 27.774L161.459 27.9L161.291 27.774L161.417 27.9C161.249 28.04 161.095 28.166 160.955 28.278L160.829 28.404C160.633 28.516 160.437 28.642 160.241 28.782L160.199 28.824C159.975 28.964 159.751 29.09 159.527 29.202L159.443 29.244C159.387 29.272 159.345 29.3 159.317 29.328L159.275 29.37C159.163 29.398 159.065 29.44 158.981 29.496L158.939 29.538C158.715 29.622 158.505 29.706 158.309 29.79L158.267 29.832C158.127 29.888 158.001 29.93 157.889 29.958L157.763 30C157.595 30.056 157.441 30.112 157.301 30.168C157.133 30.224 156.951 30.266 156.755 30.294L156.629 30.336C156.293 30.42 155.957 30.49 155.621 30.546L155.495 30.588C155.131 30.616 154.781 30.644 154.445 30.672H154.277C154.081 30.7 153.899 30.714 153.731 30.714C153.563 30.714 153.381 30.7 153.185 30.672C153.129 30.672 153.101 30.672 153.101 30.672H153.059C152.919 30.672 152.779 30.658 152.639 30.63H152.597C152.569 30.63 152.527 30.63 152.471 30.63C152.275 30.602 152.107 30.574 151.967 30.546H151.841C151.701 30.518 151.561 30.49 151.421 30.462L151.253 30.42C151.141 30.392 151.015 30.364 150.875 30.336H150.833C150.805 30.336 150.777 30.322 150.749 30.294C150.553 30.266 150.385 30.224 150.245 30.168C150.105 30.14 149.937 30.084 149.741 30C149.685 30 149.643 29.986 149.615 29.958C149.475 29.902 149.349 29.86 149.237 29.832L149.195 29.79C149.167 29.79 149.139 29.776 149.111 29.748C148.943 29.692 148.775 29.622 148.607 29.538C148.495 29.482 148.341 29.412 148.145 29.328C148.145 29.3 148.117 29.272 148.061 29.244H148.019C147.907 29.188 147.795 29.132 147.683 29.076L147.557 28.992C147.417 28.88 147.277 28.782 147.137 28.698C145.709 27.746 144.547 26.542 143.651 25.086C143.567 24.974 143.497 24.848 143.441 24.708L143.399 24.666C143.343 24.582 143.273 24.456 143.189 24.288V24.246C143.161 24.218 143.133 24.176 143.105 24.12C142.881 23.672 142.685 23.196 142.517 22.692C142.433 22.412 142.363 22.16 142.307 21.936C142.251 21.768 142.209 21.586 142.181 21.39C142.041 20.802 141.957 20.214 141.929 19.626C141.929 19.43 141.929 19.234 141.929 19.038C141.929 18.842 141.929 18.646 141.929 18.45C141.985 17.414 142.181 16.392 142.517 15.384C142.629 15.076 142.741 14.782 142.853 14.502C142.909 14.362 142.979 14.208 143.063 14.04C143.091 14.012 143.105 13.97 143.105 13.914L143.189 13.83C143.189 13.802 143.203 13.774 143.231 13.746C143.231 13.69 143.245 13.648 143.273 13.62L143.399 13.452C143.483 13.284 143.567 13.13 143.651 12.99C144.547 11.534 145.709 10.33 147.137 9.378C147.277 9.294 147.417 9.196 147.557 9.084L147.683 9.042C147.795 8.958 147.907 8.888 148.019 8.832H148.061C148.061 8.832 148.075 8.832 148.103 8.832C148.131 8.804 148.159 8.776 148.187 8.748C148.355 8.664 148.495 8.594 148.607 8.538C148.775 8.454 148.943 8.384 149.111 8.328C149.111 8.328 149.125 8.328 149.153 8.328C149.181 8.3 149.195 8.286 149.195 8.286L149.237 8.244C149.349 8.216 149.475 8.174 149.615 8.118C149.671 8.09 149.713 8.076 149.741 8.076C149.937 8.02 150.105 7.964 150.245 7.908C150.385 7.852 150.553 7.81 150.749 7.782C150.749 7.754 150.763 7.74 150.791 7.74C150.819 7.74 150.833 7.74 150.833 7.74H150.875C150.987 7.712 151.113 7.684 151.253 7.656L151.379 7.614C151.547 7.586 151.729 7.558 151.925 7.53H151.967C152.107 7.502 152.275 7.474 152.471 7.446C152.499 7.446 152.527 7.446 152.555 7.446C152.583 7.446 152.597 7.446 152.597 7.446H152.639C152.779 7.418 152.919 7.404 153.059 7.404C153.087 7.404 153.115 7.404 153.143 7.404C153.171 7.404 153.185 7.404 153.185 7.404C153.381 7.404 153.563 7.404 153.731 7.404C153.899 7.404 154.081 7.404 154.277 7.404H154.403C154.767 7.432 155.131 7.474 155.495 7.53H155.621C155.957 7.586 156.293 7.656 156.629 7.74L156.755 7.782C156.951 7.81 157.133 7.852 157.301 7.908C157.441 7.964 157.595 8.02 157.763 8.076C157.791 8.076 157.833 8.09 157.889 8.118C158.001 8.174 158.127 8.216 158.267 8.244L158.309 8.286C158.505 8.37 158.701 8.454 158.897 8.538L158.981 8.58C159.037 8.608 159.121 8.65 159.233 8.706L159.275 8.748L159.191 8.916L159.317 8.748C159.373 8.776 159.415 8.804 159.443 8.832C159.695 8.972 159.947 9.112 160.199 9.252V9.294C160.395 9.406 160.591 9.532 160.787 9.672L160.829 9.714C160.857 9.742 160.899 9.77 160.955 9.798C161.095 9.91 161.249 10.036 161.417 10.176L161.501 10.26C161.641 10.372 161.767 10.484 161.879 10.596H161.921C162.005 10.708 162.089 10.806 162.173 10.89L162.257 10.974C162.397 11.114 162.537 11.254 162.677 11.394L162.551 11.52L162.677 11.436L162.761 11.478C162.817 11.562 162.887 11.66 162.971 11.772L163.055 11.856C163.167 11.968 163.251 12.08 163.307 12.192L163.349 12.234C163.405 12.318 163.475 12.416 163.559 12.528L163.685 12.696C163.741 12.808 163.797 12.892 163.853 12.948L164.063 13.326C164.483 14.11 164.819 14.922 165.071 15.762ZM158.267 16.518C158.379 16.518 158.463 16.476 158.519 16.392C158.603 16.308 158.631 16.21 158.603 16.098C158.463 15.258 157.959 14.558 157.091 13.998C156.223 13.438 155.201 13.158 154.025 13.158C153.297 13.158 152.597 13.284 151.925 13.536C151.253 13.788 150.693 14.138 150.245 14.586C149.797 15.034 149.531 15.538 149.447 16.098C149.419 16.182 149.433 16.28 149.489 16.392C149.573 16.476 149.671 16.518 149.783 16.518H158.267Z" fill="url(#paint0_linear_3695_11667)"/>
<defs>
<linearGradient id="paint0_linear_3695_11667" x1="187.744" y1="-57.1326" x2="-24.5896" y2="-37.4318" gradientUnits="userSpaceOnUse">
<stop stop-color="#F3FC1F"/>
<stop offset="0.46875" stop-color="#F3FC1F"/>
<stop offset="1" stop-color="#00FF80"/>
</linearGradient>
</defs>
</svg>
