<svg width="20" height="21" viewBox="0 0 20 21" fill="none" xmlns="http://www.w3.org/2000/svg">
<circle cx="10" cy="11" r="9.25" stroke="white" stroke-width="1.5"/>
<path d="M16.7739 0.0376103L6.73168 9.49793C6.71626 9.51246 6.70399 9.53003 6.69564 9.54955C6.68729 9.56907 6.68305 9.59011 6.68318 9.61135C6.68331 9.6326 6.68781 9.65359 6.69639 9.673C6.70498 9.69242 6.71746 9.70984 6.73306 9.72417L9.25481 12.0412L3.02633 20.7863C2.93587 20.9133 3.09793 21.067 3.21874 20.9688L14.0889 12.1357C14.1065 12.1214 14.1207 12.1034 14.1306 12.0829C14.1404 12.0624 14.1456 12.04 14.1458 12.0172C14.146 11.9945 14.1412 11.972 14.1318 11.9513C14.1223 11.9307 14.1084 11.9124 14.091 11.8978L11.3051 9.54648L16.9791 0.205284C17.0602 0.0724397 16.8874 -0.0693435 16.7739 0.0376103Z" fill="white"/>
</svg>
