<?xml version="1.0" encoding="UTF-8"?>
<svg width="14px" height="12px" viewBox="0 0 14 12" version="1.1" xmlns="http://www.w3.org/2000/svg" xmlns:xlink="http://www.w3.org/1999/xlink">
    <title>icons8-swap</title>
    <g id="Page-1" stroke="none" stroke-width="1" fill="none" fill-rule="evenodd">
        <g id="home-page-copy-10" transform="translate(-57.000000, -144.000000)" fill="#393939" fill-rule="nonzero">
            <g id="icons8-swap" transform="translate(57.500000, 144.000000)">
                <path d="M2.5866242,0 L0.5,2.66666667 L1.93439491,2.66666667 L1.93439491,8.66666667 C1.93439491,10.131556 3.11014654,11.3333333 4.54331207,11.3333333 C5.97647766,11.3333333 7.15222922,10.131556 7.15222922,8.66666667 L7.15222922,3.33333333 C7.15222922,2.58888927 7.72836553,2 8.4566878,2 C9.18501007,2 9.76114638,2.58888927 9.76114638,3.33333333 L9.76114638,9.33333333 L8.32675133,9.33333333 L10.4133757,12 L12.5,9.33333333 L11.065605,9.33333333 L11.065605,3.33333333 C11.065605,1.86844407 9.88985339,0.666666667 8.4566878,0.666666667 C7.02352221,0.666666667 5.84777065,1.86844407 5.84777065,3.33333333 L5.84777065,8.66666667 C5.84777065,9.41111067 5.27163434,10 4.54331207,10 C3.81498973,10 3.23885349,9.41111067 3.23885349,8.66666667 L3.23885349,2.66666667 L4.6732484,2.66666667 L2.5866242,0 Z" id="Path"></path>
            </g>
        </g>
    </g>
</svg>