<svg width="240" height="211" viewBox="0 0 240 211" fill="none" xmlns="http://www.w3.org/2000/svg">
<path d="M0.719105 153H4.67259V152.15H1.70668V146.455H0.719105V153ZM5.72248 153H6.67809V148.091H5.72248V153ZM6.20508 147.333C6.53427 147.333 6.80913 147.078 6.80913 146.765C6.80913 146.451 6.53427 146.192 6.20508 146.192C5.87269 146.192 5.60103 146.451 5.60103 146.765C5.60103 147.078 5.87269 147.333 6.20508 147.333ZM12.2336 154.841V148.091H11.3003V148.887H11.2204C11.051 148.583 10.7219 148.027 9.81099 148.027C8.62527 148.027 7.74956 148.963 7.74956 150.555C7.74956 152.143 8.61248 153.096 9.8014 153.096C10.6963 153.096 11.0479 152.549 11.2204 152.236H11.278V154.841H12.2336ZM11.2971 150.545C11.2971 151.578 10.8369 152.281 10.0155 152.281C9.1622 152.281 8.71475 151.53 8.71475 150.545C8.71475 149.571 9.14941 148.839 10.0155 148.839C10.8497 148.839 11.2971 149.52 11.2971 150.545ZM16.6281 150.964C16.6313 151.798 16.0113 152.195 15.4743 152.195C14.8831 152.195 14.474 151.766 14.474 151.098V148.091H13.5184V151.213C13.5184 152.431 14.1863 153.064 15.1292 153.064C15.8675 153.064 16.3692 152.674 16.5961 152.15H16.6473V153H17.5869V148.091H16.6281V150.964ZM18.8709 153H19.8265V148.091H18.8709V153ZM19.3535 147.333C19.6827 147.333 19.9576 147.078 19.9576 146.765C19.9576 146.451 19.6827 146.192 19.3535 146.192C19.0211 146.192 18.7495 146.451 18.7495 146.765C18.7495 147.078 19.0211 147.333 19.3535 147.333ZM22.9498 153.096C23.8447 153.096 24.1963 152.549 24.3689 152.236H24.4488V153H25.382V146.455H24.4264V148.887H24.3689C24.1963 148.583 23.8703 148.027 22.9562 148.027C21.7705 148.027 20.898 148.963 20.898 150.555C20.898 152.143 21.7577 153.096 22.9498 153.096ZM23.1608 152.281C22.3074 152.281 21.8632 151.53 21.8632 150.545C21.8632 149.571 22.2979 148.839 23.1608 148.839C23.9949 148.839 24.4424 149.52 24.4424 150.545C24.4424 151.578 23.9854 152.281 23.1608 152.281ZM26.7459 153H27.7015V148.091H26.7459V153ZM27.2285 147.333C27.5577 147.333 27.8326 147.078 27.8326 146.765C27.8326 146.451 27.5577 146.192 27.2285 146.192C26.8961 146.192 26.6245 146.451 26.6245 146.765C26.6245 147.078 26.8961 147.333 27.2285 147.333ZM31.2787 148.091H30.2719V146.915H29.3163V148.091H28.5972V148.858H29.3163V151.757C29.3131 152.648 29.9939 153.08 30.7481 153.064C31.0518 153.061 31.2563 153.003 31.3682 152.962L31.1956 152.172C31.1317 152.185 31.0134 152.214 30.86 152.214C30.55 152.214 30.2719 152.112 30.2719 151.559V148.858H31.2787V148.091ZM32.9398 154.841C33.7292 154.841 34.2278 154.429 34.5123 153.655L36.5417 148.1L35.5094 148.091L34.2662 151.901H34.215L32.9718 148.091H31.949L33.7452 153.064L33.627 153.39C33.3841 154.042 33.0421 154.096 32.5179 153.952L32.2878 154.735C32.4029 154.787 32.6522 154.841 32.9398 154.841ZM42.7164 149.82H39.8145V150.648H42.7164V149.82ZM48.5196 153.089C49.8364 153.089 50.776 152.159 50.7728 150.884C50.776 149.619 49.8939 148.698 48.7018 148.698C48.216 148.698 47.7654 148.884 47.5097 149.133H47.4713L47.6791 147.301H50.4564V146.455H46.8577L46.4901 149.753L47.3946 149.887C47.6407 149.667 48.0818 149.516 48.4781 149.516C49.2547 149.523 49.8172 150.104 49.8172 150.903C49.8172 151.69 49.2707 152.259 48.5196 152.259C47.8868 152.259 47.385 151.856 47.3339 151.293H46.3751C46.4134 152.335 47.3179 153.089 48.5196 153.089ZM54.2189 153.109C55.7306 153.109 56.6159 151.875 56.6159 149.73C56.6159 147.602 55.7179 146.365 54.2189 146.365C52.7168 146.365 51.8219 147.599 51.8187 149.73C51.8187 151.872 52.704 153.105 54.2189 153.109ZM54.2189 152.255C53.3336 152.255 52.7999 151.367 52.7999 149.73C52.8031 148.1 53.3368 147.202 54.2189 147.202C55.0978 147.202 55.6348 148.1 55.6348 149.73C55.6348 151.367 55.101 152.255 54.2189 152.255ZM61.1663 151.773C61.1695 152.511 61.6329 153.134 62.499 153.134C63.3556 153.134 63.8254 152.511 63.8254 151.773V151.428C63.8254 150.686 63.3683 150.066 62.499 150.066C61.6457 150.066 61.1695 150.689 61.1663 151.428V151.773ZM57.8744 148.027C57.8744 148.765 58.341 149.388 59.2071 149.388C60.0605 149.388 60.5335 148.768 60.5303 148.027V147.682C60.5335 146.94 60.0732 146.32 59.2071 146.32C58.357 146.32 57.8744 146.94 57.8744 147.682V148.027ZM58.1428 153H58.9067L63.4067 146.455H62.6428L58.1428 153ZM61.911 151.428C61.9142 151.06 62.074 150.705 62.499 150.705C62.9401 150.705 63.0775 151.06 63.0775 151.428V151.773C63.0775 152.14 62.9273 152.495 62.499 152.495C62.0644 152.495 61.9142 152.137 61.911 151.773V151.428ZM58.6222 147.682C58.6222 147.317 58.782 146.96 59.2071 146.96C59.6482 146.96 59.7856 147.314 59.7856 147.682V148.027C59.7856 148.395 59.6354 148.749 59.2071 148.749C58.7725 148.749 58.6222 148.395 58.6222 148.027V147.682Z" fill="#3AD8A4"/>
<path d="M0.396307 164.305H2.43537V170H3.41974V164.305H5.462V163.455H0.396307V164.305ZM5.99494 170H6.95055V167.002C6.95055 166.36 7.44593 165.896 8.12349 165.896C8.32164 165.896 8.54537 165.931 8.62207 165.954V165.04C8.52619 165.027 8.33762 165.017 8.21618 165.017C7.64089 165.017 7.1487 165.343 6.96973 165.871H6.91859V165.091H5.99494V170ZM11.389 170.099C12.4597 170.099 13.2172 169.572 13.4345 168.773L12.53 168.61C12.3574 169.073 11.9419 169.31 11.3986 169.31C10.5804 169.31 10.0307 168.779 10.0051 167.833H13.4952V167.494C13.4952 165.721 12.4341 165.027 11.3219 165.027C9.95401 165.027 9.05273 166.069 9.05273 167.577C9.05273 169.102 9.94123 170.099 11.389 170.099ZM10.0083 167.117C10.0467 166.42 10.5517 165.816 11.3283 165.816C12.0698 165.816 12.5556 166.366 12.5588 167.117H10.0083ZM15.9841 170.109C16.7959 170.109 17.2529 169.696 17.4351 169.329H17.4735V170H18.4067V166.74C18.4067 165.311 17.2817 165.027 16.5019 165.027C15.6134 165.027 14.7952 165.385 14.4756 166.28L15.3737 166.484C15.5143 166.136 15.8722 165.8 16.5146 165.8C17.1315 165.8 17.4479 166.123 17.4479 166.679V166.702C17.4479 167.05 17.0899 167.044 16.2078 167.146C15.2778 167.255 14.3254 167.498 14.3254 168.613C14.3254 169.578 15.0509 170.109 15.9841 170.109ZM16.1919 169.342C15.6517 169.342 15.2618 169.099 15.2618 168.626C15.2618 168.114 15.7156 167.932 16.2686 167.859C16.5786 167.817 17.3137 167.734 17.4511 167.597V168.229C17.4511 168.811 16.9877 169.342 16.1919 169.342ZM23.3581 166.289C23.16 165.526 22.5623 165.027 21.5012 165.027C20.3922 165.027 19.606 165.612 19.606 166.481C19.606 167.178 20.0279 167.641 20.9483 167.846L21.7793 168.028C22.2523 168.134 22.4728 168.344 22.4728 168.651C22.4728 169.032 22.0669 169.329 21.4405 169.329C20.8684 169.329 20.5009 169.083 20.3858 168.6L19.4622 168.741C19.622 169.61 20.3443 170.099 21.4469 170.099C22.6326 170.099 23.454 169.469 23.454 168.581C23.454 167.887 23.013 167.459 22.1117 167.251L21.3319 167.072C20.7917 166.945 20.5584 166.762 20.5616 166.43C20.5584 166.053 20.9675 165.784 21.5108 165.784C22.1053 165.784 22.3801 166.114 22.492 166.443L23.3581 166.289ZM27.6144 167.964C27.6176 168.798 26.9976 169.195 26.4607 169.195C25.8694 169.195 25.4603 168.766 25.4603 168.098V165.091H24.5047V168.213C24.5047 169.431 25.1727 170.064 26.1155 170.064C26.8538 170.064 27.3556 169.674 27.5825 169.15H27.6336V170H28.5732V165.091H27.6144V167.964ZM29.8572 170H30.8129V167.002C30.8129 166.36 31.3082 165.896 31.9858 165.896C32.1839 165.896 32.4077 165.931 32.4844 165.954V165.04C32.3885 165.027 32.1999 165.017 32.0785 165.017C31.5032 165.017 31.011 165.343 30.832 165.871H30.7809V165.091H29.8572V170ZM34.0648 171.841C34.8542 171.841 35.3528 171.429 35.6373 170.655L37.6667 165.1L36.6344 165.091L35.3912 168.901H35.34L34.0968 165.091H33.074L34.8702 170.064L34.752 170.39C34.5091 171.042 34.1671 171.096 33.6429 170.952L33.4128 171.735C33.5279 171.787 33.7772 171.841 34.0648 171.841ZM43.8414 166.82H40.9395V167.648H43.8414V166.82ZM49.9674 163.455H49.0054L47.3722 164.522V165.468L48.9383 164.445H48.9767V170H49.9674V163.455ZM53.9145 163.365C52.5402 163.352 51.6421 164.34 51.6421 165.58C51.6453 166.83 52.5498 167.731 53.6844 167.731C54.3779 167.731 54.9724 167.392 55.308 166.842H55.3591C55.3559 168.348 54.7902 169.227 53.8314 169.227C53.205 169.227 52.8023 168.843 52.6744 168.284H51.6997C51.8435 169.342 52.6617 170.089 53.8314 170.089C55.3527 170.089 56.3051 168.782 56.3051 166.491C56.3019 164.1 55.0811 163.375 53.9145 163.365ZM53.9177 164.196C54.6752 164.196 55.2345 164.838 55.2345 165.558C55.2377 166.286 54.6464 166.925 53.8985 166.925C53.1475 166.925 52.6041 166.325 52.6009 165.567C52.6009 164.806 53.1666 164.196 53.9177 164.196ZM57.856 170.061C58.2044 170.061 58.4952 169.776 58.4952 169.422C58.4952 169.073 58.2044 168.786 57.856 168.786C57.5044 168.786 57.2168 169.073 57.2168 169.422C57.2168 169.776 57.5044 170.061 57.856 170.061ZM61.8175 170.089C63.1342 170.089 64.0739 169.159 64.0707 167.884C64.0739 166.619 63.1918 165.698 61.9996 165.698C61.5138 165.698 61.0632 165.884 60.8075 166.133H60.7692L60.9769 164.301H63.7543V163.455H60.1555L59.788 166.753L60.6925 166.887C60.9386 166.667 61.3796 166.516 61.7759 166.516C62.5526 166.523 63.1151 167.104 63.1151 167.903C63.1151 168.69 62.5685 169.259 61.8175 169.259C61.1847 169.259 60.6829 168.856 60.6317 168.293H59.6729C59.7113 169.335 60.6158 170.089 61.8175 170.089ZM68.6546 168.773C68.6578 169.511 69.1212 170.134 69.9873 170.134C70.8438 170.134 71.3137 169.511 71.3137 168.773V168.428C71.3137 167.686 70.8566 167.066 69.9873 167.066C69.134 167.066 68.6578 167.689 68.6546 168.428V168.773ZM65.3627 165.027C65.3627 165.765 65.8293 166.388 66.6954 166.388C67.5487 166.388 68.0218 165.768 68.0186 165.027V164.682C68.0218 163.94 67.5615 163.32 66.6954 163.32C65.8453 163.32 65.3627 163.94 65.3627 164.682V165.027ZM65.6311 170H66.395L70.895 163.455H70.1311L65.6311 170ZM69.3992 168.428C69.4024 168.06 69.5622 167.705 69.9873 167.705C70.4284 167.705 70.5658 168.06 70.5658 168.428V168.773C70.5658 169.14 70.4156 169.495 69.9873 169.495C69.5526 169.495 69.4024 169.137 69.3992 168.773V168.428ZM66.1105 164.682C66.1105 164.317 66.2703 163.96 66.6954 163.96C67.1365 163.96 67.2739 164.314 67.2739 164.682V165.027C67.2739 165.395 67.1237 165.749 66.6954 165.749C66.2607 165.749 66.1105 165.395 66.1105 165.027V164.682Z" fill="#BB0E9F"/>
<path d="M0.396307 204.305H2.43537V210H3.41974V204.305H5.462V203.455H0.396307V204.305ZM7.90856 210.099C8.97923 210.099 9.73668 209.572 9.95401 208.773L9.04954 208.61C8.87695 209.073 8.46147 209.31 7.91815 209.31C7.09996 209.31 6.55025 208.779 6.52468 207.833H10.0147V207.494C10.0147 205.721 8.95366 205.027 7.84144 205.027C6.47354 205.027 5.57227 206.069 5.57227 207.577C5.57227 209.102 6.46076 210.099 7.90856 210.099ZM6.52788 207.117C6.56623 206.42 7.0712 205.816 7.84783 205.816C8.58931 205.816 9.07511 206.366 9.0783 207.117H6.52788ZM12.5036 210.109C13.3154 210.109 13.7725 209.696 13.9546 209.329H13.993V210H14.9262V206.74C14.9262 205.311 13.8012 205.027 13.0214 205.027C12.1329 205.027 11.3147 205.385 10.9951 206.28L11.8932 206.484C12.0338 206.136 12.3918 205.8 13.0342 205.8C13.651 205.8 13.9674 206.123 13.9674 206.679V206.702C13.9674 207.05 13.6095 207.044 12.7274 207.146C11.7973 207.255 10.8449 207.498 10.8449 208.613C10.8449 209.578 11.5704 210.109 12.5036 210.109ZM12.7114 209.342C12.1713 209.342 11.7813 209.099 11.7813 208.626C11.7813 208.114 12.2352 207.932 12.7881 207.859C13.0981 207.817 13.8332 207.734 13.9706 207.597V208.229C13.9706 208.811 13.5072 209.342 12.7114 209.342ZM16.199 210H17.1547V206.973C17.1547 206.312 17.6181 205.852 18.1614 205.852C18.6919 205.852 19.0595 206.203 19.0595 206.737V210H20.0119V206.871C20.0119 206.28 20.373 205.852 20.9963 205.852C21.5012 205.852 21.9167 206.133 21.9167 206.798V210H22.8723V206.708C22.8723 205.586 22.2459 205.027 21.3574 205.027C20.6511 205.027 20.1206 205.366 19.8841 205.89H19.8329C19.6188 205.353 19.1681 205.027 18.513 205.027C17.8642 205.027 17.3816 205.35 17.177 205.89H17.1163V205.091H16.199V210ZM29.4274 206.82H26.5254V207.648H29.4274V206.82ZM35.5534 203.455H34.5914L32.9582 204.522V205.468L34.5242 204.445H34.5626V210H35.5534V203.455ZM37.1865 208.722H40.2899V210H41.2327V208.722H42.0988V207.884H41.2327V203.455H40.015L37.1865 207.923V208.722ZM40.2963 207.884H38.222V207.833L40.2451 204.631H40.2963V207.884ZM46.6292 208.773C46.6324 209.511 47.0958 210.134 47.9619 210.134C48.8184 210.134 49.2883 209.511 49.2883 208.773V208.428C49.2883 207.686 48.8312 207.066 47.9619 207.066C47.1086 207.066 46.6324 207.689 46.6292 208.428V208.773ZM43.3373 205.027C43.3373 205.765 43.8039 206.388 44.67 206.388C45.5233 206.388 45.9964 205.768 45.9932 205.027V204.682C45.9964 203.94 45.5361 203.32 44.67 203.32C43.8199 203.32 43.3373 203.94 43.3373 204.682V205.027ZM43.6057 210H44.3696L48.8696 203.455H48.1057L43.6057 210ZM47.3738 208.428C47.377 208.06 47.5368 207.705 47.9619 207.705C48.403 207.705 48.5404 208.06 48.5404 208.428V208.773C48.5404 209.14 48.3902 209.495 47.9619 209.495C47.5273 209.495 47.377 209.137 47.3738 208.773V208.428ZM44.0851 204.682C44.0851 204.317 44.2449 203.96 44.67 203.96C45.1111 203.96 45.2485 204.314 45.2485 204.682V205.027C45.2485 205.395 45.0983 205.749 44.67 205.749C44.2354 205.749 44.0851 205.395 44.0851 205.027V204.682Z" fill="#E1F9ED"/>
<path d="M0.719105 192H1.70668V189.146H4.48722V188.299H1.70668V186.305H4.77805V185.455H0.719105V192ZM8.71795 189.964C8.72115 190.798 8.10112 191.195 7.56419 191.195C6.97292 191.195 6.56383 190.766 6.56383 190.098V187.091H5.60822V190.213C5.60822 191.431 6.27619 192.064 7.21902 192.064C7.9573 192.064 8.45907 191.674 8.68599 191.15H8.73713V192H9.67676V187.091H8.71795V189.964ZM11.9164 189.085C11.9164 188.302 12.3958 187.855 13.0605 187.855C13.7093 187.855 14.1025 188.28 14.1025 188.993V192H15.0581V188.877C15.0581 187.663 14.3901 187.027 13.3865 187.027C12.6483 187.027 12.1657 187.369 11.9387 187.89H11.878V187.091H10.9608V192H11.9164V189.085ZM18.1774 192.096C19.0723 192.096 19.4238 191.549 19.5964 191.236H19.6763V192H20.6096V185.455H19.6539V187.887H19.5964C19.4238 187.583 19.0978 187.027 18.1838 187.027C16.998 187.027 16.1255 187.963 16.1255 189.555C16.1255 191.143 16.9853 192.096 18.1774 192.096ZM18.3883 191.281C17.535 191.281 17.0907 190.53 17.0907 189.545C17.0907 188.571 17.5254 187.839 18.3883 187.839C19.2225 187.839 19.6699 188.52 19.6699 189.545C19.6699 190.578 19.2129 191.281 18.3883 191.281ZM21.9735 192H22.9291V189.002C22.9291 188.36 23.4244 187.896 24.102 187.896C24.3002 187.896 24.5239 187.931 24.6006 187.954V187.04C24.5047 187.027 24.3161 187.017 24.1947 187.017C23.6194 187.017 23.1272 187.343 22.9482 187.871H22.8971V187.091H21.9735V192ZM26.8122 192.109C27.624 192.109 28.0811 191.696 28.2632 191.329H28.3016V192H29.2348V188.74C29.2348 187.311 28.1098 187.027 27.33 187.027C26.4415 187.027 25.6233 187.385 25.3037 188.28L26.2018 188.484C26.3424 188.136 26.7004 187.8 27.3428 187.8C27.9596 187.8 28.276 188.123 28.276 188.679V188.702C28.276 189.05 27.9181 189.044 27.036 189.146C26.1059 189.255 25.1535 189.498 25.1535 190.613C25.1535 191.578 25.879 192.109 26.8122 192.109ZM27.02 191.342C26.4798 191.342 26.0899 191.099 26.0899 190.626C26.0899 190.114 26.5438 189.932 27.0967 189.859C27.4067 189.817 28.1418 189.734 28.2792 189.597V190.229C28.2792 190.811 27.8158 191.342 27.02 191.342ZM30.5076 192H31.4632V187.091H30.5076V192ZM30.9902 186.333C31.3194 186.333 31.5943 186.078 31.5943 185.765C31.5943 185.451 31.3194 185.192 30.9902 185.192C30.6578 185.192 30.3862 185.451 30.3862 185.765C30.3862 186.078 30.6578 186.333 30.9902 186.333ZM36.4275 188.289C36.2293 187.526 35.6317 187.027 34.5706 187.027C33.4616 187.027 32.6753 187.612 32.6753 188.481C32.6753 189.178 33.0972 189.641 34.0177 189.846L34.8486 190.028C35.3216 190.134 35.5422 190.344 35.5422 190.651C35.5422 191.032 35.1363 191.329 34.5099 191.329C33.9378 191.329 33.5702 191.083 33.4552 190.6L32.5315 190.741C32.6913 191.61 33.4136 192.099 34.5162 192.099C35.702 192.099 36.5233 191.469 36.5233 190.581C36.5233 189.887 36.0823 189.459 35.181 189.251L34.4012 189.072C33.8611 188.945 33.6278 188.762 33.6309 188.43C33.6278 188.053 34.0368 187.784 34.5802 187.784C35.1746 187.784 35.4495 188.114 35.5613 188.443L36.4275 188.289ZM39.6898 192.099C40.7605 192.099 41.5179 191.572 41.7353 190.773L40.8308 190.61C40.6582 191.073 40.2427 191.31 39.6994 191.31C38.8812 191.31 38.3315 190.779 38.3059 189.833H41.796V189.494C41.796 187.721 40.7349 187.027 39.6227 187.027C38.2548 187.027 37.3535 188.069 37.3535 189.577C37.3535 191.102 38.242 192.099 39.6898 192.099ZM38.3091 189.117C38.3475 188.42 38.8525 187.816 39.6291 187.816C40.3706 187.816 40.8564 188.366 40.8596 189.117H38.3091ZM48.1305 188.82H45.2285V189.648H48.1305V188.82ZM54.2565 185.455H53.2945L51.6613 186.522V187.468L53.2274 186.445H53.2657V192H54.2565V185.455ZM58.3122 192.089C59.6801 192.102 60.5878 191.118 60.5846 189.862C60.5878 188.609 59.6769 187.711 58.5423 187.711C57.852 187.711 57.2544 188.043 56.9188 188.596H56.8708C56.874 187.11 57.4365 186.228 58.3953 186.228C59.0249 186.228 59.4213 186.612 59.5555 187.155H60.5303C60.3801 186.119 59.5651 185.365 58.3953 185.365C56.874 185.365 55.9248 186.672 55.9248 188.948C55.9216 191.358 57.1489 192.08 58.3122 192.089ZM58.309 191.259C57.5484 191.259 56.9923 190.619 56.9923 189.884C56.9955 189.152 57.5771 188.513 58.3314 188.513C59.0793 188.513 59.629 189.117 59.6258 189.875C59.629 190.648 59.0569 191.259 58.309 191.259ZM62.1011 192.061C62.4495 192.061 62.7403 191.776 62.7403 191.422C62.7403 191.073 62.4495 190.786 62.1011 190.786C61.7496 190.786 61.4619 191.073 61.4619 191.422C61.4619 191.776 61.7496 192.061 62.1011 192.061ZM66.0626 192.089C67.3794 192.089 68.319 191.159 68.3158 189.884C68.319 188.619 67.4369 187.698 66.2448 187.698C65.759 187.698 65.3083 187.884 65.0526 188.133H65.0143L65.222 186.301H67.9994V185.455H64.4007L64.0331 188.753L64.9376 188.887C65.1837 188.667 65.6247 188.516 66.021 188.516C66.7977 188.523 67.3602 189.104 67.3602 189.903C67.3602 190.69 66.8137 191.259 66.0626 191.259C65.4298 191.259 64.928 190.856 64.8769 190.293H63.9181C63.9564 191.335 64.8609 192.089 66.0626 192.089ZM72.8997 190.773C72.9029 191.511 73.3663 192.134 74.2324 192.134C75.089 192.134 75.5588 191.511 75.5588 190.773V190.428C75.5588 189.686 75.1017 189.066 74.2324 189.066C73.3791 189.066 72.9029 189.689 72.8997 190.428V190.773ZM69.6078 187.027C69.6078 187.765 70.0744 188.388 70.9405 188.388C71.7939 188.388 72.2669 187.768 72.2637 187.027V186.682C72.2669 185.94 71.8066 185.32 70.9405 185.32C70.0904 185.32 69.6078 185.94 69.6078 186.682V187.027ZM69.8762 192H70.6401L75.1401 185.455H74.3762L69.8762 192ZM73.6444 190.428C73.6476 190.06 73.8074 189.705 74.2324 189.705C74.6735 189.705 74.8109 190.06 74.8109 190.428V190.773C74.8109 191.14 74.6607 191.495 74.2324 191.495C73.7978 191.495 73.6476 191.137 73.6444 190.773V190.428ZM70.3556 186.682C70.3556 186.317 70.5154 185.96 70.9405 185.96C71.3816 185.96 71.519 186.314 71.519 186.682V187.027C71.519 187.395 71.3688 187.749 70.9405 187.749C70.5059 187.749 70.3556 187.395 70.3556 187.027V186.682Z" fill="#F9FD89"/>
<path d="M206.071 34.2998C212.168 40.412 217.002 47.6767 220.296 55.6757C223.591 63.6748 225.28 72.2502 225.266 80.9083C225.267 84.299 225.011 87.6848 224.501 91.0364L238.094 93C238.698 88.9981 239.001 84.9561 239 80.9083C239 54.7513 226.478 31.5389 207.135 17L199 28.1247C201.5 30.012 203.863 32.0755 206.071 34.2998Z" fill="url(#paint0_linear_3753_11685)" stroke="#0B0C13" stroke-miterlimit="10"/>
<path d="M224.469 91C222.089 106.413 214.28 120.463 202.455 130.608C190.629 140.752 175.569 146.32 160 146.305V160C199.51 160 232.235 130.91 238 92.9467L224.469 91Z" fill="url(#paint1_linear_3753_11685)" stroke="#0B0C13" stroke-miterlimit="10"/>
<path d="M185.29 20.027C190.141 22.1093 194.723 24.7869 198.935 28L207 16.8532C193.435 6.53581 176.942 0.972708 160 1.0001V14.8421C168.687 14.8232 177.289 16.5867 185.29 20.027Z" fill="url(#paint2_linear_3753_11685)" stroke="#0B0C13" stroke-miterlimit="10"/>
<path d="M134.579 141.066C120.683 135.172 109.241 124.62 102.197 111.202C95.1527 97.7832 92.9396 82.3252 95.9335 67.4516C98.9274 52.5779 106.944 39.2051 118.622 29.6032C130.3 20.0013 144.92 14.7621 160 14.7748V1C116.37 1 81 36.594 81 80.5C81 124.406 116.37 160 160 160V146.225C151.268 146.244 142.622 144.489 134.579 141.066Z" fill="url(#paint3_linear_3753_11685)" stroke="#0B0C13" stroke-miterlimit="10"/>
<defs>
<linearGradient id="paint0_linear_3753_11685" x1="190" y1="33" x2="249.5" y2="96.5" gradientUnits="userSpaceOnUse">
<stop stop-color="#F9FD89"/>
<stop offset="1" stop-color="#6FFD6D"/>
</linearGradient>
<linearGradient id="paint1_linear_3753_11685" x1="214.5" y1="91" x2="170" y2="171.5" gradientUnits="userSpaceOnUse">
<stop stop-color="#BB0E9F"/>
<stop offset="1" stop-color="#840EBB"/>
</linearGradient>
<linearGradient id="paint2_linear_3753_11685" x1="155.5" y1="19" x2="216.5" y2="15" gradientUnits="userSpaceOnUse">
<stop stop-color="#F9E1E1"/>
<stop offset="1" stop-color="#F584EA"/>
</linearGradient>
<linearGradient id="paint3_linear_3753_11685" x1="121" y1="-15" x2="121" y2="181.5" gradientUnits="userSpaceOnUse">
<stop offset="0.132472" stop-color="#3AD8A4"/>
<stop offset="0.835742" stop-color="#19C7ED"/>
</linearGradient>
</defs>
</svg>
