<svg width="62" height="62" viewBox="0 0 62 62" fill="none" xmlns="http://www.w3.org/2000/svg">
<path d="M15.4346 15.4346L15.4344 15.4348C6.9102 23.9589 6.9102 37.7793 15.4344 46.3035L15.4346 46.3037C23.9587 54.8279 37.7791 54.8279 46.3033 46.3037L46.3035 46.3035C54.8277 37.7793 54.8277 23.9589 46.3035 15.4348L46.3033 15.4346C37.7791 6.9104 23.9587 6.9104 15.4346 15.4346Z" fill="#071927"/>
<path d="M30.8686 14.3446C33.0006 14.3436 35.1127 14.7545 37.0888 15.5546C39.637 16.5872 41.8868 18.2402 43.6338 20.3633C45.3807 22.4864 46.5695 25.0124 47.0921 27.7117C47.7031 30.8603 47.388 34.1184 46.1849 37.0916C45.1522 39.6397 43.4993 41.8893 41.3762 43.6363C39.253 45.3832 36.7271 46.5719 34.0278 47.0946C30.8793 47.7055 27.6211 47.3904 24.648 46.1873C22.0998 45.1548 19.8501 43.5019 18.1032 41.3788C16.3563 39.2557 15.1675 36.7298 14.645 34.0306C14.0339 30.8821 14.349 27.624 15.5522 24.651C16.5845 22.1025 18.2373 19.8523 20.3605 18.1051C22.4836 16.3578 25.0097 15.1688 27.7093 14.6462C28.7504 14.4454 29.8083 14.3444 30.8686 14.3446ZM30.8686 11.2734C25.8531 11.2734 20.8376 13.1868 17.011 17.0134C9.35771 24.6667 9.35771 37.0753 17.011 44.7285C20.8376 48.5552 25.8531 50.4685 30.8686 50.4685C35.884 50.4685 40.8995 48.5552 44.7258 44.7285C52.3791 37.0753 52.3791 24.6667 44.7258 17.0134C40.8995 13.1855 35.884 11.2734 30.8686 11.2734Z" fill="url(#paint0_linear_2887_11751)"/>
<path d="M23.633 28.6131C23.2423 28.9131 23.7681 31.4889 24.1373 31.8571C24.5064 32.2254 27.7124 35.0929 27.7124 35.0929L28.6859 33.6801C28.6859 33.6801 24.1388 28.2399 23.633 28.6131Z" fill="url(#paint1_linear_2887_11751)"/>
<path d="M16.5948 51.472L38.1607 36.5232C38.5252 36.2702 38.8121 33.6978 38.3735 33.3953C37.9349 33.0928 16.5948 51.472 16.5948 51.472Z" fill="url(#paint2_linear_2887_11751)"/>
<path d="M44.2007 10.0186L32.7499 28.6868L33.6206 29.433L44.2007 10.0186Z" fill="url(#paint3_linear_2887_11751)"/>
<path d="M43.7477 9.75952L23.6317 28.612C23.6008 28.6409 23.5763 28.676 23.5595 28.7149C23.5428 28.7537 23.5343 28.7957 23.5346 28.838C23.5348 28.8804 23.5438 28.9222 23.561 28.9609C23.5782 28.9996 23.6032 29.0343 23.6345 29.0628L28.6859 33.6803L16.2094 51.1075C16.0282 51.3605 16.3528 51.6667 16.5948 51.4711L38.3692 33.8686C38.4045 33.8401 38.433 33.8041 38.4527 33.7633C38.4724 33.7225 38.4828 33.6778 38.4833 33.6325C38.4837 33.5871 38.474 33.5423 38.4551 33.5011C38.4361 33.4599 38.4082 33.4235 38.3735 33.3944L32.7929 28.7087L44.1586 10.0937C44.3211 9.82893 43.9749 9.54638 43.7477 9.75952Z" fill="#F3FC1F"/>
<path d="M36.4866 16.3511L40.1164 12.9492" stroke="#071927" stroke-width="0.5" stroke-miterlimit="10"/>
<path d="M20.7965 48.7427L24.8882 45.9102" stroke="#071927" stroke-width="0.5" stroke-miterlimit="10"/>
<defs>
<linearGradient id="paint0_linear_2887_11751" x1="18.6924" y1="46.2279" x2="43.0447" y2="15.5116" gradientUnits="userSpaceOnUse">
<stop offset="0.06" stop-color="#3AD889"/>
<stop offset="0.1" stop-color="#50DC7C"/>
<stop offset="0.2" stop-color="#7BE564"/>
<stop offset="0.3" stop-color="#A0EC4E"/>
<stop offset="0.41" stop-color="#BEF23D"/>
<stop offset="0.52" stop-color="#D6F630"/>
<stop offset="0.63" stop-color="#E6F926"/>
<stop offset="0.76" stop-color="#F0FB21"/>
<stop offset="0.93" stop-color="#F3FC1F"/>
</linearGradient>
<linearGradient id="paint1_linear_2887_11751" x1="23.0906" y1="34.1869" x2="28.2765" y2="29.4988" gradientUnits="userSpaceOnUse">
<stop stop-color="#3AD889"/>
<stop offset="0.15" stop-color="#35CE81"/>
<stop offset="0.4" stop-color="#29B36D"/>
<stop offset="0.71" stop-color="#15884C"/>
<stop offset="1" stop-color="#005B29"/>
</linearGradient>
<linearGradient id="paint2_linear_2887_11751" x1="40.0626" y1="32.0566" x2="17.7794" y2="53.0355" gradientUnits="userSpaceOnUse">
<stop stop-color="#3AD889"/>
<stop offset="0.36" stop-color="#23A763"/>
<stop offset="0.79" stop-color="#0A7039"/>
<stop offset="1" stop-color="#005B29"/>
</linearGradient>
<linearGradient id="paint3_linear_2887_11751" x1="8872.6" y1="6763.93" x2="13142" y2="6763.93" gradientUnits="userSpaceOnUse">
<stop stop-color="#3AD889"/>
<stop offset="0.36" stop-color="#23A763"/>
<stop offset="0.79" stop-color="#0A7039"/>
<stop offset="1" stop-color="#005B29"/>
</linearGradient>
</defs>
</svg>
