<svg width="665" height="290" viewBox="0 0 665 290" fill="none" xmlns="http://www.w3.org/2000/svg">
<path d="M230 10C230 4.47716 234.477 0 240 0H425C430.523 0 435 4.47715 435 10V280C435 285.523 430.523 290 425 290H240C234.477 290 230 285.523 230 280V10Z" fill="#0B0C13"/>
<rect x="230.5" y="0.5" width="204" height="289" rx="9.5" stroke="url(#paint0_linear_3721_11686)"/>
<path d="M267.9 27.742C268.992 28.666 269.832 29.814 270.42 31.186C271.008 32.53 271.302 33.986 271.302 35.554C271.302 37.094 271.022 38.578 270.462 40.006C269.902 41.406 269.174 42.498 268.278 43.282C267.578 43.898 266.892 44.374 266.22 44.71C265.576 45.046 264.722 45.326 263.658 45.55C262.622 45.746 261.362 45.844 259.878 45.844H257.484C257.232 45.844 257.106 45.97 257.106 46.222V54.664C257.106 54.888 256.994 55 256.77 55H249.966C249.742 55 249.63 54.888 249.63 54.664V25.936C249.63 25.712 249.742 25.6 249.966 25.6H259.08C260.088 25.6 260.998 25.642 261.81 25.726C262.65 25.782 263.364 25.866 263.952 25.978C264.568 26.09 265.128 26.244 265.632 26.44C266.136 26.608 266.556 26.804 266.892 27.028C267.228 27.224 267.564 27.462 267.9 27.742ZM262.44 38.662C263.56 38.158 264.12 37.164 264.12 35.68C264.12 34.252 263.546 33.286 262.398 32.782C261.726 32.502 260.732 32.362 259.416 32.362H257.484C257.232 32.362 257.106 32.474 257.106 32.698V38.704C257.106 38.956 257.232 39.082 257.484 39.082H259.668C260.9 39.082 261.824 38.942 262.44 38.662ZM284.695 32.74C284.947 32.74 285.073 32.866 285.073 33.118L284.863 38.326C284.835 38.578 284.695 38.69 284.443 38.662C283.295 38.55 282.455 38.564 281.923 38.704C281.251 38.872 280.789 39.236 280.537 39.796C280.285 40.3 280.159 41.07 280.159 42.106V54.664C280.159 54.888 280.047 55 279.823 55H273.145C272.921 55 272.809 54.888 272.809 54.664V33.076C272.809 32.852 272.921 32.74 273.145 32.74H279.403C279.627 32.74 279.739 32.852 279.739 33.076V33.706C279.739 33.79 279.767 33.846 279.823 33.874C279.879 33.902 279.935 33.902 279.991 33.874C281.167 33.146 282.735 32.768 284.695 32.74ZM307.799 40.762C308.135 41.826 308.303 42.918 308.303 44.038C308.303 44.682 308.233 45.368 308.093 46.096C308.065 46.292 307.953 46.39 307.757 46.39H292.175C292.035 46.39 291.923 46.46 291.839 46.6C291.783 46.712 291.783 46.824 291.839 46.936C292.343 47.748 293.001 48.392 293.813 48.868C294.625 49.344 295.493 49.582 296.417 49.582C298.125 49.582 299.525 48.896 300.617 47.524C300.701 47.384 300.813 47.328 300.953 47.356L306.917 48.448C307.029 48.476 307.113 48.546 307.169 48.658C307.225 48.742 307.225 48.84 307.169 48.952C307.001 49.344 306.875 49.61 306.791 49.75L306.707 49.918C306.595 50.058 306.483 50.212 306.371 50.38C306.259 50.604 306.133 50.8 305.993 50.968L305.909 51.052C305.853 51.108 305.811 51.164 305.783 51.22L305.741 51.304C305.657 51.388 305.573 51.486 305.489 51.598L305.405 51.682C305.265 51.822 305.125 51.962 304.985 52.102L304.901 52.186C304.817 52.298 304.733 52.396 304.649 52.48H304.607C304.495 52.592 304.383 52.69 304.271 52.774L304.187 52.9L304.019 52.774L304.145 52.9C303.977 53.04 303.823 53.166 303.683 53.278L303.557 53.404C303.361 53.516 303.165 53.642 302.969 53.782L302.927 53.824C302.703 53.964 302.479 54.09 302.255 54.202L302.171 54.244C302.115 54.272 302.073 54.3 302.045 54.328L302.003 54.37C301.891 54.398 301.793 54.44 301.709 54.496L301.667 54.538C301.443 54.622 301.233 54.706 301.037 54.79L300.995 54.832C300.855 54.888 300.729 54.93 300.617 54.958L300.491 55C300.323 55.056 300.169 55.112 300.029 55.168C299.861 55.224 299.679 55.266 299.483 55.294L299.357 55.336C299.021 55.42 298.685 55.49 298.349 55.546L298.223 55.588C297.859 55.616 297.509 55.644 297.173 55.672H297.005C296.809 55.7 296.627 55.714 296.459 55.714C296.291 55.714 296.109 55.7 295.913 55.672C295.857 55.672 295.829 55.672 295.829 55.672H295.787C295.647 55.672 295.507 55.658 295.367 55.63H295.325C295.297 55.63 295.255 55.63 295.199 55.63C295.003 55.602 294.835 55.574 294.695 55.546H294.569C294.429 55.518 294.289 55.49 294.149 55.462L293.981 55.42C293.869 55.392 293.743 55.364 293.603 55.336H293.561C293.533 55.336 293.505 55.322 293.477 55.294C293.281 55.266 293.113 55.224 292.973 55.168C292.833 55.14 292.665 55.084 292.469 55C292.413 55 292.371 54.986 292.343 54.958C292.203 54.902 292.077 54.86 291.965 54.832L291.923 54.79C291.895 54.79 291.867 54.776 291.839 54.748C291.671 54.692 291.503 54.622 291.335 54.538C291.223 54.482 291.069 54.412 290.873 54.328C290.873 54.3 290.845 54.272 290.789 54.244H290.747C290.635 54.188 290.523 54.132 290.411 54.076L290.285 53.992C290.145 53.88 290.005 53.782 289.865 53.698C288.437 52.746 287.275 51.542 286.379 50.086C286.295 49.974 286.225 49.848 286.169 49.708L286.127 49.666C286.071 49.582 286.001 49.456 285.917 49.288V49.246C285.889 49.218 285.861 49.176 285.833 49.12C285.609 48.672 285.413 48.196 285.245 47.692C285.161 47.412 285.091 47.16 285.035 46.936C284.979 46.768 284.937 46.586 284.909 46.39C284.769 45.802 284.685 45.214 284.657 44.626C284.657 44.43 284.657 44.234 284.657 44.038C284.657 43.842 284.657 43.646 284.657 43.45C284.713 42.414 284.909 41.392 285.245 40.384C285.357 40.076 285.469 39.782 285.581 39.502C285.637 39.362 285.707 39.208 285.791 39.04C285.819 39.012 285.833 38.97 285.833 38.914L285.917 38.83C285.917 38.802 285.931 38.774 285.959 38.746C285.959 38.69 285.973 38.648 286.001 38.62L286.127 38.452C286.211 38.284 286.295 38.13 286.379 37.99C287.275 36.534 288.437 35.33 289.865 34.378C290.005 34.294 290.145 34.196 290.285 34.084L290.411 34.042C290.523 33.958 290.635 33.888 290.747 33.832H290.789C290.789 33.832 290.803 33.832 290.831 33.832C290.859 33.804 290.887 33.776 290.915 33.748C291.083 33.664 291.223 33.594 291.335 33.538C291.503 33.454 291.671 33.384 291.839 33.328C291.839 33.328 291.853 33.328 291.881 33.328C291.909 33.3 291.923 33.286 291.923 33.286L291.965 33.244C292.077 33.216 292.203 33.174 292.343 33.118C292.399 33.09 292.441 33.076 292.469 33.076C292.665 33.02 292.833 32.964 292.973 32.908C293.113 32.852 293.281 32.81 293.477 32.782C293.477 32.754 293.491 32.74 293.519 32.74C293.547 32.74 293.561 32.74 293.561 32.74H293.603C293.715 32.712 293.841 32.684 293.981 32.656L294.107 32.614C294.275 32.586 294.457 32.558 294.653 32.53H294.695C294.835 32.502 295.003 32.474 295.199 32.446C295.227 32.446 295.255 32.446 295.283 32.446C295.311 32.446 295.325 32.446 295.325 32.446H295.367C295.507 32.418 295.647 32.404 295.787 32.404C295.815 32.404 295.843 32.404 295.871 32.404C295.899 32.404 295.913 32.404 295.913 32.404C296.109 32.404 296.291 32.404 296.459 32.404C296.627 32.404 296.809 32.404 297.005 32.404H297.131C297.495 32.432 297.859 32.474 298.223 32.53H298.349C298.685 32.586 299.021 32.656 299.357 32.74L299.483 32.782C299.679 32.81 299.861 32.852 300.029 32.908C300.169 32.964 300.323 33.02 300.491 33.076C300.519 33.076 300.561 33.09 300.617 33.118C300.729 33.174 300.855 33.216 300.995 33.244L301.037 33.286C301.233 33.37 301.429 33.454 301.625 33.538L301.709 33.58C301.765 33.608 301.849 33.65 301.961 33.706L302.003 33.748L301.919 33.916L302.045 33.748C302.101 33.776 302.143 33.804 302.171 33.832C302.423 33.972 302.675 34.112 302.927 34.252V34.294C303.123 34.406 303.319 34.532 303.515 34.672L303.557 34.714C303.585 34.742 303.627 34.77 303.683 34.798C303.823 34.91 303.977 35.036 304.145 35.176L304.229 35.26C304.369 35.372 304.495 35.484 304.607 35.596H304.649C304.733 35.708 304.817 35.806 304.901 35.89L304.985 35.974C305.125 36.114 305.265 36.254 305.405 36.394L305.279 36.52L305.405 36.436L305.489 36.478C305.545 36.562 305.615 36.66 305.699 36.772L305.783 36.856C305.895 36.968 305.979 37.08 306.035 37.192L306.077 37.234C306.133 37.318 306.203 37.416 306.287 37.528L306.413 37.696C306.469 37.808 306.525 37.892 306.581 37.948L306.791 38.326C307.211 39.11 307.547 39.922 307.799 40.762ZM300.995 41.518C301.107 41.518 301.191 41.476 301.247 41.392C301.331 41.308 301.359 41.21 301.331 41.098C301.191 40.258 300.687 39.558 299.819 38.998C298.951 38.438 297.929 38.158 296.753 38.158C296.025 38.158 295.325 38.284 294.653 38.536C293.981 38.788 293.421 39.138 292.973 39.586C292.525 40.034 292.259 40.538 292.175 41.098C292.147 41.182 292.161 41.28 292.217 41.392C292.301 41.476 292.399 41.518 292.511 41.518H300.995ZM326.213 36.772C326.437 36.772 326.549 36.884 326.549 37.108V43.702C326.549 43.954 326.437 44.08 326.213 44.08H316.385C316.161 44.08 316.049 43.954 316.049 43.702V37.108C316.049 36.884 316.161 36.772 316.385 36.772H326.213ZM347.767 37.612C350.203 38.732 351.939 39.95 352.975 41.266C354.011 42.554 354.529 44.164 354.529 46.096C354.529 48.392 353.983 50.324 352.891 51.892C351.239 54.328 348.425 55.546 344.449 55.546C341.173 55.546 338.639 54.706 336.847 53.026C336.343 52.55 335.853 51.934 335.377 51.178C334.929 50.422 334.579 49.526 334.327 48.49C334.271 48.238 334.369 48.084 334.621 48.028L341.299 46.642C341.523 46.586 341.663 46.67 341.719 46.894C341.859 47.37 342.055 47.776 342.307 48.112C342.587 48.448 342.867 48.686 343.147 48.826C343.455 48.938 343.693 49.022 343.861 49.078C344.057 49.106 344.239 49.12 344.407 49.12C344.911 49.12 345.373 48.98 345.793 48.7C346.213 48.42 346.521 48.084 346.717 47.692C346.941 47.272 347.053 46.838 347.053 46.39C347.053 45.746 346.745 45.228 346.129 44.836C345.513 44.416 344.099 43.716 341.887 42.736L341.509 42.61C340.921 42.358 340.417 42.134 339.997 41.938C339.605 41.742 339.017 41.392 338.233 40.888C337.477 40.384 336.861 39.852 336.385 39.292C335.909 38.732 335.475 38.004 335.083 37.108C334.691 36.184 334.495 35.19 334.495 34.126C334.495 32.25 334.999 30.612 336.007 29.212C337.043 27.784 338.303 26.734 339.787 26.062C341.299 25.39 342.895 25.054 344.575 25.054C346.143 25.054 347.613 25.334 348.985 25.894C349.377 26.062 349.755 26.272 350.119 26.524C350.511 26.748 350.945 27.07 351.421 27.49C351.925 27.882 352.345 28.386 352.681 29.002C353.045 29.618 353.283 30.304 353.395 31.06C353.451 31.256 353.367 31.382 353.143 31.438L346.927 32.992C346.731 33.048 346.591 32.992 346.507 32.824C346.143 31.928 345.429 31.48 344.365 31.48C343.721 31.48 343.147 31.69 342.643 32.11C342.167 32.502 341.929 33.02 341.929 33.664C341.929 34.28 342.237 34.798 342.853 35.218C343.469 35.61 345.107 36.408 347.767 37.612ZM380.306 32.74C380.558 32.74 380.684 32.852 380.684 33.076V54.622C380.684 54.874 380.558 55 380.306 55H374.09C373.838 55 373.712 54.874 373.712 54.622V54.286C373.712 54.23 373.684 54.188 373.628 54.16C373.572 54.132 373.516 54.132 373.46 54.16C371.64 55.168 369.68 55.672 367.58 55.672C364.332 55.672 361.546 54.538 359.222 52.27C356.926 50.002 355.778 47.258 355.778 44.038C355.778 40.818 356.926 38.074 359.222 35.806C361.546 33.51 364.332 32.362 367.58 32.362C369.68 32.362 371.64 32.88 373.46 33.916C373.516 33.944 373.572 33.944 373.628 33.916C373.684 33.888 373.712 33.832 373.712 33.748V33.076C373.712 32.852 373.838 32.74 374.09 32.74H380.306ZM368.672 49.372C370.128 49.372 371.332 48.854 372.284 47.818C373.236 46.782 373.712 45.522 373.712 44.038C373.712 42.526 373.236 41.266 372.284 40.258C371.332 39.222 370.128 38.704 368.672 38.704C367.16 38.704 365.872 39.222 364.808 40.258C363.772 41.294 363.254 42.554 363.254 44.038C363.254 45.494 363.772 46.754 364.808 47.818C365.872 48.854 367.16 49.372 368.672 49.372ZM389.086 25.726C389.338 25.726 389.464 25.838 389.464 26.062V54.664C389.464 54.888 389.338 55 389.086 55H382.492C382.268 55 382.156 54.888 382.156 54.664V26.062C382.156 25.838 382.268 25.726 382.492 25.726H389.086ZM414.071 40.762C414.407 41.826 414.575 42.918 414.575 44.038C414.575 44.682 414.505 45.368 414.365 46.096C414.337 46.292 414.225 46.39 414.029 46.39H398.447C398.307 46.39 398.195 46.46 398.111 46.6C398.055 46.712 398.055 46.824 398.111 46.936C398.615 47.748 399.273 48.392 400.085 48.868C400.897 49.344 401.765 49.582 402.689 49.582C404.397 49.582 405.797 48.896 406.889 47.524C406.973 47.384 407.085 47.328 407.225 47.356L413.189 48.448C413.301 48.476 413.385 48.546 413.441 48.658C413.497 48.742 413.497 48.84 413.441 48.952C413.273 49.344 413.147 49.61 413.063 49.75L412.979 49.918C412.867 50.058 412.755 50.212 412.643 50.38C412.531 50.604 412.405 50.8 412.265 50.968L412.181 51.052C412.125 51.108 412.083 51.164 412.055 51.22L412.013 51.304C411.929 51.388 411.845 51.486 411.761 51.598L411.677 51.682C411.537 51.822 411.397 51.962 411.257 52.102L411.173 52.186C411.089 52.298 411.005 52.396 410.921 52.48H410.879C410.767 52.592 410.655 52.69 410.543 52.774L410.459 52.9L410.291 52.774L410.417 52.9C410.249 53.04 410.095 53.166 409.955 53.278L409.829 53.404C409.633 53.516 409.437 53.642 409.241 53.782L409.199 53.824C408.975 53.964 408.751 54.09 408.527 54.202L408.443 54.244C408.387 54.272 408.345 54.3 408.317 54.328L408.275 54.37C408.163 54.398 408.065 54.44 407.981 54.496L407.939 54.538C407.715 54.622 407.505 54.706 407.309 54.79L407.267 54.832C407.127 54.888 407.001 54.93 406.889 54.958L406.763 55C406.595 55.056 406.441 55.112 406.301 55.168C406.133 55.224 405.951 55.266 405.755 55.294L405.629 55.336C405.293 55.42 404.957 55.49 404.621 55.546L404.495 55.588C404.131 55.616 403.781 55.644 403.445 55.672H403.277C403.081 55.7 402.899 55.714 402.731 55.714C402.563 55.714 402.381 55.7 402.185 55.672C402.129 55.672 402.101 55.672 402.101 55.672H402.059C401.919 55.672 401.779 55.658 401.639 55.63H401.597C401.569 55.63 401.527 55.63 401.471 55.63C401.275 55.602 401.107 55.574 400.967 55.546H400.841C400.701 55.518 400.561 55.49 400.421 55.462L400.253 55.42C400.141 55.392 400.015 55.364 399.875 55.336H399.833C399.805 55.336 399.777 55.322 399.749 55.294C399.553 55.266 399.385 55.224 399.245 55.168C399.105 55.14 398.937 55.084 398.741 55C398.685 55 398.643 54.986 398.615 54.958C398.475 54.902 398.349 54.86 398.237 54.832L398.195 54.79C398.167 54.79 398.139 54.776 398.111 54.748C397.943 54.692 397.775 54.622 397.607 54.538C397.495 54.482 397.341 54.412 397.145 54.328C397.145 54.3 397.117 54.272 397.061 54.244H397.019C396.907 54.188 396.795 54.132 396.683 54.076L396.557 53.992C396.417 53.88 396.277 53.782 396.137 53.698C394.709 52.746 393.547 51.542 392.651 50.086C392.567 49.974 392.497 49.848 392.441 49.708L392.399 49.666C392.343 49.582 392.273 49.456 392.189 49.288V49.246C392.161 49.218 392.133 49.176 392.105 49.12C391.881 48.672 391.685 48.196 391.517 47.692C391.433 47.412 391.363 47.16 391.307 46.936C391.251 46.768 391.209 46.586 391.181 46.39C391.041 45.802 390.957 45.214 390.929 44.626C390.929 44.43 390.929 44.234 390.929 44.038C390.929 43.842 390.929 43.646 390.929 43.45C390.985 42.414 391.181 41.392 391.517 40.384C391.629 40.076 391.741 39.782 391.853 39.502C391.909 39.362 391.979 39.208 392.063 39.04C392.091 39.012 392.105 38.97 392.105 38.914L392.189 38.83C392.189 38.802 392.203 38.774 392.231 38.746C392.231 38.69 392.245 38.648 392.273 38.62L392.399 38.452C392.483 38.284 392.567 38.13 392.651 37.99C393.547 36.534 394.709 35.33 396.137 34.378C396.277 34.294 396.417 34.196 396.557 34.084L396.683 34.042C396.795 33.958 396.907 33.888 397.019 33.832H397.061C397.061 33.832 397.075 33.832 397.103 33.832C397.131 33.804 397.159 33.776 397.187 33.748C397.355 33.664 397.495 33.594 397.607 33.538C397.775 33.454 397.943 33.384 398.111 33.328C398.111 33.328 398.125 33.328 398.153 33.328C398.181 33.3 398.195 33.286 398.195 33.286L398.237 33.244C398.349 33.216 398.475 33.174 398.615 33.118C398.671 33.09 398.713 33.076 398.741 33.076C398.937 33.02 399.105 32.964 399.245 32.908C399.385 32.852 399.553 32.81 399.749 32.782C399.749 32.754 399.763 32.74 399.791 32.74C399.819 32.74 399.833 32.74 399.833 32.74H399.875C399.987 32.712 400.113 32.684 400.253 32.656L400.379 32.614C400.547 32.586 400.729 32.558 400.925 32.53H400.967C401.107 32.502 401.275 32.474 401.471 32.446C401.499 32.446 401.527 32.446 401.555 32.446C401.583 32.446 401.597 32.446 401.597 32.446H401.639C401.779 32.418 401.919 32.404 402.059 32.404C402.087 32.404 402.115 32.404 402.143 32.404C402.171 32.404 402.185 32.404 402.185 32.404C402.381 32.404 402.563 32.404 402.731 32.404C402.899 32.404 403.081 32.404 403.277 32.404H403.403C403.767 32.432 404.131 32.474 404.495 32.53H404.621C404.957 32.586 405.293 32.656 405.629 32.74L405.755 32.782C405.951 32.81 406.133 32.852 406.301 32.908C406.441 32.964 406.595 33.02 406.763 33.076C406.791 33.076 406.833 33.09 406.889 33.118C407.001 33.174 407.127 33.216 407.267 33.244L407.309 33.286C407.505 33.37 407.701 33.454 407.897 33.538L407.981 33.58C408.037 33.608 408.121 33.65 408.233 33.706L408.275 33.748L408.191 33.916L408.317 33.748C408.373 33.776 408.415 33.804 408.443 33.832C408.695 33.972 408.947 34.112 409.199 34.252V34.294C409.395 34.406 409.591 34.532 409.787 34.672L409.829 34.714C409.857 34.742 409.899 34.77 409.955 34.798C410.095 34.91 410.249 35.036 410.417 35.176L410.501 35.26C410.641 35.372 410.767 35.484 410.879 35.596H410.921C411.005 35.708 411.089 35.806 411.173 35.89L411.257 35.974C411.397 36.114 411.537 36.254 411.677 36.394L411.551 36.52L411.677 36.436L411.761 36.478C411.817 36.562 411.887 36.66 411.971 36.772L412.055 36.856C412.167 36.968 412.251 37.08 412.307 37.192L412.349 37.234C412.405 37.318 412.475 37.416 412.559 37.528L412.685 37.696C412.741 37.808 412.797 37.892 412.853 37.948L413.063 38.326C413.483 39.11 413.819 39.922 414.071 40.762ZM407.267 41.518C407.379 41.518 407.463 41.476 407.519 41.392C407.603 41.308 407.631 41.21 407.603 41.098C407.463 40.258 406.959 39.558 406.091 38.998C405.223 38.438 404.201 38.158 403.025 38.158C402.297 38.158 401.597 38.284 400.925 38.536C400.253 38.788 399.693 39.138 399.245 39.586C398.797 40.034 398.531 40.538 398.447 41.098C398.419 41.182 398.433 41.28 398.489 41.392C398.573 41.476 398.671 41.518 398.783 41.518H407.267Z" fill="url(#paint1_linear_3721_11686)"/>
<path d="M460 10C460 4.47716 464.477 0 470 0H655C660.523 0 665 4.47715 665 10V280C665 285.523 660.523 290 655 290H470C464.477 290 460 285.523 460 280V10Z" fill="#0B0C13"/>
<rect x="460.5" y="0.5" width="204" height="289" rx="9.5" stroke="url(#paint2_linear_3721_11686)"/>
<path d="M536.728 25.6C536.98 25.6 537.106 25.726 537.106 25.978V54.664C537.106 54.888 536.98 55 536.728 55H530.008C529.756 55 529.63 54.888 529.63 54.664V25.978C529.63 25.726 529.756 25.6 530.008 25.6H536.728ZM554.367 26.818C557.027 27.994 559.141 29.814 560.709 32.278C562.305 34.714 563.103 37.402 563.103 40.342C563.103 43.226 562.333 45.886 560.793 48.322C559.309 50.674 557.335 52.452 554.871 53.656C554.199 53.992 553.653 54.244 553.233 54.412C552.813 54.552 552.099 54.706 551.091 54.874C550.111 55.014 548.935 55.084 547.563 55.084H538.785C538.533 55.084 538.407 54.958 538.407 54.706V26.02C538.407 25.768 538.533 25.642 538.785 25.642H547.353C550.237 25.642 552.575 26.034 554.367 26.818ZM553.653 45.928C554.997 44.556 555.669 42.694 555.669 40.342C555.669 39.278 555.515 38.326 555.207 37.486C554.899 36.646 554.507 35.96 554.031 35.428C553.583 34.868 553.037 34.392 552.393 34C551.749 33.608 551.119 33.314 550.503 33.118C549.915 32.922 549.285 32.768 548.613 32.656C547.969 32.544 547.451 32.474 547.059 32.446C546.667 32.418 546.289 32.404 545.925 32.404C545.701 32.432 545.589 32.558 545.589 32.782V47.86C545.589 48.112 545.715 48.238 545.967 48.238H546.345C547.913 48.238 549.341 48.028 550.629 47.608C551.945 47.188 552.953 46.628 553.653 45.928ZM579.49 24.802C582.206 24.802 584.726 25.502 587.05 26.902C589.374 28.274 591.208 30.15 592.552 32.53C593.896 34.91 594.568 37.5 594.568 40.3C594.568 43.072 593.896 45.648 592.552 48.028C591.208 50.408 589.374 52.298 587.05 53.698C584.726 55.07 582.192 55.756 579.448 55.756C576.732 55.756 574.212 55.07 571.888 53.698C569.564 52.298 567.73 50.408 566.386 48.028C565.042 45.648 564.37 43.058 564.37 40.258C564.37 38.186 564.762 36.198 565.546 34.294C566.358 32.362 567.436 30.71 568.78 29.338C570.124 27.966 571.734 26.874 573.61 26.062C575.486 25.222 577.446 24.802 579.49 24.802ZM573.61 46.264C575.234 47.916 577.18 48.742 579.448 48.742C581.744 48.742 583.704 47.916 585.328 46.264C586.952 44.612 587.764 42.624 587.764 40.3C587.764 37.948 586.952 35.946 585.328 34.294C583.704 32.642 581.744 31.816 579.448 31.816C577.18 31.816 575.234 32.642 573.61 34.294C572.014 35.946 571.216 37.948 571.216 40.3C571.216 42.624 572.014 44.612 573.61 46.264Z" fill="url(#paint3_linear_3721_11686)"/>
<path d="M0 10C0 4.47716 4.47715 0 10 0H195C200.523 0 205 4.47715 205 10V280C205 285.523 200.523 290 195 290H10C4.47716 290 0 285.523 0 280V10Z" fill="#0B0C13"/>
<rect x="0.5" y="0.5" width="204" height="289" rx="9.5" stroke="url(#paint4_linear_3721_11686)"/>
<path d="M58.896 54.622C58.924 54.734 58.896 54.846 58.812 54.958C58.756 55.07 58.672 55.126 58.56 55.126H51.294C51.07 55.126 50.916 55.014 50.832 54.79L49.32 50.17C49.264 50.002 49.152 49.918 48.984 49.918H39.996C39.8 49.918 39.674 50.002 39.618 50.17L38.064 54.874C38.008 55.042 37.896 55.126 37.728 55.126H30.42C30.28 55.126 30.168 55.07 30.084 54.958C30.028 54.846 30.028 54.734 30.084 54.622L40.878 25.936C40.962 25.74 41.102 25.642 41.298 25.642H47.682C47.878 25.642 48.004 25.726 48.06 25.894L58.896 54.622ZM46.758 43.912C46.87 43.912 46.954 43.856 47.01 43.744C47.094 43.632 47.122 43.52 47.094 43.408L44.826 36.562C44.77 36.366 44.644 36.268 44.448 36.268C44.28 36.268 44.168 36.366 44.112 36.562L41.844 43.408C41.816 43.52 41.83 43.632 41.886 43.744C41.97 43.856 42.068 43.912 42.18 43.912H46.758ZM66.35 32.74C66.574 32.74 66.686 32.852 66.686 33.076V54.664C66.686 54.888 66.574 55 66.35 55H60.092C59.868 55 59.756 54.888 59.756 54.664V33.076C59.756 32.852 59.868 32.74 60.092 32.74H66.35ZM66.35 25.726C66.574 25.726 66.686 25.838 66.686 26.062V30.64C66.686 30.864 66.574 30.976 66.35 30.976H60.092C59.868 30.976 59.756 30.864 59.756 30.64V26.062C59.756 25.838 59.868 25.726 60.092 25.726H66.35ZM80.2963 32.74C80.5483 32.74 80.6743 32.866 80.6743 33.118L80.4643 38.326C80.4363 38.578 80.2963 38.69 80.0443 38.662C78.8963 38.55 78.0563 38.564 77.5243 38.704C76.8523 38.872 76.3903 39.236 76.1383 39.796C75.8863 40.3 75.7603 41.07 75.7603 42.106V54.664C75.7603 54.888 75.6483 55 75.4243 55H68.7463C68.5223 55 68.4103 54.888 68.4103 54.664V33.076C68.4103 32.852 68.5223 32.74 68.7463 32.74H75.0043C75.2283 32.74 75.3403 32.852 75.3403 33.076V33.706C75.3403 33.79 75.3683 33.846 75.4243 33.874C75.4803 33.902 75.5363 33.902 75.5923 33.874C76.7683 33.146 78.3363 32.768 80.2963 32.74ZM104.787 25.726C105.039 25.726 105.165 25.838 105.165 26.062V54.622C105.165 54.874 105.039 55 104.787 55H98.5709C98.3189 55 98.1929 54.874 98.1929 54.622V54.286C98.1929 54.09 98.1089 54.048 97.9409 54.16C96.1209 55.168 94.1609 55.672 92.0609 55.672C88.8129 55.672 86.0269 54.538 83.7029 52.27C81.4069 50.002 80.2589 47.258 80.2589 44.038C80.2589 40.818 81.4069 38.074 83.7029 35.806C86.0269 33.51 88.8129 32.362 92.0609 32.362C94.1609 32.362 96.1209 32.88 97.9409 33.916C97.9969 33.944 98.0529 33.944 98.1089 33.916C98.1649 33.888 98.1929 33.832 98.1929 33.748V26.062C98.1929 25.838 98.3189 25.726 98.5709 25.726H104.787ZM93.1529 49.372C94.6089 49.372 95.8129 48.854 96.7649 47.818C97.7169 46.782 98.1929 45.522 98.1929 44.038C98.1929 42.526 97.7169 41.266 96.7649 40.258C95.8129 39.222 94.6089 38.704 93.1529 38.704C91.6409 38.704 90.3529 39.222 89.2889 40.258C88.2529 41.294 87.7349 42.554 87.7349 44.038C87.7349 45.494 88.2529 46.754 89.2889 47.818C90.3529 48.854 91.6409 49.372 93.1529 49.372ZM118.728 32.74C118.98 32.74 119.106 32.866 119.106 33.118L118.896 38.326C118.868 38.578 118.728 38.69 118.476 38.662C117.328 38.55 116.488 38.564 115.956 38.704C115.284 38.872 114.822 39.236 114.57 39.796C114.318 40.3 114.192 41.07 114.192 42.106V54.664C114.192 54.888 114.08 55 113.856 55H107.178C106.954 55 106.842 54.888 106.842 54.664V33.076C106.842 32.852 106.954 32.74 107.178 32.74H113.436C113.66 32.74 113.772 32.852 113.772 33.076V33.706C113.772 33.79 113.8 33.846 113.856 33.874C113.912 33.902 113.968 33.902 114.024 33.874C115.2 33.146 116.768 32.768 118.728 32.74ZM130.493 32.404C132.117 32.404 133.657 32.712 135.113 33.328C136.569 33.944 137.815 34.77 138.851 35.806C139.915 36.842 140.755 38.088 141.371 39.544C142.015 40.972 142.337 42.47 142.337 44.038C142.337 47.258 141.175 50.016 138.851 52.312C136.555 54.58 133.769 55.714 130.493 55.714C127.245 55.714 124.459 54.58 122.135 52.312C119.839 50.016 118.691 47.258 118.691 44.038C118.691 40.818 119.839 38.074 122.135 35.806C124.459 33.538 127.245 32.404 130.493 32.404ZM130.493 49.12C131.921 49.12 133.139 48.63 134.147 47.65C135.155 46.642 135.659 45.438 135.659 44.038C135.659 42.638 135.155 41.448 134.147 40.468C133.139 39.46 131.921 38.956 130.493 38.956C129.093 38.956 127.889 39.46 126.881 40.468C125.873 41.448 125.369 42.638 125.369 44.038C125.369 44.962 125.593 45.816 126.041 46.6C126.517 47.384 127.147 48 127.931 48.448C128.715 48.896 129.569 49.12 130.493 49.12ZM156.859 32.404C160.107 32.404 162.879 33.538 165.175 35.806C167.499 38.074 168.661 40.818 168.661 44.038C168.661 47.258 167.499 50.016 165.175 52.312C162.879 54.58 160.107 55.714 156.859 55.714C154.759 55.714 152.799 55.196 150.979 54.16C150.811 54.048 150.727 54.104 150.727 54.328V62.014C150.727 62.238 150.615 62.35 150.391 62.35H144.133C143.909 62.35 143.797 62.238 143.797 62.014V33.076C143.797 32.852 143.909 32.74 144.133 32.74H150.391C150.615 32.74 150.727 32.852 150.727 33.076V33.748C150.727 33.832 150.755 33.888 150.811 33.916C150.867 33.944 150.923 33.944 150.979 33.916C152.799 32.908 154.759 32.404 156.859 32.404ZM155.809 49.372C157.293 49.372 158.567 48.854 159.631 47.818C160.695 46.782 161.227 45.522 161.227 44.038C161.227 42.554 160.695 41.294 159.631 40.258C158.567 39.222 157.293 38.704 155.809 38.704C154.325 38.704 153.107 39.222 152.155 40.258C151.203 41.294 150.727 42.568 150.727 44.08C150.727 45.564 151.203 46.824 152.155 47.86C153.107 48.868 154.325 49.372 155.809 49.372Z" fill="url(#paint5_linear_3721_11686)"/>
<rect x="14" y="230" width="177" height="40" rx="5" fill="url(#paint6_linear_3721_11686)"/>
<path d="M92.5753 248.129C92.2273 245.952 90.522 244.679 88.3693 244.679C85.7344 244.679 83.7905 246.653 83.7905 249.909C83.7905 253.165 85.7244 255.139 88.3693 255.139C90.6065 255.139 92.2422 253.737 92.5753 251.724L91.0241 251.719C90.7607 253.021 89.6669 253.737 88.3793 253.737C86.6342 253.737 85.3168 252.4 85.3168 249.909C85.3168 247.438 86.6293 246.081 88.3842 246.081C89.6818 246.081 90.7706 246.812 91.0241 248.129H92.5753ZM95.7807 244.818H94.2942V255H95.7807V244.818ZM100.003 255.169C101.266 255.169 101.977 254.528 102.26 253.956H102.32V255H103.771V249.929C103.771 247.707 102.021 247.264 100.808 247.264C99.4261 247.264 98.1534 247.821 97.6562 249.213L99.0533 249.531C99.272 248.989 99.8288 248.467 100.828 248.467C101.788 248.467 102.28 248.969 102.28 249.835V249.869C102.28 250.411 101.723 250.401 100.351 250.56C98.9041 250.729 97.4226 251.107 97.4226 252.842C97.4226 254.344 98.5511 255.169 100.003 255.169ZM100.326 253.976C99.4858 253.976 98.8793 253.598 98.8793 252.862C98.8793 252.067 99.5852 251.783 100.445 251.669C100.928 251.604 102.071 251.475 102.285 251.261V252.246C102.285 253.151 101.564 253.976 100.326 253.976ZM105.751 255H107.238V247.364H105.751V255ZM106.502 246.185C107.014 246.185 107.442 245.788 107.442 245.3C107.442 244.813 107.014 244.411 106.502 244.411C105.985 244.411 105.562 244.813 105.562 245.3C105.562 245.788 105.985 246.185 106.502 246.185ZM109.238 255H110.724V250.292C110.724 249.263 111.445 248.547 112.29 248.547C113.115 248.547 113.687 249.094 113.687 249.924V255H115.169V250.133C115.169 249.213 115.73 248.547 116.7 248.547C117.485 248.547 118.132 248.984 118.132 250.018V255H119.618V249.879C119.618 248.134 118.644 247.264 117.262 247.264C116.163 247.264 115.338 247.791 114.97 248.607H114.89C114.557 247.771 113.856 247.264 112.837 247.264C111.828 247.264 111.077 247.766 110.759 248.607H110.664V247.364H109.238V255Z" fill="black"/>
<rect x="244" y="230" width="177" height="40" rx="5" fill="url(#paint7_linear_3721_11686)"/>
<path d="M322.575 248.129C322.227 245.952 320.522 244.679 318.369 244.679C315.734 244.679 313.79 246.653 313.79 249.909C313.79 253.165 315.724 255.139 318.369 255.139C320.607 255.139 322.242 253.737 322.575 251.724L321.024 251.719C320.761 253.021 319.667 253.737 318.379 253.737C316.634 253.737 315.317 252.4 315.317 249.909C315.317 247.438 316.629 246.081 318.384 246.081C319.682 246.081 320.771 246.812 321.024 248.129H322.575ZM325.781 244.818H324.294V255H325.781V244.818ZM330.003 255.169C331.266 255.169 331.977 254.528 332.26 253.956H332.32V255H333.771V249.929C333.771 247.707 332.021 247.264 330.808 247.264C329.426 247.264 328.153 247.821 327.656 249.213L329.053 249.531C329.272 248.989 329.829 248.467 330.828 248.467C331.788 248.467 332.28 248.969 332.28 249.835V249.869C332.28 250.411 331.723 250.401 330.351 250.56C328.904 250.729 327.423 251.107 327.423 252.842C327.423 254.344 328.551 255.169 330.003 255.169ZM330.326 253.976C329.486 253.976 328.879 253.598 328.879 252.862C328.879 252.067 329.585 251.783 330.445 251.669C330.928 251.604 332.071 251.475 332.285 251.261V252.246C332.285 253.151 331.564 253.976 330.326 253.976ZM335.751 255H337.238V247.364H335.751V255ZM336.502 246.185C337.014 246.185 337.442 245.788 337.442 245.3C337.442 244.813 337.014 244.411 336.502 244.411C335.985 244.411 335.562 244.813 335.562 245.3C335.562 245.788 335.985 246.185 336.502 246.185ZM339.238 255H340.724V250.292C340.724 249.263 341.445 248.547 342.29 248.547C343.115 248.547 343.687 249.094 343.687 249.924V255H345.169V250.133C345.169 249.213 345.73 248.547 346.7 248.547C347.485 248.547 348.132 248.984 348.132 250.018V255H349.618V249.879C349.618 248.134 348.644 247.264 347.262 247.264C346.163 247.264 345.338 247.791 344.97 248.607H344.89C344.557 247.771 343.856 247.264 342.837 247.264C341.828 247.264 341.077 247.766 340.759 248.607H340.664V247.364H339.238V255Z" fill="black"/>
<rect x="474" y="230" width="177" height="40" rx="5" fill="url(#paint8_linear_3721_11686)"/>
<path d="M552.575 248.129C552.227 245.952 550.522 244.679 548.369 244.679C545.734 244.679 543.79 246.653 543.79 249.909C543.79 253.165 545.724 255.139 548.369 255.139C550.607 255.139 552.242 253.737 552.575 251.724L551.024 251.719C550.761 253.021 549.667 253.737 548.379 253.737C546.634 253.737 545.317 252.4 545.317 249.909C545.317 247.438 546.629 246.081 548.384 246.081C549.682 246.081 550.771 246.812 551.024 248.129H552.575ZM555.781 244.818H554.294V255H555.781V244.818ZM560.003 255.169C561.266 255.169 561.977 254.528 562.26 253.956H562.32V255H563.771V249.929C563.771 247.707 562.021 247.264 560.808 247.264C559.426 247.264 558.153 247.821 557.656 249.213L559.053 249.531C559.272 248.989 559.829 248.467 560.828 248.467C561.788 248.467 562.28 248.969 562.28 249.835V249.869C562.28 250.411 561.723 250.401 560.351 250.56C558.904 250.729 557.423 251.107 557.423 252.842C557.423 254.344 558.551 255.169 560.003 255.169ZM560.326 253.976C559.486 253.976 558.879 253.598 558.879 252.862C558.879 252.067 559.585 251.783 560.445 251.669C560.928 251.604 562.071 251.475 562.285 251.261V252.246C562.285 253.151 561.564 253.976 560.326 253.976ZM565.751 255H567.238V247.364H565.751V255ZM566.502 246.185C567.014 246.185 567.442 245.788 567.442 245.3C567.442 244.813 567.014 244.411 566.502 244.411C565.985 244.411 565.562 244.813 565.562 245.3C565.562 245.788 565.985 246.185 566.502 246.185ZM569.238 255H570.724V250.292C570.724 249.263 571.445 248.547 572.29 248.547C573.115 248.547 573.687 249.094 573.687 249.924V255H575.169V250.133C575.169 249.213 575.73 248.547 576.7 248.547C577.485 248.547 578.132 248.984 578.132 250.018V255H579.618V249.879C579.618 248.134 578.644 247.264 577.262 247.264C576.163 247.264 575.338 247.791 574.97 248.607H574.89C574.557 247.771 573.856 247.264 572.837 247.264C571.828 247.264 571.077 247.766 570.759 248.607H570.664V247.364H569.238V255Z" fill="black"/>
<path d="M38.1222 173.909H36.4602L41.267 187H42.9034L47.7102 173.909H46.0483L42.1619 184.929H42.0085L38.1222 173.909ZM60.1795 180.455C60.1795 176.312 57.7505 173.73 54.4011 173.73C51.0517 173.73 48.6227 176.312 48.6227 180.455C48.6227 184.597 51.0517 187.179 54.4011 187.179C57.7505 187.179 60.1795 184.597 60.1795 180.455ZM58.6454 180.455C58.6454 183.855 56.7789 185.696 54.4011 185.696C52.0233 185.696 50.1568 183.855 50.1568 180.455C50.1568 177.054 52.0233 175.213 54.4011 175.213C56.7789 175.213 58.6454 177.054 58.6454 180.455ZM62.845 187H70.5154V185.594H64.4302V173.909H62.845V187ZM70.5138 175.315H74.6303V187H76.2156V175.315H80.332V173.909H70.5138V175.315ZM82.9528 185.325C83.5856 185.325 84.1033 184.808 84.1033 184.175C84.1033 183.542 83.5856 183.024 82.9528 183.024C82.32 183.024 81.8022 183.542 81.8022 184.175C81.8022 184.808 82.32 185.325 82.9528 185.325ZM82.9528 178.703C83.5856 178.703 84.1033 178.185 84.1033 177.553C84.1033 176.92 83.5856 176.402 82.9528 176.402C82.32 176.402 81.8022 176.92 81.8022 177.553C81.8022 178.185 82.32 178.703 82.9528 178.703ZM96.1172 187.179C99.0064 187.179 100.668 184.731 100.668 180.455C100.668 176.21 98.9808 173.73 96.1172 173.73C93.2536 173.73 91.5661 176.21 91.5661 180.455C91.5661 184.731 93.228 187.179 96.1172 187.179ZM96.1172 185.773C94.2124 185.773 93.1001 183.862 93.1001 180.455C93.1001 177.054 94.2251 175.111 96.1172 175.111C98.0092 175.111 99.1342 177.054 99.1342 180.455C99.1342 183.862 98.022 185.773 96.1172 185.773ZM107.367 187.179C110.256 187.179 111.918 184.731 111.918 180.455C111.918 176.21 110.231 173.73 107.367 173.73C104.504 173.73 102.816 176.21 102.816 180.455C102.816 184.731 104.478 187.179 107.367 187.179ZM107.367 185.773C105.462 185.773 104.35 183.862 104.35 180.455C104.35 177.054 105.475 175.111 107.367 175.111C109.259 175.111 110.384 177.054 110.384 180.455C110.384 183.862 109.272 185.773 107.367 185.773ZM118.617 187.179C121.506 187.179 123.168 184.731 123.168 180.455C123.168 176.21 121.481 173.73 118.617 173.73C115.754 173.73 114.066 176.21 114.066 180.455C114.066 184.731 115.728 187.179 118.617 187.179ZM118.617 185.773C116.712 185.773 115.6 183.862 115.6 180.455C115.6 177.054 116.725 175.111 118.617 175.111C120.509 175.111 121.634 177.054 121.634 180.455C121.634 183.862 120.522 185.773 118.617 185.773ZM129.867 187.179C132.756 187.179 134.418 184.731 134.418 180.455C134.418 176.21 132.731 173.73 129.867 173.73C127.004 173.73 125.316 176.21 125.316 180.455C125.316 184.731 126.978 187.179 129.867 187.179ZM129.867 185.773C127.962 185.773 126.85 183.862 126.85 180.455C126.85 177.054 127.975 175.111 129.867 175.111C131.759 175.111 132.884 177.054 132.884 180.455C132.884 183.862 131.772 185.773 129.867 185.773ZM141.117 187.179C144.006 187.179 145.668 184.731 145.668 180.455C145.668 176.21 143.981 173.73 141.117 173.73C138.254 173.73 136.566 176.21 136.566 180.455C136.566 184.731 138.228 187.179 141.117 187.179ZM141.117 185.773C139.212 185.773 138.1 183.862 138.1 180.455C138.1 177.054 139.225 175.111 141.117 175.111C143.009 175.111 144.134 177.054 144.134 180.455C144.134 183.862 143.022 185.773 141.117 185.773ZM152.367 187.179C155.256 187.179 156.918 184.731 156.918 180.455C156.918 176.21 155.231 173.73 152.367 173.73C149.504 173.73 147.816 176.21 147.816 180.455C147.816 184.731 149.478 187.179 152.367 187.179ZM152.367 185.773C150.462 185.773 149.35 183.862 149.35 180.455C149.35 177.054 150.475 175.111 152.367 175.111C154.259 175.111 155.384 177.054 155.384 180.455C155.384 183.862 154.272 185.773 152.367 185.773ZM163.617 187.179C166.506 187.179 168.168 184.731 168.168 180.455C168.168 176.21 166.481 173.73 163.617 173.73C160.754 173.73 159.066 176.21 159.066 180.455C159.066 184.731 160.728 187.179 163.617 187.179ZM163.617 185.773C161.712 185.773 160.6 183.862 160.6 180.455C160.6 177.054 161.725 175.111 163.617 175.111C165.509 175.111 166.634 177.054 166.634 180.455C166.634 183.862 165.522 185.773 163.617 185.773Z" fill="white"/>
<path d="M271.122 173.909H269.46L274.267 187H275.903L280.71 173.909H279.048L275.162 184.929H275.009L271.122 173.909ZM293.18 180.455C293.18 176.312 290.751 173.73 287.401 173.73C284.052 173.73 281.623 176.312 281.623 180.455C281.623 184.597 284.052 187.179 287.401 187.179C290.751 187.179 293.18 184.597 293.18 180.455ZM291.645 180.455C291.645 183.855 289.779 185.696 287.401 185.696C285.023 185.696 283.157 183.855 283.157 180.455C283.157 177.054 285.023 175.213 287.401 175.213C289.779 175.213 291.645 177.054 291.645 180.455ZM295.845 187H303.515V185.594H297.43V173.909H295.845V187ZM303.514 175.315H307.63V187H309.216V175.315H313.332V173.909H303.514V175.315ZM315.953 185.325C316.586 185.325 317.103 184.808 317.103 184.175C317.103 183.542 316.586 183.024 315.953 183.024C315.32 183.024 314.802 183.542 314.802 184.175C314.802 184.808 315.32 185.325 315.953 185.325ZM315.953 178.703C316.586 178.703 317.103 178.185 317.103 177.553C317.103 176.92 316.586 176.402 315.953 176.402C315.32 176.402 314.802 176.92 314.802 177.553C314.802 178.185 315.32 178.703 315.953 178.703ZM329.117 187.179C332.006 187.179 333.668 184.731 333.668 180.455C333.668 176.21 331.981 173.73 329.117 173.73C326.254 173.73 324.566 176.21 324.566 180.455C324.566 184.731 326.228 187.179 329.117 187.179ZM329.117 185.773C327.212 185.773 326.1 183.862 326.1 180.455C326.1 177.054 327.225 175.111 329.117 175.111C331.009 175.111 332.134 177.054 332.134 180.455C332.134 183.862 331.022 185.773 329.117 185.773ZM340.367 187.179C343.256 187.179 344.918 184.731 344.918 180.455C344.918 176.21 343.231 173.73 340.367 173.73C337.504 173.73 335.816 176.21 335.816 180.455C335.816 184.731 337.478 187.179 340.367 187.179ZM340.367 185.773C338.462 185.773 337.35 183.862 337.35 180.455C337.35 177.054 338.475 175.111 340.367 175.111C342.259 175.111 343.384 177.054 343.384 180.455C343.384 183.862 342.272 185.773 340.367 185.773ZM351.617 187.179C354.506 187.179 356.168 184.731 356.168 180.455C356.168 176.21 354.481 173.73 351.617 173.73C348.754 173.73 347.066 176.21 347.066 180.455C347.066 184.731 348.728 187.179 351.617 187.179ZM351.617 185.773C349.712 185.773 348.6 183.862 348.6 180.455C348.6 177.054 349.725 175.111 351.617 175.111C353.509 175.111 354.634 177.054 354.634 180.455C354.634 183.862 353.522 185.773 351.617 185.773ZM362.867 187.179C365.756 187.179 367.418 184.731 367.418 180.455C367.418 176.21 365.731 173.73 362.867 173.73C360.004 173.73 358.316 176.21 358.316 180.455C358.316 184.731 359.978 187.179 362.867 187.179ZM362.867 185.773C360.962 185.773 359.85 183.862 359.85 180.455C359.85 177.054 360.975 175.111 362.867 175.111C364.759 175.111 365.884 177.054 365.884 180.455C365.884 183.862 364.772 185.773 362.867 185.773ZM374.117 187.179C377.006 187.179 378.668 184.731 378.668 180.455C378.668 176.21 376.981 173.73 374.117 173.73C371.254 173.73 369.566 176.21 369.566 180.455C369.566 184.731 371.228 187.179 374.117 187.179ZM374.117 185.773C372.212 185.773 371.1 183.862 371.1 180.455C371.1 177.054 372.225 175.111 374.117 175.111C376.009 175.111 377.134 177.054 377.134 180.455C377.134 183.862 376.022 185.773 374.117 185.773ZM385.367 187.179C388.256 187.179 389.918 184.731 389.918 180.455C389.918 176.21 388.231 173.73 385.367 173.73C382.504 173.73 380.816 176.21 380.816 180.455C380.816 184.731 382.478 187.179 385.367 187.179ZM385.367 185.773C383.462 185.773 382.35 183.862 382.35 180.455C382.35 177.054 383.475 175.111 385.367 175.111C387.259 175.111 388.384 177.054 388.384 180.455C388.384 183.862 387.272 185.773 385.367 185.773ZM396.617 187.179C399.506 187.179 401.168 184.731 401.168 180.455C401.168 176.21 399.481 173.73 396.617 173.73C393.754 173.73 392.066 176.21 392.066 180.455C392.066 184.731 393.728 187.179 396.617 187.179ZM396.617 185.773C394.712 185.773 393.6 183.862 393.6 180.455C393.6 177.054 394.725 175.111 396.617 175.111C398.509 175.111 399.634 177.054 399.634 180.455C399.634 183.862 398.522 185.773 396.617 185.773Z" fill="white"/>
<path d="M501.122 173.909H499.46L504.267 187H505.903L510.71 173.909H509.048L505.162 184.929H505.009L501.122 173.909ZM523.18 180.455C523.18 176.312 520.751 173.73 517.401 173.73C514.052 173.73 511.623 176.312 511.623 180.455C511.623 184.597 514.052 187.179 517.401 187.179C520.751 187.179 523.18 184.597 523.18 180.455ZM521.645 180.455C521.645 183.855 519.779 185.696 517.401 185.696C515.023 185.696 513.157 183.855 513.157 180.455C513.157 177.054 515.023 175.213 517.401 175.213C519.779 175.213 521.645 177.054 521.645 180.455ZM525.845 187H533.515V185.594H527.43V173.909H525.845V187ZM533.514 175.315H537.63V187H539.216V175.315H543.332V173.909H533.514V175.315ZM545.953 185.325C546.586 185.325 547.103 184.808 547.103 184.175C547.103 183.542 546.586 183.024 545.953 183.024C545.32 183.024 544.802 183.542 544.802 184.175C544.802 184.808 545.32 185.325 545.953 185.325ZM545.953 178.703C546.586 178.703 547.103 178.185 547.103 177.553C547.103 176.92 546.586 176.402 545.953 176.402C545.32 176.402 544.802 176.92 544.802 177.553C544.802 178.185 545.32 178.703 545.953 178.703ZM559.117 187.179C562.006 187.179 563.668 184.731 563.668 180.455C563.668 176.21 561.981 173.73 559.117 173.73C556.254 173.73 554.566 176.21 554.566 180.455C554.566 184.731 556.228 187.179 559.117 187.179ZM559.117 185.773C557.212 185.773 556.1 183.862 556.1 180.455C556.1 177.054 557.225 175.111 559.117 175.111C561.009 175.111 562.134 177.054 562.134 180.455C562.134 183.862 561.022 185.773 559.117 185.773ZM570.367 187.179C573.256 187.179 574.918 184.731 574.918 180.455C574.918 176.21 573.231 173.73 570.367 173.73C567.504 173.73 565.816 176.21 565.816 180.455C565.816 184.731 567.478 187.179 570.367 187.179ZM570.367 185.773C568.462 185.773 567.35 183.862 567.35 180.455C567.35 177.054 568.475 175.111 570.367 175.111C572.259 175.111 573.384 177.054 573.384 180.455C573.384 183.862 572.272 185.773 570.367 185.773ZM581.617 187.179C584.506 187.179 586.168 184.731 586.168 180.455C586.168 176.21 584.481 173.73 581.617 173.73C578.754 173.73 577.066 176.21 577.066 180.455C577.066 184.731 578.728 187.179 581.617 187.179ZM581.617 185.773C579.712 185.773 578.6 183.862 578.6 180.455C578.6 177.054 579.725 175.111 581.617 175.111C583.509 175.111 584.634 177.054 584.634 180.455C584.634 183.862 583.522 185.773 581.617 185.773ZM592.867 187.179C595.756 187.179 597.418 184.731 597.418 180.455C597.418 176.21 595.731 173.73 592.867 173.73C590.004 173.73 588.316 176.21 588.316 180.455C588.316 184.731 589.978 187.179 592.867 187.179ZM592.867 185.773C590.962 185.773 589.85 183.862 589.85 180.455C589.85 177.054 590.975 175.111 592.867 175.111C594.759 175.111 595.884 177.054 595.884 180.455C595.884 183.862 594.772 185.773 592.867 185.773ZM604.117 187.179C607.006 187.179 608.668 184.731 608.668 180.455C608.668 176.21 606.981 173.73 604.117 173.73C601.254 173.73 599.566 176.21 599.566 180.455C599.566 184.731 601.228 187.179 604.117 187.179ZM604.117 185.773C602.212 185.773 601.1 183.862 601.1 180.455C601.1 177.054 602.225 175.111 604.117 175.111C606.009 175.111 607.134 177.054 607.134 180.455C607.134 183.862 606.022 185.773 604.117 185.773ZM615.367 187.179C618.256 187.179 619.918 184.731 619.918 180.455C619.918 176.21 618.231 173.73 615.367 173.73C612.504 173.73 610.816 176.21 610.816 180.455C610.816 184.731 612.478 187.179 615.367 187.179ZM615.367 185.773C613.462 185.773 612.35 183.862 612.35 180.455C612.35 177.054 613.475 175.111 615.367 175.111C617.259 175.111 618.384 177.054 618.384 180.455C618.384 183.862 617.272 185.773 615.367 185.773ZM626.617 187.179C629.506 187.179 631.168 184.731 631.168 180.455C631.168 176.21 629.481 173.73 626.617 173.73C623.754 173.73 622.066 176.21 622.066 180.455C622.066 184.731 623.728 187.179 626.617 187.179ZM626.617 185.773C624.712 185.773 623.6 183.862 623.6 180.455C623.6 177.054 624.725 175.111 626.617 175.111C628.509 175.111 629.634 177.054 629.634 180.455C629.634 183.862 628.522 185.773 626.617 185.773Z" fill="white"/>
<path d="M255 163L411 163" stroke="url(#paint9_linear_3721_11686)" stroke-width="3"/>
<path d="M25 163L181 163" stroke="url(#paint10_linear_3721_11686)" stroke-width="3"/>
<path d="M485 163L641 163" stroke="url(#paint11_linear_3721_11686)" stroke-width="3"/>
<path d="M255 197L411 197" stroke="url(#paint12_linear_3721_11686)" stroke-width="3"/>
<path d="M25 197L181 197" stroke="url(#paint13_linear_3721_11686)" stroke-width="3"/>
<path d="M485 197L641 197" stroke="url(#paint14_linear_3721_11686)" stroke-width="3"/>
<path d="M87.4346 93.4346L87.4344 93.4348C78.9102 101.959 78.9102 115.779 87.4344 124.303L87.4346 124.304C95.9587 132.828 109.779 132.828 118.303 124.304L118.304 124.304C126.828 115.779 126.828 101.959 118.304 93.4348L118.303 93.4346C109.779 84.9104 95.9587 84.9104 87.4346 93.4346Z" fill="#071927"/>
<path d="M102.869 92.3446C105.001 92.3436 107.113 92.7545 109.089 93.5546C111.637 94.5872 113.887 96.2402 115.634 98.3633C117.381 100.486 118.569 103.012 119.092 105.712C119.703 108.86 119.388 112.118 118.185 115.092C117.152 117.64 115.499 119.889 113.376 121.636C111.253 123.383 108.727 124.572 106.028 125.095C102.879 125.706 99.6211 125.39 96.6479 124.187C94.0998 123.155 91.8501 121.502 90.1032 119.379C88.3562 117.256 87.1675 114.73 86.6449 112.031C86.0339 108.882 86.349 105.624 87.5522 102.651C88.5845 100.102 90.2373 97.8523 92.3605 96.1051C94.4836 94.3578 97.0097 93.1688 99.7092 92.6462C100.75 92.4454 101.808 92.3444 102.869 92.3446ZM102.869 89.2734C97.8531 89.2734 92.8376 91.1868 89.0109 95.0134C81.3577 102.667 81.3577 115.075 89.0109 122.729C92.8376 126.555 97.8531 128.468 102.869 128.468C107.884 128.468 112.899 126.555 116.726 122.729C124.379 115.075 124.379 102.667 116.726 95.0134C112.899 91.1855 107.884 89.2734 102.869 89.2734Z" fill="url(#paint15_linear_3721_11686)"/>
<path d="M95.633 106.613C95.2424 106.913 95.7682 109.489 96.1373 109.857C96.5065 110.225 99.7124 113.093 99.7124 113.093L100.686 111.68C100.686 111.68 96.1389 106.24 95.633 106.613Z" fill="url(#paint16_linear_3721_11686)"/>
<path d="M88.595 129.472L110.161 114.523C110.525 114.27 110.812 111.698 110.374 111.395C109.935 111.093 88.595 129.472 88.595 129.472Z" fill="url(#paint17_linear_3721_11686)"/>
<path d="M116.201 88.0186L104.75 106.687L105.621 107.433L116.201 88.0186Z" fill="url(#paint18_linear_3721_11686)"/>
<path d="M115.748 87.7595L95.6318 106.612C95.6009 106.641 95.5763 106.676 95.5596 106.715C95.5429 106.754 95.5344 106.796 95.5346 106.838C95.5349 106.88 95.5439 106.922 95.5611 106.961C95.5783 107 95.6033 107.034 95.6346 107.063L100.686 111.68L88.2095 129.107C88.0283 129.361 88.3529 129.667 88.5949 129.471L110.369 111.869C110.405 111.84 110.433 111.804 110.453 111.763C110.472 111.722 110.483 111.678 110.483 111.632C110.484 111.587 110.474 111.542 110.455 111.501C110.436 111.46 110.408 111.423 110.374 111.394L104.793 106.709L116.159 88.0937C116.321 87.8289 115.975 87.5464 115.748 87.7595Z" fill="#F3FC1F"/>
<path d="M108.487 94.3511L112.116 90.9492" stroke="#071927" stroke-width="0.5" stroke-miterlimit="10"/>
<path d="M92.7964 126.743L96.8881 123.91" stroke="#071927" stroke-width="0.5" stroke-miterlimit="10"/>
<path d="M320.435 93.4346L320.434 93.4348C311.91 101.959 311.91 115.779 320.434 124.303L320.435 124.304C328.959 132.828 342.779 132.828 351.303 124.304L351.304 124.304C359.828 115.779 359.828 101.959 351.304 93.4348L351.303 93.4346C342.779 84.9104 328.959 84.9104 320.435 93.4346Z" fill="#071927"/>
<path d="M335.869 92.3446C338.001 92.3436 340.113 92.7545 342.089 93.5546C344.637 94.5872 346.887 96.2402 348.634 98.3633C350.381 100.486 351.569 103.012 352.092 105.712C352.703 108.86 352.388 112.118 351.185 115.092C350.152 117.64 348.499 119.889 346.376 121.636C344.253 123.383 341.727 124.572 339.028 125.095C335.879 125.706 332.621 125.39 329.648 124.187C327.1 123.155 324.85 121.502 323.103 119.379C321.356 117.256 320.168 114.73 319.645 112.031C319.034 108.882 319.349 105.624 320.552 102.651C321.584 100.102 323.237 97.8523 325.36 96.1051C327.484 94.3578 330.01 93.1688 332.709 92.6462C333.75 92.4454 334.808 92.3444 335.869 92.3446ZM335.869 89.2734C330.853 89.2734 325.838 91.1868 322.011 95.0134C314.358 102.667 314.358 115.075 322.011 122.729C325.838 126.555 330.853 128.468 335.869 128.468C340.884 128.468 345.899 126.555 349.726 122.729C357.379 115.075 357.379 102.667 349.726 95.0134C345.899 91.1855 340.884 89.2734 335.869 89.2734Z" fill="url(#paint19_linear_3721_11686)"/>
<path d="M328.633 106.613C328.242 106.913 328.768 109.489 329.137 109.857C329.506 110.225 332.712 113.093 332.712 113.093L333.686 111.68C333.686 111.68 329.139 106.24 328.633 106.613Z" fill="url(#paint20_linear_3721_11686)"/>
<path d="M321.595 129.472L343.161 114.523C343.525 114.27 343.812 111.698 343.374 111.395C342.935 111.093 321.595 129.472 321.595 129.472Z" fill="url(#paint21_linear_3721_11686)"/>
<path d="M349.201 88.0186L337.75 106.687L338.621 107.433L349.201 88.0186Z" fill="url(#paint22_linear_3721_11686)"/>
<path d="M348.748 87.7595L328.632 106.612C328.601 106.641 328.576 106.676 328.56 106.715C328.543 106.754 328.534 106.796 328.535 106.838C328.535 106.88 328.544 106.922 328.561 106.961C328.578 107 328.603 107.034 328.635 107.063L333.686 111.68L321.209 129.107C321.028 129.361 321.353 129.667 321.595 129.471L343.369 111.869C343.405 111.84 343.433 111.804 343.453 111.763C343.472 111.722 343.483 111.678 343.483 111.632C343.484 111.587 343.474 111.542 343.455 111.501C343.436 111.46 343.408 111.423 343.374 111.394L337.793 106.709L349.159 88.0937C349.321 87.8289 348.975 87.5464 348.748 87.7595Z" fill="#F3FC1F"/>
<path d="M341.487 94.3511L345.116 90.9492" stroke="#071927" stroke-width="0.5" stroke-miterlimit="10"/>
<path d="M325.796 126.743L329.888 123.91" stroke="#071927" stroke-width="0.5" stroke-miterlimit="10"/>
<path d="M550.435 93.4346L550.434 93.4348C541.91 101.959 541.91 115.779 550.434 124.303L550.435 124.304C558.959 132.828 572.779 132.828 581.303 124.304L581.304 124.304C589.828 115.779 589.828 101.959 581.304 93.4348L581.303 93.4346C572.779 84.9104 558.959 84.9104 550.435 93.4346Z" fill="#071927"/>
<path d="M565.869 92.3446C568.001 92.3436 570.113 92.7545 572.089 93.5546C574.637 94.5872 576.887 96.2402 578.634 98.3633C580.381 100.486 581.569 103.012 582.092 105.712C582.703 108.86 582.388 112.118 581.185 115.092C580.152 117.64 578.499 119.889 576.376 121.636C574.253 123.383 571.727 124.572 569.028 125.095C565.879 125.706 562.621 125.39 559.648 124.187C557.1 123.155 554.85 121.502 553.103 119.379C551.356 117.256 550.168 114.73 549.645 112.031C549.034 108.882 549.349 105.624 550.552 102.651C551.584 100.102 553.237 97.8523 555.36 96.1051C557.484 94.3578 560.01 93.1688 562.709 92.6462C563.75 92.4454 564.808 92.3444 565.869 92.3446ZM565.869 89.2734C560.853 89.2734 555.838 91.1868 552.011 95.0134C544.358 102.667 544.358 115.075 552.011 122.729C555.838 126.555 560.853 128.468 565.869 128.468C570.884 128.468 575.899 126.555 579.726 122.729C587.379 115.075 587.379 102.667 579.726 95.0134C575.899 91.1855 570.884 89.2734 565.869 89.2734Z" fill="url(#paint23_linear_3721_11686)"/>
<path d="M558.633 106.613C558.242 106.913 558.768 109.489 559.137 109.857C559.506 110.225 562.712 113.093 562.712 113.093L563.686 111.68C563.686 111.68 559.139 106.24 558.633 106.613Z" fill="url(#paint24_linear_3721_11686)"/>
<path d="M551.595 129.472L573.161 114.523C573.525 114.27 573.812 111.698 573.373 111.395C572.935 111.093 551.595 129.472 551.595 129.472Z" fill="url(#paint25_linear_3721_11686)"/>
<path d="M579.201 88.0186L567.75 106.687L568.621 107.433L579.201 88.0186Z" fill="url(#paint26_linear_3721_11686)"/>
<path d="M578.748 87.7595L558.632 106.612C558.601 106.641 558.576 106.676 558.56 106.715C558.543 106.754 558.534 106.796 558.535 106.838C558.535 106.88 558.544 106.922 558.561 106.961C558.578 107 558.603 107.034 558.635 107.063L563.686 111.68L551.209 129.107C551.028 129.361 551.353 129.667 551.595 129.471L573.369 111.869C573.405 111.84 573.433 111.804 573.453 111.763C573.472 111.722 573.483 111.678 573.483 111.632C573.484 111.587 573.474 111.542 573.455 111.501C573.436 111.46 573.408 111.423 573.374 111.394L567.793 106.709L579.159 88.0937C579.321 87.8289 578.975 87.5464 578.748 87.7595Z" fill="#F3FC1F"/>
<path d="M571.487 94.3511L575.117 90.9492" stroke="#071927" stroke-width="0.5" stroke-miterlimit="10"/>
<path d="M555.796 126.743L559.888 123.91" stroke="#071927" stroke-width="0.5" stroke-miterlimit="10"/>
<defs>
<linearGradient id="paint0_linear_3721_11686" x1="216.821" y1="-17.0062" x2="536.135" y2="175.574" gradientUnits="userSpaceOnUse">
<stop stop-color="#3AD889"/>
<stop offset="1" stop-color="#F3FC1F"/>
</linearGradient>
<linearGradient id="paint1_linear_3721_11686" x1="436.744" y1="-32.1326" x2="224.41" y2="-12.4318" gradientUnits="userSpaceOnUse">
<stop stop-color="#F3FC1F"/>
<stop offset="0.46875" stop-color="#F3FC1F"/>
<stop offset="1" stop-color="#00FF80"/>
</linearGradient>
<linearGradient id="paint2_linear_3721_11686" x1="446.821" y1="-17.0062" x2="766.135" y2="175.574" gradientUnits="userSpaceOnUse">
<stop stop-color="#3AD889"/>
<stop offset="1" stop-color="#F3FC1F"/>
</linearGradient>
<linearGradient id="paint3_linear_3721_11686" x1="604.322" y1="-32.1326" x2="518.52" y2="-28.9387" gradientUnits="userSpaceOnUse">
<stop stop-color="#F3FC1F"/>
<stop offset="0.46875" stop-color="#F3FC1F"/>
<stop offset="1" stop-color="#00FF80"/>
</linearGradient>
<linearGradient id="paint4_linear_3721_11686" x1="-13.1786" y1="-17.0062" x2="306.135" y2="175.574" gradientUnits="userSpaceOnUse">
<stop stop-color="#3AD889"/>
<stop offset="1" stop-color="#F3FC1F"/>
</linearGradient>
<linearGradient id="paint5_linear_3721_11686" x1="187.39" y1="-32.1326" x2="8.93329" y2="-18.252" gradientUnits="userSpaceOnUse">
<stop stop-color="#F3FC1F"/>
<stop offset="0.46875" stop-color="#F3FC1F"/>
<stop offset="1" stop-color="#00FF80"/>
</linearGradient>
<linearGradient id="paint6_linear_3721_11686" x1="-171.247" y1="183.448" x2="193.614" y2="284.6" gradientUnits="userSpaceOnUse">
<stop stop-color="#3AD889"/>
<stop offset="1" stop-color="#F3FC1F"/>
</linearGradient>
<linearGradient id="paint7_linear_3721_11686" x1="58.7527" y1="183.448" x2="423.614" y2="284.6" gradientUnits="userSpaceOnUse">
<stop stop-color="#3AD889"/>
<stop offset="1" stop-color="#F3FC1F"/>
</linearGradient>
<linearGradient id="paint8_linear_3721_11686" x1="288.753" y1="183.448" x2="653.614" y2="284.6" gradientUnits="userSpaceOnUse">
<stop stop-color="#3AD889"/>
<stop offset="1" stop-color="#F3FC1F"/>
</linearGradient>
<linearGradient id="paint9_linear_3721_11686" x1="255" y1="163" x2="411" y2="163" gradientUnits="userSpaceOnUse">
<stop stop-color="#F3FC1F" stop-opacity="0"/>
<stop offset="0.364583" stop-color="#F3FC1F" stop-opacity="0.681818"/>
<stop offset="0.645833" stop-color="#F3FC1F"/>
<stop offset="1" stop-color="#F3FC1F" stop-opacity="0"/>
</linearGradient>
<linearGradient id="paint10_linear_3721_11686" x1="25" y1="163" x2="181" y2="163" gradientUnits="userSpaceOnUse">
<stop stop-color="#F3FC1F" stop-opacity="0"/>
<stop offset="0.364583" stop-color="#F3FC1F" stop-opacity="0.681818"/>
<stop offset="0.645833" stop-color="#F3FC1F"/>
<stop offset="1" stop-color="#F3FC1F" stop-opacity="0"/>
</linearGradient>
<linearGradient id="paint11_linear_3721_11686" x1="485" y1="163" x2="641" y2="163" gradientUnits="userSpaceOnUse">
<stop stop-color="#F3FC1F" stop-opacity="0"/>
<stop offset="0.364583" stop-color="#F3FC1F" stop-opacity="0.681818"/>
<stop offset="0.645833" stop-color="#F3FC1F"/>
<stop offset="1" stop-color="#F3FC1F" stop-opacity="0"/>
</linearGradient>
<linearGradient id="paint12_linear_3721_11686" x1="255" y1="197" x2="411" y2="197" gradientUnits="userSpaceOnUse">
<stop stop-color="#F3FC1F" stop-opacity="0"/>
<stop offset="0.364583" stop-color="#F3FC1F" stop-opacity="0.681818"/>
<stop offset="0.645833" stop-color="#F3FC1F"/>
<stop offset="1" stop-color="#F3FC1F" stop-opacity="0"/>
</linearGradient>
<linearGradient id="paint13_linear_3721_11686" x1="25" y1="197" x2="181" y2="197" gradientUnits="userSpaceOnUse">
<stop stop-color="#F3FC1F" stop-opacity="0"/>
<stop offset="0.364583" stop-color="#F3FC1F" stop-opacity="0.681818"/>
<stop offset="0.645833" stop-color="#F3FC1F"/>
<stop offset="1" stop-color="#F3FC1F" stop-opacity="0"/>
</linearGradient>
<linearGradient id="paint14_linear_3721_11686" x1="485" y1="197" x2="641" y2="197" gradientUnits="userSpaceOnUse">
<stop stop-color="#F3FC1F" stop-opacity="0"/>
<stop offset="0.364583" stop-color="#F3FC1F" stop-opacity="0.681818"/>
<stop offset="0.645833" stop-color="#F3FC1F"/>
<stop offset="1" stop-color="#F3FC1F" stop-opacity="0"/>
</linearGradient>
<linearGradient id="paint15_linear_3721_11686" x1="90.6924" y1="124.228" x2="115.045" y2="93.5116" gradientUnits="userSpaceOnUse">
<stop offset="0.06" stop-color="#3AD889"/>
<stop offset="0.1" stop-color="#50DC7C"/>
<stop offset="0.2" stop-color="#7BE564"/>
<stop offset="0.3" stop-color="#A0EC4E"/>
<stop offset="0.41" stop-color="#BEF23D"/>
<stop offset="0.52" stop-color="#D6F630"/>
<stop offset="0.63" stop-color="#E6F926"/>
<stop offset="0.76" stop-color="#F0FB21"/>
<stop offset="0.93" stop-color="#F3FC1F"/>
</linearGradient>
<linearGradient id="paint16_linear_3721_11686" x1="95.0907" y1="112.187" x2="100.277" y2="107.499" gradientUnits="userSpaceOnUse">
<stop stop-color="#3AD889"/>
<stop offset="0.15" stop-color="#35CE81"/>
<stop offset="0.4" stop-color="#29B36D"/>
<stop offset="0.71" stop-color="#15884C"/>
<stop offset="1" stop-color="#005B29"/>
</linearGradient>
<linearGradient id="paint17_linear_3721_11686" x1="112.063" y1="110.057" x2="89.7795" y2="131.036" gradientUnits="userSpaceOnUse">
<stop stop-color="#3AD889"/>
<stop offset="0.36" stop-color="#23A763"/>
<stop offset="0.79" stop-color="#0A7039"/>
<stop offset="1" stop-color="#005B29"/>
</linearGradient>
<linearGradient id="paint18_linear_3721_11686" x1="8944.6" y1="6841.93" x2="13214" y2="6841.93" gradientUnits="userSpaceOnUse">
<stop stop-color="#3AD889"/>
<stop offset="0.36" stop-color="#23A763"/>
<stop offset="0.79" stop-color="#0A7039"/>
<stop offset="1" stop-color="#005B29"/>
</linearGradient>
<linearGradient id="paint19_linear_3721_11686" x1="323.692" y1="124.228" x2="348.045" y2="93.5116" gradientUnits="userSpaceOnUse">
<stop offset="0.06" stop-color="#3AD889"/>
<stop offset="0.1" stop-color="#50DC7C"/>
<stop offset="0.2" stop-color="#7BE564"/>
<stop offset="0.3" stop-color="#A0EC4E"/>
<stop offset="0.41" stop-color="#BEF23D"/>
<stop offset="0.52" stop-color="#D6F630"/>
<stop offset="0.63" stop-color="#E6F926"/>
<stop offset="0.76" stop-color="#F0FB21"/>
<stop offset="0.93" stop-color="#F3FC1F"/>
</linearGradient>
<linearGradient id="paint20_linear_3721_11686" x1="328.091" y1="112.187" x2="333.277" y2="107.499" gradientUnits="userSpaceOnUse">
<stop stop-color="#3AD889"/>
<stop offset="0.15" stop-color="#35CE81"/>
<stop offset="0.4" stop-color="#29B36D"/>
<stop offset="0.71" stop-color="#15884C"/>
<stop offset="1" stop-color="#005B29"/>
</linearGradient>
<linearGradient id="paint21_linear_3721_11686" x1="345.063" y1="110.057" x2="322.78" y2="131.036" gradientUnits="userSpaceOnUse">
<stop stop-color="#3AD889"/>
<stop offset="0.36" stop-color="#23A763"/>
<stop offset="0.79" stop-color="#0A7039"/>
<stop offset="1" stop-color="#005B29"/>
</linearGradient>
<linearGradient id="paint22_linear_3721_11686" x1="9177.6" y1="6841.93" x2="13447" y2="6841.93" gradientUnits="userSpaceOnUse">
<stop stop-color="#3AD889"/>
<stop offset="0.36" stop-color="#23A763"/>
<stop offset="0.79" stop-color="#0A7039"/>
<stop offset="1" stop-color="#005B29"/>
</linearGradient>
<linearGradient id="paint23_linear_3721_11686" x1="553.692" y1="124.228" x2="578.045" y2="93.5116" gradientUnits="userSpaceOnUse">
<stop offset="0.06" stop-color="#3AD889"/>
<stop offset="0.1" stop-color="#50DC7C"/>
<stop offset="0.2" stop-color="#7BE564"/>
<stop offset="0.3" stop-color="#A0EC4E"/>
<stop offset="0.41" stop-color="#BEF23D"/>
<stop offset="0.52" stop-color="#D6F630"/>
<stop offset="0.63" stop-color="#E6F926"/>
<stop offset="0.76" stop-color="#F0FB21"/>
<stop offset="0.93" stop-color="#F3FC1F"/>
</linearGradient>
<linearGradient id="paint24_linear_3721_11686" x1="558.091" y1="112.187" x2="563.277" y2="107.499" gradientUnits="userSpaceOnUse">
<stop stop-color="#3AD889"/>
<stop offset="0.15" stop-color="#35CE81"/>
<stop offset="0.4" stop-color="#29B36D"/>
<stop offset="0.71" stop-color="#15884C"/>
<stop offset="1" stop-color="#005B29"/>
</linearGradient>
<linearGradient id="paint25_linear_3721_11686" x1="575.063" y1="110.057" x2="552.779" y2="131.036" gradientUnits="userSpaceOnUse">
<stop stop-color="#3AD889"/>
<stop offset="0.36" stop-color="#23A763"/>
<stop offset="0.79" stop-color="#0A7039"/>
<stop offset="1" stop-color="#005B29"/>
</linearGradient>
<linearGradient id="paint26_linear_3721_11686" x1="9407.6" y1="6841.93" x2="13677" y2="6841.93" gradientUnits="userSpaceOnUse">
<stop stop-color="#3AD889"/>
<stop offset="0.36" stop-color="#23A763"/>
<stop offset="0.79" stop-color="#0A7039"/>
<stop offset="1" stop-color="#005B29"/>
</linearGradient>
</defs>
</svg>
