<svg width="160" height="160" viewBox="0 0 160 160" fill="none" xmlns="http://www.w3.org/2000/svg">
<path d="M40.0003 39.9997L39.9997 40.0003C17.9085 62.0915 17.9085 97.9085 39.9997 120L40.0003 120C62.0915 142.092 97.9085 142.092 120 120L120 120C142.092 97.9085 142.092 62.0915 120 40.0003L120 39.9997C97.9085 17.9085 62.0915 17.9085 40.0003 39.9997Z" fill="#071927"/>
<path d="M79.9991 37.175C85.5244 37.1725 90.9981 38.2373 96.1196 40.3109C102.723 42.987 108.554 47.2708 113.081 52.7731C117.609 58.2754 120.69 64.8216 122.044 71.8172C123.628 79.9771 122.811 88.421 119.693 96.1261C117.017 102.73 112.733 108.56 107.231 113.087C101.728 117.615 95.1821 120.695 88.1867 122.05C80.0268 123.633 71.5829 122.817 63.8778 119.699C57.2741 117.023 51.4437 112.739 46.9163 107.237C42.389 101.735 39.3083 95.1886 37.954 88.1932C36.3703 80.0336 37.187 71.5899 40.3052 63.8851C42.9805 57.2804 47.264 51.4489 52.7663 46.9207C58.2687 42.3925 64.8154 39.3111 71.8115 37.9566C74.5096 37.4362 77.2512 37.1745 79.9991 37.175ZM79.9991 29.2158C67.001 29.2158 54.0029 34.1744 44.0858 44.0915C24.2515 63.9257 24.2515 96.0839 44.0858 115.918C54.0029 125.835 67.001 130.794 79.9991 130.794C92.9972 130.794 105.995 125.835 115.912 115.918C135.746 96.0839 135.746 63.9257 115.912 44.0915C105.995 34.1712 92.9972 29.2158 79.9991 29.2158Z" fill="url(#paint0_linear_2887_11752)"/>
<path d="M61.2473 74.153C60.2349 74.9306 61.5975 81.606 62.5542 82.5603C63.5109 83.5146 71.8194 90.9461 71.8194 90.9461L74.3425 87.2849C74.3425 87.2849 62.5581 73.186 61.2473 74.153Z" fill="url(#paint1_linear_2887_11752)"/>
<path d="M43.0073 133.394L98.8973 94.6531C99.842 93.9973 100.585 87.3307 99.4489 86.5467C98.3123 85.7627 43.0073 133.394 43.0073 133.394Z" fill="url(#paint2_linear_2887_11752)"/>
<path d="M114.55 25.9639L84.8748 74.3444L87.1312 76.2785L114.55 25.9639Z" fill="url(#paint3_linear_2887_11752)"/>
<path d="M113.377 25.2919L61.2441 74.15C61.164 74.225 61.1003 74.3158 61.057 74.4166C61.0136 74.5174 60.9916 74.6261 60.9923 74.7358C60.993 74.8455 61.0163 74.9539 61.0609 75.0542C61.1054 75.1544 61.1703 75.2444 61.2512 75.3184L74.3425 87.285L42.0084 132.449C41.5388 133.105 42.3801 133.899 43.0073 133.392L99.4377 87.7729C99.5291 87.6991 99.603 87.6059 99.6541 87.5001C99.7052 87.3944 99.7322 87.2786 99.7333 87.1611C99.7344 87.0436 99.7094 86.9274 99.6603 86.8207C99.6111 86.714 99.5389 86.6195 99.4489 86.544L84.9863 74.4007L114.442 26.1579C114.863 25.4718 113.966 24.7395 113.377 25.2919Z" fill="#F3FC1F"/>
<path d="M94.5587 42.375L103.966 33.5586" stroke="#071927" stroke-miterlimit="10"/>
<path d="M53.8961 126.32L64.5001 118.979" stroke="#071927" stroke-miterlimit="10"/>
<defs>
<linearGradient id="paint0_linear_2887_11752" x1="48.4434" y1="119.804" x2="111.555" y2="40.1995" gradientUnits="userSpaceOnUse">
<stop offset="0.06" stop-color="#3AD889"/>
<stop offset="0.1" stop-color="#50DC7C"/>
<stop offset="0.2" stop-color="#7BE564"/>
<stop offset="0.3" stop-color="#A0EC4E"/>
<stop offset="0.41" stop-color="#BEF23D"/>
<stop offset="0.52" stop-color="#D6F630"/>
<stop offset="0.63" stop-color="#E6F926"/>
<stop offset="0.76" stop-color="#F0FB21"/>
<stop offset="0.93" stop-color="#F3FC1F"/>
</linearGradient>
<linearGradient id="paint1_linear_2887_11752" x1="59.8417" y1="88.5981" x2="73.2815" y2="76.4485" gradientUnits="userSpaceOnUse">
<stop stop-color="#3AD889"/>
<stop offset="0.15" stop-color="#35CE81"/>
<stop offset="0.4" stop-color="#29B36D"/>
<stop offset="0.71" stop-color="#15884C"/>
<stop offset="1" stop-color="#005B29"/>
</linearGradient>
<linearGradient id="paint2_linear_2887_11752" x1="103.826" y1="83.0773" x2="46.0771" y2="137.446" gradientUnits="userSpaceOnUse">
<stop stop-color="#3AD889"/>
<stop offset="0.36" stop-color="#23A763"/>
<stop offset="0.79" stop-color="#0A7039"/>
<stop offset="1" stop-color="#005B29"/>
</linearGradient>
<linearGradient id="paint3_linear_2887_11752" x1="22994.2" y1="17529.4" x2="34058.8" y2="17529.4" gradientUnits="userSpaceOnUse">
<stop stop-color="#3AD889"/>
<stop offset="0.36" stop-color="#23A763"/>
<stop offset="0.79" stop-color="#0A7039"/>
<stop offset="1" stop-color="#005B29"/>
</linearGradient>
</defs>
</svg>
