<svg width="11" height="16" viewBox="0 0 11 16" fill="none" xmlns="http://www.w3.org/2000/svg">
<path d="M10.4999 0.0285225L2.84467 7.20293C2.83291 7.21395 2.82356 7.22727 2.8172 7.24208C2.81083 7.25688 2.8076 7.27284 2.8077 7.28895C2.8078 7.30506 2.81123 7.32098 2.81777 7.3357C2.82432 7.35042 2.83383 7.36363 2.84573 7.3745L4.76806 9.1317L0.0200701 15.7637C-0.0488854 15.86 0.0746503 15.9765 0.166747 15.9021L8.45309 9.20334C8.46651 9.1925 8.47736 9.17882 8.48486 9.16329C8.49237 9.14775 8.49634 9.13075 8.4965 9.1135C8.49665 9.09625 8.49299 9.07918 8.48577 9.06351C8.47855 9.04785 8.46795 9.03397 8.45473 9.02289L6.33102 7.23975L10.6563 0.155681C10.7181 0.054936 10.5864 -0.0525879 10.4999 0.0285225Z" fill="#F3FC1F"/>
</svg>
