<svg width="17" height="17" viewBox="0 0 17 17" fill="none" xmlns="http://www.w3.org/2000/svg">
<circle cx="8.5" cy="8.5" r="8.5" fill="url(#paint0_linear_4051_15664)"/>
<path d="M10.4456 8.65065C9.85167 8.31278 9.21861 8.04249 8.61401 7.72241C8.32238 7.56948 8.03074 7.39521 7.78535 7.18182C7.43325 6.87952 7.37991 6.41362 7.60041 6.03308C7.70559 5.84579 7.86951 5.69833 8.06684 5.61348C8.26418 5.52863 8.48396 5.51111 8.69225 5.56362C9.11192 5.66676 9.41422 6.05797 9.42133 6.50253C9.42489 6.55944 9.42133 6.6199 9.42133 6.7017H11.3098C11.3098 6.63057 11.3134 6.55232 11.3098 6.47764C11.2671 5.32889 10.3851 4.35086 9.2115 4.17659C9.16292 4.17186 9.11638 4.15471 9.07635 4.1268V2.9176H8.72782C8.56066 2.91404 8.38995 2.9176 8.20146 2.9176H8.11254V4.13747H8.12321C8.08825 4.15232 8.05091 4.16075 8.01296 4.16237C7.62175 4.19437 7.26254 4.32241 6.92112 4.5109C6.07823 4.96969 5.67991 5.68098 5.69058 6.64835C5.70125 7.5517 6.10313 8.18475 6.89978 8.57596C7.33012 8.7858 7.77823 8.96362 8.20146 9.18768C8.56066 9.37617 8.91987 9.57889 9.23284 9.83496C9.54581 10.091 9.61694 10.5925 9.40355 10.973C9.29855 11.1569 9.13674 11.3016 8.94242 11.3857C8.74811 11.4697 8.53178 11.4884 8.32593 11.4389C8.1201 11.3882 7.93632 11.272 7.80226 11.1078C7.6682 10.9436 7.59112 10.7403 7.58263 10.5285C7.57907 10.4609 7.58263 10.3933 7.58263 10.3009H5.69769C5.67991 10.8414 5.8115 11.3322 6.11024 11.7732C6.53702 12.4063 7.15229 12.7371 7.89915 12.8509V14.0885H8.86296V12.8722C8.89749 12.8556 8.93495 12.8459 8.97321 12.8437C10.4705 12.6837 11.3738 11.6665 11.3063 10.1977C11.2778 9.54333 11.0324 8.9814 10.4456 8.65065Z" fill="black"/>
<defs>
<linearGradient id="paint0_linear_4051_15664" x1="0" y1="8.5" x2="17" y2="8.5" gradientUnits="userSpaceOnUse">
<stop stop-color="#B1FFBF"/>
<stop offset="1" stop-color="#FFF16D"/>
</linearGradient>
</defs>
</svg>
