<svg width="28" height="28" viewBox="0 0 28 28" fill="none" xmlns="http://www.w3.org/2000/svg">
<path d="M7.00005 6.99995L6.99995 7.00005C3.13398 10.866 3.13398 17.134 6.99995 21L7.00005 21C10.866 24.866 17.134 24.866 21 21L21.0001 21C24.866 17.134 24.866 10.866 21.0001 7.00005L21 6.99995C17.134 3.13398 10.866 3.13398 7.00005 6.99995Z" fill="#071927"/>
<path d="M13.9999 6.50613C14.9668 6.50571 15.9247 6.69205 16.8209 7.05492C17.9766 7.52325 18.997 8.27291 19.7893 9.23581C20.5816 10.1987 21.1207 11.3443 21.3577 12.5685C21.6348 13.9965 21.4919 15.4742 20.9463 16.8226C20.4779 17.9782 19.7283 18.9985 18.7654 19.7908C17.8025 20.5831 16.6569 21.1222 15.4327 21.3592C14.0047 21.6363 12.527 21.4934 11.1786 20.9478C10.023 20.4795 9.00267 19.7298 8.21038 18.767C7.4181 17.8041 6.87897 16.6585 6.64197 15.4343C6.36483 14.0064 6.50775 12.5287 7.05342 11.1804C7.52161 10.0246 8.27122 9.00407 9.23413 8.21164C10.197 7.4192 11.3427 6.87995 12.567 6.64291C13.0392 6.55184 13.519 6.50604 13.9999 6.50613ZM13.9999 5.11328C11.7252 5.11328 9.45052 5.98103 7.71503 7.71652C4.24404 11.1875 4.24404 16.8152 7.71503 20.2862C9.45052 22.0217 11.7252 22.8894 13.9999 22.8894C16.2745 22.8894 18.5492 22.0217 20.2846 20.2862C23.7555 16.8152 23.7555 11.1875 20.2846 7.71652C18.5492 5.98047 16.2745 5.11328 13.9999 5.11328Z" fill="url(#paint0_linear_4051_15655)"/>
<path d="M10.7183 12.9771C10.5411 13.1132 10.7796 14.2813 10.947 14.4483C11.1144 14.6153 12.5684 15.9159 12.5684 15.9159L13.0099 15.2751C13.0099 15.2751 10.9477 12.8078 10.7183 12.9771Z" fill="url(#paint1_linear_4051_15655)"/>
<path d="M7.52631 23.3436L17.3071 16.5639C17.4724 16.4491 17.6025 15.2824 17.4036 15.1452C17.2047 15.008 7.52631 23.3436 7.52631 23.3436Z" fill="url(#paint2_linear_4051_15655)"/>
<path d="M20.0463 4.54395L14.8531 13.0105L15.2479 13.349L20.0463 4.54395Z" fill="url(#paint3_linear_4051_15655)"/>
<path d="M19.8409 4.42657L10.7177 12.9767C10.7037 12.9899 10.6925 13.0057 10.6849 13.0234C10.6774 13.041 10.6735 13.06 10.6736 13.0792C10.6737 13.0984 10.6778 13.1174 10.6856 13.135C10.6934 13.1525 10.7048 13.1683 10.7189 13.1812L13.0099 15.2754L7.35143 23.1791C7.26925 23.2939 7.41648 23.4328 7.52624 23.344L17.4016 15.3607C17.4176 15.3478 17.4305 15.3315 17.4394 15.313C17.4484 15.2945 17.4531 15.2742 17.4533 15.2537C17.4535 15.2331 17.4491 15.2128 17.4405 15.1941C17.4319 15.1754 17.4193 15.1589 17.4035 15.1457L14.8726 13.0206L20.0272 4.57811C20.1009 4.45805 19.9439 4.32991 19.8409 4.42657Z" fill="#F3FC1F"/>
<path d="M16.5478 7.41591L18.194 5.87305" stroke="#071927" stroke-width="0.1" stroke-miterlimit="10"/>
<path d="M9.43179 21.9995L11.2875 20.7148" stroke="#071927" stroke-width="0.1" stroke-miterlimit="10"/>
<defs>
<linearGradient id="paint0_linear_4051_15655" x1="8.47762" y1="20.9662" x2="19.5221" y2="7.03542" gradientUnits="userSpaceOnUse">
<stop offset="0.06" stop-color="#3AD889"/>
<stop offset="0.1" stop-color="#50DC7C"/>
<stop offset="0.2" stop-color="#7BE564"/>
<stop offset="0.3" stop-color="#A0EC4E"/>
<stop offset="0.41" stop-color="#BEF23D"/>
<stop offset="0.52" stop-color="#D6F630"/>
<stop offset="0.63" stop-color="#E6F926"/>
<stop offset="0.76" stop-color="#F0FB21"/>
<stop offset="0.93" stop-color="#F3FC1F"/>
</linearGradient>
<linearGradient id="paint1_linear_4051_15655" x1="10.4723" y1="15.505" x2="12.8243" y2="13.3788" gradientUnits="userSpaceOnUse">
<stop stop-color="#3AD889"/>
<stop offset="0.15" stop-color="#35CE81"/>
<stop offset="0.4" stop-color="#29B36D"/>
<stop offset="0.71" stop-color="#15884C"/>
<stop offset="1" stop-color="#005B29"/>
</linearGradient>
<linearGradient id="paint2_linear_4051_15655" x1="18.1697" y1="14.5381" x2="8.06353" y2="24.0527" gradientUnits="userSpaceOnUse">
<stop stop-color="#3AD889"/>
<stop offset="0.36" stop-color="#23A763"/>
<stop offset="0.79" stop-color="#0A7039"/>
<stop offset="1" stop-color="#005B29"/>
</linearGradient>
<linearGradient id="paint3_linear_4051_15655" x1="4023.99" y1="3067.65" x2="5960.3" y2="3067.65" gradientUnits="userSpaceOnUse">
<stop stop-color="#3AD889"/>
<stop offset="0.36" stop-color="#23A763"/>
<stop offset="0.79" stop-color="#0A7039"/>
<stop offset="1" stop-color="#005B29"/>
</linearGradient>
</defs>
</svg>
