<svg width="17" height="17" viewBox="0 0 17 17" fill="none" xmlns="http://www.w3.org/2000/svg">
<circle cx="8.5" cy="8.5" r="8.5" fill="#EDEFF0"/>
<g clip-path="url(#clip0_4051_15668)">
<path d="M8.69373 2.125L8.60828 2.41547V10.8442L8.69373 10.9295L12.6062 8.6168L8.69373 2.125Z" fill="#343434"/>
<path d="M8.69376 2.125L4.78125 8.6168L8.69376 10.9295V6.83846V2.125Z" fill="#8C8C8C"/>
<path d="M8.69373 11.6699L8.64557 11.7286V14.7311L8.69373 14.8718L12.6086 9.3584L8.69373 11.6699Z" fill="#3C3C3B"/>
<path d="M8.69376 14.8718V11.6699L4.78125 9.3584L8.69376 14.8718Z" fill="#8C8C8C"/>
<path d="M8.69373 10.9298L12.6062 8.6172L8.69373 6.83887V10.9298Z" fill="#141414"/>
<path d="M4.78128 8.6172L8.69373 10.9298V6.83887L4.78128 8.6172Z" fill="#393939"/>
</g>
<defs>
<clipPath id="clip0_4051_15668">
<rect width="7.82734" height="12.75" fill="white" transform="translate(4.78125 2.125)"/>
</clipPath>
</defs>
</svg>
